<ttFont>
<head>
    <!-- Most of this table will be recalculated by the compiler -->
    <tableVersion value="1.0"/>
    <fontRevision value="1.002"/>
    <checkSumAdjustment value="0xa4f91326"/>
    <magicNumber value="0x5f0f3cf5"/>
    <flags value="00000000 00001111"/>
    <unitsPerEm value="1000"/>
    <created value="Sun Jun 13 08:13:04 2021"/>
    <modified value="Mon Jun 14 15:26:00 2021"/>
    <xMin value="-131"/>
    <yMin value="-265"/>
    <xMax value="1034"/>
    <yMax value="1151"/>
    <macStyle value="00000000 00000010"/>
    <lowestRecPPEM value="6"/>
    <fontDirectionHint value="2"/>
    <indexToLocFormat value="0"/>
    <glyphDataFormat value="0"/>
  </head>
    <TTGlyph name=".notdef" xMin="50" yMin="-265" xMax="450" yMax="1000">
      <contour>
        <pt x="50" y="-265" on="1"/>
        <pt x="50" y="1000" on="1"/>
        <pt x="450" y="1000" on="1"/>
        <pt x="450" y="-265" on="1"/>
      </contour>
      <contour>
        <pt x="100" y="-215" on="1"/>
        <pt x="400" y="-215" on="1"/>
        <pt x="400" y="950" on="1"/>
        <pt x="100" y="950" on="1"/>
      </contour>
    </TTGlyph>
    <TTGlyph name="A" xMin="-6" yMin="0" xMax="592" yMax="740">
      <contour>
        <pt x="-6" y="0" on="1"/>
        <pt x="416" y="740" on="1"/>
        <pt x="484" y="740" on="1"/>
        <pt x="592" y="0" on="1"/>
        <pt x="536" y="0" on="1"/>
        <pt x="506" y="206" on="1"/>
        <pt x="174" y="206" on="1"/>
        <pt x="58" y="0" on="1"/>
      </contour>
      <contour>
        <pt x="203" y="256" on="1"/>
        <pt x="499" y="256" on="1"/>
        <pt x="440" y="672" on="1"/>
      </contour>
    </TTGlyph>
    <TTGlyph name="AE" xMin="-6" yMin="0" xMax="996" yMax="740">
      <contour>
        <pt x="-6" y="0" on="1"/>
        <pt x="536" y="740" on="1"/>
        <pt x="996" y="740" on="1"/>
        <pt x="985" y="689" on="1"/>
        <pt x="615" y="689" on="1"/>
        <pt x="555" y="404" on="1"/>
        <pt x="876" y="404" on="1"/>
        <pt x="866" y="353" on="1"/>
        <pt x="544" y="353" on="1"/>
        <pt x="480" y="51" on="1"/>
        <pt x="855" y="51" on="1"/>
        <pt x="844" y="0" on="1"/>
        <pt x="413" y="0" on="1"/>
        <pt x="457" y="206" on="1"/>
        <pt x="211" y="206" on="1"/>
        <pt x="60" y="0" on="1"/>
      </contour>
      <contour>
        <pt x="248" y="256" on="1"/>
        <pt x="467" y="256" on="1"/>
        <pt x="557" y="677" on="1"/>
      </contour>
    </TTGlyph>
    <TTGlyph name="Aacute" xMin="-6" yMin="0" xMax="592" yMax="987">
      <contour>
        <pt x="491" y="825" on="1"/>
        <pt x="445" y="826" on="1"/>
        <pt x="524" y="987" on="1"/>
        <pt x="581" y="987" on="1"/>
      </contour>
      <contour>
        <pt x="-6" y="0" on="1"/>
        <pt x="416" y="740" on="1"/>
        <pt x="484" y="740" on="1"/>
        <pt x="592" y="0" on="1"/>
        <pt x="536" y="0" on="1"/>
        <pt x="506" y="206" on="1"/>
        <pt x="175" y="206" on="1"/>
        <pt x="58" y="0" on="1"/>
      </contour>
      <contour>
        <pt x="203" y="256" on="1"/>
        <pt x="499" y="256" on="1"/>
        <pt x="440" y="672" on="1"/>
      </contour>
    </TTGlyph>
    <TTGlyph name="Abreve" xMin="-6" yMin="0" xMax="635" yMax="941">
      <contour>
        <pt x="475" y="820" on="1"/>
        <pt x="434" y="820" on="0"/>
        <pt x="385" y="845" on="0"/>
        <pt x="360" y="881" on="0"/>
        <pt x="350" y="917" on="0"/>
        <pt x="350" y="941" on="0"/>
        <pt x="350" y="941" on="1"/>
        <pt x="394" y="941" on="1"/>
        <pt x="394" y="941" on="0"/>
        <pt x="394" y="917" on="0"/>
        <pt x="406" y="885" on="0"/>
        <pt x="441" y="861" on="0"/>
        <pt x="475" y="861" on="1"/>
        <pt x="510" y="861" on="0"/>
        <pt x="554" y="885" on="0"/>
        <pt x="580" y="917" on="0"/>
        <pt x="591" y="941" on="0"/>
        <pt x="591" y="941" on="1"/>
        <pt x="635" y="941" on="1"/>
        <pt x="635" y="941" on="0"/>
        <pt x="622" y="905" on="0"/>
        <pt x="588" y="857" on="0"/>
        <pt x="525" y="820" on="0"/>
      </contour>
      <contour>
        <pt x="-6" y="0" on="1"/>
        <pt x="416" y="740" on="1"/>
        <pt x="484" y="740" on="1"/>
        <pt x="592" y="0" on="1"/>
        <pt x="536" y="0" on="1"/>
        <pt x="506" y="206" on="1"/>
        <pt x="175" y="206" on="1"/>
        <pt x="58" y="0" on="1"/>
      </contour>
      <contour>
        <pt x="203" y="256" on="1"/>
        <pt x="499" y="256" on="1"/>
        <pt x="440" y="672" on="1"/>
      </contour>
    </TTGlyph>
    <TTGlyph name="Acircumflex" xMin="-6" yMin="0" xMax="604" yMax="958">
      <contour>
        <pt x="323" y="817" on="1"/>
        <pt x="467" y="958" on="1"/>
        <pt x="519" y="958" on="1"/>
        <pt x="604" y="817" on="1"/>
        <pt x="553" y="817" on="1"/>
        <pt x="490" y="924" on="1"/>
        <pt x="383" y="817" on="1"/>
      </contour>
      <contour>
        <pt x="-6" y="0" on="1"/>
        <pt x="416" y="740" on="1"/>
        <pt x="484" y="740" on="1"/>
        <pt x="592" y="0" on="1"/>
        <pt x="536" y="0" on="1"/>
        <pt x="506" y="206" on="1"/>
        <pt x="175" y="206" on="1"/>
        <pt x="58" y="0" on="1"/>
      </contour>
      <contour>
        <pt x="203" y="256" on="1"/>
        <pt x="499" y="256" on="1"/>
        <pt x="440" y="672" on="1"/>
      </contour>
    </TTGlyph>
    <TTGlyph name="Adieresis" xMin="-6" yMin="0" xMax="601" yMax="922">
      <contour>
        <pt x="556" y="834" on="1"/>
        <pt x="537" y="834" on="0"/>
        <pt x="512" y="860" on="0"/>
        <pt x="512" y="878" on="1"/>
        <pt x="512" y="896" on="0"/>
        <pt x="537" y="922" on="0"/>
        <pt x="556" y="922" on="1"/>
        <pt x="575" y="922" on="0"/>
        <pt x="601" y="896" on="0"/>
        <pt x="601" y="878" on="1"/>
        <pt x="601" y="860" on="0"/>
        <pt x="575" y="834" on="0"/>
      </contour>
      <contour>
        <pt x="400" y="834" on="1"/>
        <pt x="381" y="834" on="0"/>
        <pt x="356" y="860" on="0"/>
        <pt x="356" y="878" on="1"/>
        <pt x="356" y="896" on="0"/>
        <pt x="381" y="922" on="0"/>
        <pt x="400" y="922" on="1"/>
        <pt x="419" y="922" on="0"/>
        <pt x="445" y="896" on="0"/>
        <pt x="445" y="878" on="1"/>
        <pt x="445" y="860" on="0"/>
        <pt x="419" y="834" on="0"/>
      </contour>
      <contour>
        <pt x="-6" y="0" on="1"/>
        <pt x="416" y="740" on="1"/>
        <pt x="484" y="740" on="1"/>
        <pt x="592" y="0" on="1"/>
        <pt x="536" y="0" on="1"/>
        <pt x="506" y="206" on="1"/>
        <pt x="175" y="206" on="1"/>
        <pt x="58" y="0" on="1"/>
      </contour>
      <contour>
        <pt x="203" y="256" on="1"/>
        <pt x="499" y="256" on="1"/>
        <pt x="440" y="672" on="1"/>
      </contour>
    </TTGlyph>
    <TTGlyph name="Agrave" xMin="-6" yMin="0" xMax="592" yMax="987">
      <contour>
        <pt x="439" y="825" on="1"/>
        <pt x="371" y="987" on="1"/>
        <pt x="426" y="987" on="1"/>
        <pt x="483" y="826" on="1"/>
      </contour>
      <contour>
        <pt x="-6" y="0" on="1"/>
        <pt x="416" y="740" on="1"/>
        <pt x="484" y="740" on="1"/>
        <pt x="592" y="0" on="1"/>
        <pt x="536" y="0" on="1"/>
        <pt x="506" y="206" on="1"/>
        <pt x="175" y="206" on="1"/>
        <pt x="58" y="0" on="1"/>
      </contour>
      <contour>
        <pt x="203" y="256" on="1"/>
        <pt x="499" y="256" on="1"/>
        <pt x="440" y="672" on="1"/>
      </contour>
    </TTGlyph>
    <TTGlyph name="Amacron" xMin="-6" yMin="0" xMax="625" yMax="890">
      <contour>
        <pt x="328" y="846" on="1"/>
        <pt x="337" y="890" on="1"/>
        <pt x="625" y="890" on="1"/>
        <pt x="616" y="846" on="1"/>
      </contour>
      <contour>
        <pt x="-6" y="0" on="1"/>
        <pt x="416" y="740" on="1"/>
        <pt x="484" y="740" on="1"/>
        <pt x="592" y="0" on="1"/>
        <pt x="536" y="0" on="1"/>
        <pt x="506" y="206" on="1"/>
        <pt x="175" y="206" on="1"/>
        <pt x="58" y="0" on="1"/>
      </contour>
      <contour>
        <pt x="203" y="256" on="1"/>
        <pt x="499" y="256" on="1"/>
        <pt x="440" y="672" on="1"/>
      </contour>
    </TTGlyph>
    <TTGlyph name="Aogonek" xMin="-6" yMin="-155" xMax="592" yMax="740">
      <contour>
        <pt x="-6" y="0" on="1"/>
        <pt x="416" y="740" on="1"/>
        <pt x="484" y="740" on="1"/>
        <pt x="592" y="0" on="1"/>
        <pt x="573" y="0" on="1"/>
        <pt x="573" y="0" on="0"/>
        <pt x="551" y="-10" on="0"/>
        <pt x="521" y="-29" on="0"/>
        <pt x="499" y="-58" on="0"/>
        <pt x="499" y="-77" on="1"/>
        <pt x="499" y="-116" on="0"/>
        <pt x="551" y="-116" on="1"/>
        <pt x="566" y="-116" on="0"/>
        <pt x="591" y="-111" on="0"/>
        <pt x="591" y="-111" on="1"/>
        <pt x="583" y="-149" on="1"/>
        <pt x="583" y="-149" on="0"/>
        <pt x="559" y="-155" on="0"/>
        <pt x="540" y="-155" on="1"/>
        <pt x="500" y="-155" on="0"/>
        <pt x="454" y="-118" on="0"/>
        <pt x="454" y="-86" on="1"/>
        <pt x="454" y="-59" on="0"/>
        <pt x="483" y="-21" on="0"/>
        <pt x="521" y="3" on="0"/>
        <pt x="534" y="9" on="1"/>
        <pt x="506" y="206" on="1"/>
        <pt x="175" y="206" on="1"/>
        <pt x="58" y="0" on="1"/>
      </contour>
      <contour>
        <pt x="203" y="256" on="1"/>
        <pt x="499" y="256" on="1"/>
        <pt x="440" y="672" on="1"/>
      </contour>
    </TTGlyph>
    <TTGlyph name="Aring" xMin="-6" yMin="0" xMax="592" yMax="1030">
      <contour>
        <pt x="475" y="820" on="1"/>
        <pt x="431" y="820" on="0"/>
        <pt x="370" y="881" on="0"/>
        <pt x="370" y="925" on="1"/>
        <pt x="370" y="968" on="0"/>
        <pt x="431" y="1030" on="0"/>
        <pt x="475" y="1030" on="1"/>
        <pt x="519" y="1030" on="0"/>
        <pt x="580" y="968" on="0"/>
        <pt x="580" y="925" on="1"/>
        <pt x="580" y="881" on="0"/>
        <pt x="519" y="820" on="0"/>
      </contour>
      <contour>
        <pt x="475" y="863" on="1"/>
        <pt x="501" y="863" on="0"/>
        <pt x="537" y="899" on="0"/>
        <pt x="537" y="925" on="1"/>
        <pt x="537" y="950" on="0"/>
        <pt x="501" y="987" on="0"/>
        <pt x="475" y="987" on="1"/>
        <pt x="449" y="987" on="0"/>
        <pt x="413" y="950" on="0"/>
        <pt x="413" y="925" on="1"/>
        <pt x="413" y="899" on="0"/>
        <pt x="449" y="863" on="0"/>
      </contour>
      <contour>
        <pt x="-6" y="0" on="1"/>
        <pt x="416" y="740" on="1"/>
        <pt x="484" y="740" on="1"/>
        <pt x="592" y="0" on="1"/>
        <pt x="536" y="0" on="1"/>
        <pt x="506" y="206" on="1"/>
        <pt x="175" y="206" on="1"/>
        <pt x="58" y="0" on="1"/>
      </contour>
      <contour>
        <pt x="203" y="256" on="1"/>
        <pt x="499" y="256" on="1"/>
        <pt x="440" y="672" on="1"/>
      </contour>
    </TTGlyph>
    <TTGlyph name="Atilde" xMin="-6" yMin="0" xMax="627" yMax="948">
      <contour>
        <pt x="538" y="829" on="1"/>
        <pt x="514" y="829" on="0"/>
        <pt x="484" y="853" on="0"/>
        <pt x="462" y="884" on="0"/>
        <pt x="441" y="907" on="0"/>
        <pt x="425" y="907" on="1"/>
        <pt x="407" y="907" on="0"/>
        <pt x="383" y="867" on="0"/>
        <pt x="378" y="835" on="1"/>
        <pt x="336" y="835" on="1"/>
        <pt x="346" y="885" on="0"/>
        <pt x="389" y="948" on="0"/>
        <pt x="428" y="948" on="1"/>
        <pt x="452" y="948" on="0"/>
        <pt x="483" y="925" on="0"/>
        <pt x="504" y="895" on="0"/>
        <pt x="525" y="871" on="0"/>
        <pt x="540" y="871" on="1"/>
        <pt x="574" y="871" on="0"/>
        <pt x="586" y="943" on="1"/>
        <pt x="627" y="943" on="1"/>
        <pt x="618" y="895" on="0"/>
        <pt x="576" y="829" on="0"/>
      </contour>
      <contour>
        <pt x="-6" y="0" on="1"/>
        <pt x="416" y="740" on="1"/>
        <pt x="484" y="740" on="1"/>
        <pt x="592" y="0" on="1"/>
        <pt x="536" y="0" on="1"/>
        <pt x="506" y="206" on="1"/>
        <pt x="175" y="206" on="1"/>
        <pt x="58" y="0" on="1"/>
      </contour>
      <contour>
        <pt x="203" y="256" on="1"/>
        <pt x="499" y="256" on="1"/>
        <pt x="440" y="672" on="1"/>
      </contour>
    </TTGlyph>
    <TTGlyph name="B" xMin="32" yMin="0" xMax="628" yMax="740">
      <contour>
        <pt x="32" y="0" on="1"/>
        <pt x="189" y="740" on="1"/>
        <pt x="446" y="740" on="1"/>
        <pt x="508" y="740" on="0"/>
        <pt x="589" y="693" on="0"/>
        <pt x="628" y="619" on="0"/>
        <pt x="628" y="576" on="1"/>
        <pt x="628" y="536" on="0"/>
        <pt x="595" y="458" on="0"/>
        <pt x="529" y="396" on="0"/>
        <pt x="482" y="381" on="1"/>
        <pt x="481" y="377" on="1"/>
        <pt x="534" y="360" on="0"/>
        <pt x="589" y="279" on="0"/>
        <pt x="589" y="228" on="1"/>
        <pt x="589" y="189" on="0"/>
        <pt x="556" y="109" on="0"/>
        <pt x="490" y="41" on="0"/>
        <pt x="394" y="0" on="0"/>
        <pt x="331" y="0" on="1"/>
      </contour>
      <contour>
        <pt x="441" y="689" on="1"/>
        <pt x="235" y="689" on="1"/>
        <pt x="173" y="400" on="1"/>
        <pt x="393" y="400" on="1"/>
        <pt x="450" y="400" on="0"/>
        <pt x="530" y="452" on="0"/>
        <pt x="573" y="530" on="0"/>
        <pt x="573" y="570" on="1"/>
        <pt x="573" y="617" on="0"/>
        <pt x="509" y="689" on="0"/>
      </contour>
      <contour>
        <pt x="385" y="352" on="1"/>
        <pt x="163" y="352" on="1"/>
        <pt x="99" y="51" on="1"/>
        <pt x="334" y="51" on="1"/>
        <pt x="398" y="51" on="0"/>
        <pt x="487" y="104" on="0"/>
        <pt x="533" y="185" on="0"/>
        <pt x="533" y="226" on="1"/>
        <pt x="533" y="276" on="0"/>
        <pt x="461" y="352" on="0"/>
      </contour>
    </TTGlyph>
    <TTGlyph name="C" xMin="65" yMin="-10" xMax="714" yMax="750">
      <contour>
        <pt x="356" y="-10" on="1"/>
        <pt x="281" y="-10" on="0"/>
        <pt x="172" y="43" on="0"/>
        <pt x="100" y="133" on="0"/>
        <pt x="65" y="250" on="0"/>
        <pt x="65" y="314" on="1"/>
        <pt x="65" y="391" on="0"/>
        <pt x="115" y="545" on="0"/>
        <pt x="214" y="673" on="0"/>
        <pt x="360" y="750" on="0"/>
        <pt x="456" y="750" on="1"/>
        <pt x="523" y="750" on="0"/>
        <pt x="613" y="714" on="0"/>
        <pt x="670" y="658" on="0"/>
        <pt x="700" y="594" on="0"/>
        <pt x="712" y="538" on="0"/>
        <pt x="714" y="502" on="0"/>
        <pt x="714" y="502" on="1"/>
        <pt x="657" y="502" on="1"/>
        <pt x="657" y="502" on="0"/>
        <pt x="655" y="541" on="0"/>
        <pt x="638" y="600" on="0"/>
        <pt x="596" y="658" on="0"/>
        <pt x="517" y="698" on="0"/>
        <pt x="453" y="698" on="1"/>
        <pt x="372" y="698" on="0"/>
        <pt x="248" y="630" on="0"/>
        <pt x="165" y="519" on="0"/>
        <pt x="122" y="384" on="0"/>
        <pt x="122" y="317" on="1"/>
        <pt x="122" y="244" on="0"/>
        <pt x="173" y="119" on="0"/>
        <pt x="278" y="42" on="0"/>
        <pt x="359" y="42" on="1"/>
        <pt x="422" y="42" on="0"/>
        <pt x="511" y="82" on="0"/>
        <pt x="571" y="140" on="0"/>
        <pt x="606" y="199" on="0"/>
        <pt x="621" y="238" on="0"/>
        <pt x="621" y="238" on="1"/>
        <pt x="679" y="238" on="1"/>
        <pt x="679" y="238" on="0"/>
        <pt x="667" y="202" on="0"/>
        <pt x="639" y="146" on="0"/>
        <pt x="591" y="82" on="0"/>
        <pt x="519" y="26" on="0"/>
        <pt x="421" y="-10" on="0"/>
      </contour>
    </TTGlyph>
    <TTGlyph name="Cacute" xMin="65" yMin="-10" xMax="714" yMax="987">
      <contour>
        <pt x="524" y="825" on="1"/>
        <pt x="478" y="826" on="1"/>
        <pt x="558" y="987" on="1"/>
        <pt x="614" y="987" on="1"/>
      </contour>
      <contour>
        <pt x="356" y="-10" on="1"/>
        <pt x="281" y="-10" on="0"/>
        <pt x="172" y="43" on="0"/>
        <pt x="100" y="133" on="0"/>
        <pt x="65" y="250" on="0"/>
        <pt x="65" y="314" on="1"/>
        <pt x="65" y="391" on="0"/>
        <pt x="115" y="545" on="0"/>
        <pt x="214" y="673" on="0"/>
        <pt x="360" y="750" on="0"/>
        <pt x="456" y="750" on="1"/>
        <pt x="523" y="750" on="0"/>
        <pt x="613" y="714" on="0"/>
        <pt x="670" y="658" on="0"/>
        <pt x="700" y="594" on="0"/>
        <pt x="712" y="538" on="0"/>
        <pt x="714" y="502" on="0"/>
        <pt x="714" y="502" on="1"/>
        <pt x="657" y="502" on="1"/>
        <pt x="657" y="502" on="0"/>
        <pt x="655" y="541" on="0"/>
        <pt x="638" y="600" on="0"/>
        <pt x="596" y="658" on="0"/>
        <pt x="517" y="698" on="0"/>
        <pt x="453" y="698" on="1"/>
        <pt x="372" y="698" on="0"/>
        <pt x="248" y="630" on="0"/>
        <pt x="165" y="519" on="0"/>
        <pt x="122" y="384" on="0"/>
        <pt x="122" y="317" on="1"/>
        <pt x="122" y="244" on="0"/>
        <pt x="173" y="119" on="0"/>
        <pt x="278" y="42" on="0"/>
        <pt x="359" y="42" on="1"/>
        <pt x="422" y="42" on="0"/>
        <pt x="511" y="82" on="0"/>
        <pt x="571" y="140" on="0"/>
        <pt x="606" y="199" on="0"/>
        <pt x="621" y="238" on="0"/>
        <pt x="621" y="238" on="1"/>
        <pt x="679" y="238" on="1"/>
        <pt x="679" y="238" on="0"/>
        <pt x="667" y="202" on="0"/>
        <pt x="639" y="146" on="0"/>
        <pt x="591" y="82" on="0"/>
        <pt x="519" y="26" on="0"/>
        <pt x="421" y="-10" on="0"/>
      </contour>
    </TTGlyph>
    <TTGlyph name="Ccaron" xMin="65" yMin="-10" xMax="714" yMax="974">
      <contour>
        <pt x="468" y="817" on="1"/>
        <pt x="387" y="974" on="1"/>
        <pt x="438" y="974" on="1"/>
        <pt x="498" y="854" on="1"/>
        <pt x="608" y="974" on="1"/>
        <pt x="667" y="974" on="1"/>
        <pt x="520" y="817" on="1"/>
      </contour>
      <contour>
        <pt x="356" y="-10" on="1"/>
        <pt x="281" y="-10" on="0"/>
        <pt x="172" y="43" on="0"/>
        <pt x="100" y="133" on="0"/>
        <pt x="65" y="250" on="0"/>
        <pt x="65" y="314" on="1"/>
        <pt x="65" y="391" on="0"/>
        <pt x="115" y="545" on="0"/>
        <pt x="214" y="673" on="0"/>
        <pt x="360" y="750" on="0"/>
        <pt x="456" y="750" on="1"/>
        <pt x="523" y="750" on="0"/>
        <pt x="613" y="714" on="0"/>
        <pt x="670" y="658" on="0"/>
        <pt x="700" y="594" on="0"/>
        <pt x="712" y="538" on="0"/>
        <pt x="714" y="502" on="0"/>
        <pt x="714" y="502" on="1"/>
        <pt x="657" y="502" on="1"/>
        <pt x="657" y="502" on="0"/>
        <pt x="655" y="541" on="0"/>
        <pt x="638" y="600" on="0"/>
        <pt x="596" y="658" on="0"/>
        <pt x="517" y="698" on="0"/>
        <pt x="453" y="698" on="1"/>
        <pt x="372" y="698" on="0"/>
        <pt x="248" y="630" on="0"/>
        <pt x="165" y="519" on="0"/>
        <pt x="122" y="384" on="0"/>
        <pt x="122" y="317" on="1"/>
        <pt x="122" y="244" on="0"/>
        <pt x="173" y="119" on="0"/>
        <pt x="278" y="42" on="0"/>
        <pt x="359" y="42" on="1"/>
        <pt x="422" y="42" on="0"/>
        <pt x="511" y="82" on="0"/>
        <pt x="571" y="140" on="0"/>
        <pt x="606" y="199" on="0"/>
        <pt x="621" y="238" on="0"/>
        <pt x="621" y="238" on="1"/>
        <pt x="679" y="238" on="1"/>
        <pt x="679" y="238" on="0"/>
        <pt x="667" y="202" on="0"/>
        <pt x="639" y="146" on="0"/>
        <pt x="591" y="82" on="0"/>
        <pt x="519" y="26" on="0"/>
        <pt x="421" y="-10" on="0"/>
      </contour>
    </TTGlyph>
    <TTGlyph name="Ccedilla" xMin="65" yMin="-253" xMax="714" yMax="750">
      <contour>
        <pt x="304" y="-253" on="1"/>
        <pt x="273" y="-253" on="0"/>
        <pt x="229" y="-241" on="0"/>
        <pt x="229" y="-241" on="1"/>
        <pt x="237" y="-202" on="1"/>
        <pt x="237" y="-202" on="0"/>
        <pt x="282" y="-213" on="0"/>
        <pt x="305" y="-213" on="1"/>
        <pt x="345" y="-213" on="0"/>
        <pt x="381" y="-176" on="0"/>
        <pt x="381" y="-155" on="1"/>
        <pt x="381" y="-135" on="0"/>
        <pt x="350" y="-104" on="0"/>
        <pt x="321" y="-104" on="1"/>
        <pt x="297" y="-104" on="0"/>
        <pt x="266" y="-120" on="0"/>
        <pt x="267" y="-120" on="1"/>
        <pt x="247" y="-96" on="1"/>
        <pt x="318" y="-8" on="1"/>
        <pt x="231" y="1" on="0"/>
        <pt x="120" y="94" on="0"/>
        <pt x="65" y="234" on="0"/>
        <pt x="65" y="314" on="1"/>
        <pt x="65" y="391" on="0"/>
        <pt x="115" y="545" on="0"/>
        <pt x="214" y="673" on="0"/>
        <pt x="360" y="750" on="0"/>
        <pt x="456" y="750" on="1"/>
        <pt x="523" y="750" on="0"/>
        <pt x="613" y="714" on="0"/>
        <pt x="670" y="658" on="0"/>
        <pt x="700" y="594" on="0"/>
        <pt x="712" y="538" on="0"/>
        <pt x="714" y="502" on="0"/>
        <pt x="714" y="502" on="1"/>
        <pt x="657" y="502" on="1"/>
        <pt x="657" y="502" on="0"/>
        <pt x="655" y="541" on="0"/>
        <pt x="638" y="600" on="0"/>
        <pt x="596" y="658" on="0"/>
        <pt x="517" y="698" on="0"/>
        <pt x="453" y="698" on="1"/>
        <pt x="372" y="698" on="0"/>
        <pt x="248" y="630" on="0"/>
        <pt x="165" y="519" on="0"/>
        <pt x="122" y="384" on="0"/>
        <pt x="122" y="317" on="1"/>
        <pt x="122" y="244" on="0"/>
        <pt x="173" y="119" on="0"/>
        <pt x="278" y="42" on="0"/>
        <pt x="359" y="42" on="1"/>
        <pt x="422" y="42" on="0"/>
        <pt x="511" y="82" on="0"/>
        <pt x="571" y="140" on="0"/>
        <pt x="606" y="199" on="0"/>
        <pt x="621" y="238" on="0"/>
        <pt x="621" y="238" on="1"/>
        <pt x="679" y="238" on="1"/>
        <pt x="679" y="238" on="0"/>
        <pt x="667" y="202" on="0"/>
        <pt x="639" y="146" on="0"/>
        <pt x="592" y="82" on="0"/>
        <pt x="523" y="26" on="0"/>
        <pt x="427" y="-10" on="0"/>
        <pt x="364" y="-10" on="1"/>
        <pt x="318" y="-67" on="1"/>
        <pt x="325" y="-66" on="0"/>
        <pt x="333" y="-66" on="1"/>
        <pt x="380" y="-66" on="0"/>
        <pt x="428" y="-119" on="0"/>
        <pt x="428" y="-153" on="1"/>
        <pt x="428" y="-190" on="0"/>
        <pt x="368" y="-253" on="0"/>
      </contour>
    </TTGlyph>
    <TTGlyph name="Cdotaccent" xMin="65" yMin="-10" xMax="714" yMax="927">
      <contour>
        <pt x="514" y="839" on="1"/>
        <pt x="495" y="839" on="0"/>
        <pt x="470" y="865" on="0"/>
        <pt x="470" y="883" on="1"/>
        <pt x="470" y="901" on="0"/>
        <pt x="495" y="927" on="0"/>
        <pt x="514" y="927" on="1"/>
        <pt x="532" y="927" on="0"/>
        <pt x="558" y="901" on="0"/>
        <pt x="558" y="883" on="1"/>
        <pt x="558" y="865" on="0"/>
        <pt x="532" y="839" on="0"/>
      </contour>
      <contour>
        <pt x="356" y="-10" on="1"/>
        <pt x="281" y="-10" on="0"/>
        <pt x="172" y="43" on="0"/>
        <pt x="100" y="133" on="0"/>
        <pt x="65" y="250" on="0"/>
        <pt x="65" y="314" on="1"/>
        <pt x="65" y="391" on="0"/>
        <pt x="115" y="545" on="0"/>
        <pt x="214" y="673" on="0"/>
        <pt x="360" y="750" on="0"/>
        <pt x="456" y="750" on="1"/>
        <pt x="523" y="750" on="0"/>
        <pt x="613" y="714" on="0"/>
        <pt x="670" y="658" on="0"/>
        <pt x="700" y="594" on="0"/>
        <pt x="712" y="538" on="0"/>
        <pt x="714" y="502" on="0"/>
        <pt x="714" y="502" on="1"/>
        <pt x="657" y="502" on="1"/>
        <pt x="657" y="502" on="0"/>
        <pt x="655" y="541" on="0"/>
        <pt x="638" y="600" on="0"/>
        <pt x="596" y="658" on="0"/>
        <pt x="517" y="698" on="0"/>
        <pt x="453" y="698" on="1"/>
        <pt x="372" y="698" on="0"/>
        <pt x="248" y="630" on="0"/>
        <pt x="165" y="519" on="0"/>
        <pt x="122" y="384" on="0"/>
        <pt x="122" y="317" on="1"/>
        <pt x="122" y="244" on="0"/>
        <pt x="173" y="119" on="0"/>
        <pt x="278" y="42" on="0"/>
        <pt x="359" y="42" on="1"/>
        <pt x="422" y="42" on="0"/>
        <pt x="511" y="82" on="0"/>
        <pt x="571" y="140" on="0"/>
        <pt x="606" y="199" on="0"/>
        <pt x="621" y="238" on="0"/>
        <pt x="621" y="238" on="1"/>
        <pt x="679" y="238" on="1"/>
        <pt x="679" y="238" on="0"/>
        <pt x="667" y="202" on="0"/>
        <pt x="639" y="146" on="0"/>
        <pt x="591" y="82" on="0"/>
        <pt x="519" y="26" on="0"/>
        <pt x="421" y="-10" on="0"/>
      </contour>
    </TTGlyph>
    <TTGlyph name="D" xMin="32" yMin="0" xMax="674" yMax="740">
      <contour>
        <pt x="32" y="0" on="1"/>
        <pt x="189" y="740" on="1"/>
        <pt x="366" y="740" on="1"/>
        <pt x="445" y="740" on="0"/>
        <pt x="561" y="690" on="0"/>
        <pt x="637" y="604" on="0"/>
        <pt x="674" y="493" on="0"/>
        <pt x="674" y="432" on="1"/>
        <pt x="674" y="356" on="0"/>
        <pt x="618" y="203" on="0"/>
        <pt x="509" y="77" on="0"/>
        <pt x="350" y="0" on="0"/>
        <pt x="248" y="0" on="1"/>
      </contour>
      <contour>
        <pt x="362" y="689" on="1"/>
        <pt x="234" y="689" on="1"/>
        <pt x="99" y="51" on="1"/>
        <pt x="249" y="51" on="1"/>
        <pt x="338" y="51" on="0"/>
        <pt x="474" y="119" on="0"/>
        <pt x="568" y="230" on="0"/>
        <pt x="617" y="363" on="0"/>
        <pt x="617" y="429" on="1"/>
        <pt x="617" y="498" on="0"/>
        <pt x="562" y="616" on="0"/>
        <pt x="449" y="689" on="0"/>
      </contour>
    </TTGlyph>
    <TTGlyph name="Dcaron" xMin="32" yMin="0" xMax="674" yMax="974">
      <contour>
        <pt x="382" y="817" on="1"/>
        <pt x="301" y="974" on="1"/>
        <pt x="351" y="974" on="1"/>
        <pt x="412" y="854" on="1"/>
        <pt x="522" y="974" on="1"/>
        <pt x="581" y="974" on="1"/>
        <pt x="434" y="817" on="1"/>
      </contour>
      <contour>
        <pt x="32" y="0" on="1"/>
        <pt x="189" y="740" on="1"/>
        <pt x="366" y="740" on="1"/>
        <pt x="445" y="740" on="0"/>
        <pt x="561" y="690" on="0"/>
        <pt x="637" y="604" on="0"/>
        <pt x="674" y="493" on="0"/>
        <pt x="674" y="432" on="1"/>
        <pt x="674" y="356" on="0"/>
        <pt x="618" y="203" on="0"/>
        <pt x="509" y="77" on="0"/>
        <pt x="350" y="0" on="0"/>
        <pt x="248" y="0" on="1"/>
      </contour>
      <contour>
        <pt x="362" y="689" on="1"/>
        <pt x="234" y="689" on="1"/>
        <pt x="99" y="51" on="1"/>
        <pt x="249" y="51" on="1"/>
        <pt x="338" y="51" on="0"/>
        <pt x="474" y="119" on="0"/>
        <pt x="568" y="230" on="0"/>
        <pt x="617" y="363" on="0"/>
        <pt x="617" y="429" on="1"/>
        <pt x="617" y="498" on="0"/>
        <pt x="562" y="616" on="0"/>
        <pt x="449" y="689" on="0"/>
      </contour>
    </TTGlyph>
    <TTGlyph name="Dcroat" xMin="47" yMin="0" xMax="720" yMax="740">
      <contour>
        <pt x="79" y="0" on="1"/>
        <pt x="152" y="345" on="1"/>
        <pt x="47" y="345" on="1"/>
        <pt x="58" y="395" on="1"/>
        <pt x="163" y="395" on="1"/>
        <pt x="236" y="740" on="1"/>
        <pt x="412" y="740" on="1"/>
        <pt x="491" y="740" on="0"/>
        <pt x="608" y="690" on="0"/>
        <pt x="683" y="604" on="0"/>
        <pt x="720" y="493" on="0"/>
        <pt x="720" y="432" on="1"/>
        <pt x="720" y="356" on="0"/>
        <pt x="664" y="203" on="0"/>
        <pt x="555" y="77" on="0"/>
        <pt x="397" y="0" on="0"/>
        <pt x="295" y="0" on="1"/>
      </contour>
      <contour>
        <pt x="367" y="345" on="1"/>
        <pt x="208" y="345" on="1"/>
        <pt x="146" y="51" on="1"/>
        <pt x="296" y="51" on="1"/>
        <pt x="384" y="51" on="0"/>
        <pt x="521" y="119" on="0"/>
        <pt x="615" y="230" on="0"/>
        <pt x="663" y="363" on="0"/>
        <pt x="663" y="429" on="1"/>
        <pt x="663" y="498" on="0"/>
        <pt x="609" y="616" on="0"/>
        <pt x="496" y="689" on="0"/>
        <pt x="408" y="689" on="1"/>
        <pt x="281" y="689" on="1"/>
        <pt x="219" y="395" on="1"/>
        <pt x="378" y="395" on="1"/>
      </contour>
    </TTGlyph>
    <TTGlyph name="E" xMin="32" yMin="0" xMax="615" yMax="740">
      <contour>
        <pt x="32" y="0" on="1"/>
        <pt x="189" y="740" on="1"/>
        <pt x="615" y="740" on="1"/>
        <pt x="604" y="689" on="1"/>
        <pt x="234" y="689" on="1"/>
        <pt x="174" y="404" on="1"/>
        <pt x="496" y="404" on="1"/>
        <pt x="485" y="353" on="1"/>
        <pt x="163" y="353" on="1"/>
        <pt x="99" y="51" on="1"/>
        <pt x="474" y="51" on="1"/>
        <pt x="464" y="0" on="1"/>
      </contour>
    </TTGlyph>
    <TTGlyph name="Eacute" xMin="32" yMin="0" xMax="615" yMax="987">
      <contour>
        <pt x="429" y="825" on="1"/>
        <pt x="383" y="826" on="1"/>
        <pt x="462" y="987" on="1"/>
        <pt x="519" y="987" on="1"/>
      </contour>
      <contour>
        <pt x="32" y="0" on="1"/>
        <pt x="189" y="740" on="1"/>
        <pt x="615" y="740" on="1"/>
        <pt x="604" y="689" on="1"/>
        <pt x="234" y="689" on="1"/>
        <pt x="174" y="404" on="1"/>
        <pt x="496" y="404" on="1"/>
        <pt x="485" y="353" on="1"/>
        <pt x="163" y="353" on="1"/>
        <pt x="99" y="51" on="1"/>
        <pt x="474" y="51" on="1"/>
        <pt x="464" y="0" on="1"/>
      </contour>
    </TTGlyph>
    <TTGlyph name="Ecaron" xMin="32" yMin="0" xMax="615" yMax="974">
      <contour>
        <pt x="373" y="817" on="1"/>
        <pt x="291" y="974" on="1"/>
        <pt x="342" y="974" on="1"/>
        <pt x="402" y="854" on="1"/>
        <pt x="512" y="974" on="1"/>
        <pt x="572" y="974" on="1"/>
        <pt x="424" y="817" on="1"/>
      </contour>
      <contour>
        <pt x="32" y="0" on="1"/>
        <pt x="189" y="740" on="1"/>
        <pt x="615" y="740" on="1"/>
        <pt x="604" y="689" on="1"/>
        <pt x="234" y="689" on="1"/>
        <pt x="174" y="404" on="1"/>
        <pt x="496" y="404" on="1"/>
        <pt x="485" y="353" on="1"/>
        <pt x="163" y="353" on="1"/>
        <pt x="99" y="51" on="1"/>
        <pt x="474" y="51" on="1"/>
        <pt x="464" y="0" on="1"/>
      </contour>
    </TTGlyph>
    <TTGlyph name="Ecircumflex" xMin="32" yMin="0" xMax="615" yMax="958">
      <contour>
        <pt x="261" y="817" on="1"/>
        <pt x="405" y="958" on="1"/>
        <pt x="457" y="958" on="1"/>
        <pt x="542" y="817" on="1"/>
        <pt x="491" y="817" on="1"/>
        <pt x="428" y="924" on="1"/>
        <pt x="321" y="817" on="1"/>
      </contour>
      <contour>
        <pt x="32" y="0" on="1"/>
        <pt x="189" y="740" on="1"/>
        <pt x="615" y="740" on="1"/>
        <pt x="604" y="689" on="1"/>
        <pt x="234" y="689" on="1"/>
        <pt x="174" y="404" on="1"/>
        <pt x="496" y="404" on="1"/>
        <pt x="485" y="353" on="1"/>
        <pt x="163" y="353" on="1"/>
        <pt x="99" y="51" on="1"/>
        <pt x="474" y="51" on="1"/>
        <pt x="464" y="0" on="1"/>
      </contour>
    </TTGlyph>
    <TTGlyph name="Edieresis" xMin="32" yMin="0" xMax="615" yMax="922">
      <contour>
        <pt x="494" y="834" on="1"/>
        <pt x="475" y="834" on="0"/>
        <pt x="450" y="860" on="0"/>
        <pt x="450" y="878" on="1"/>
        <pt x="450" y="896" on="0"/>
        <pt x="475" y="922" on="0"/>
        <pt x="494" y="922" on="1"/>
        <pt x="513" y="922" on="0"/>
        <pt x="539" y="896" on="0"/>
        <pt x="539" y="878" on="1"/>
        <pt x="539" y="860" on="0"/>
        <pt x="513" y="834" on="0"/>
      </contour>
      <contour>
        <pt x="338" y="834" on="1"/>
        <pt x="319" y="834" on="0"/>
        <pt x="294" y="860" on="0"/>
        <pt x="294" y="878" on="1"/>
        <pt x="294" y="896" on="0"/>
        <pt x="319" y="922" on="0"/>
        <pt x="338" y="922" on="1"/>
        <pt x="357" y="922" on="0"/>
        <pt x="383" y="896" on="0"/>
        <pt x="383" y="878" on="1"/>
        <pt x="383" y="860" on="0"/>
        <pt x="357" y="834" on="0"/>
      </contour>
      <contour>
        <pt x="32" y="0" on="1"/>
        <pt x="189" y="740" on="1"/>
        <pt x="615" y="740" on="1"/>
        <pt x="604" y="689" on="1"/>
        <pt x="234" y="689" on="1"/>
        <pt x="174" y="404" on="1"/>
        <pt x="496" y="404" on="1"/>
        <pt x="485" y="353" on="1"/>
        <pt x="163" y="353" on="1"/>
        <pt x="99" y="51" on="1"/>
        <pt x="474" y="51" on="1"/>
        <pt x="464" y="0" on="1"/>
      </contour>
    </TTGlyph>
    <TTGlyph name="Edotaccent" xMin="32" yMin="0" xMax="615" yMax="927">
      <contour>
        <pt x="418" y="839" on="1"/>
        <pt x="399" y="839" on="0"/>
        <pt x="374" y="865" on="0"/>
        <pt x="374" y="883" on="1"/>
        <pt x="374" y="901" on="0"/>
        <pt x="399" y="927" on="0"/>
        <pt x="418" y="927" on="1"/>
        <pt x="437" y="927" on="0"/>
        <pt x="463" y="901" on="0"/>
        <pt x="463" y="883" on="1"/>
        <pt x="463" y="865" on="0"/>
        <pt x="437" y="839" on="0"/>
      </contour>
      <contour>
        <pt x="32" y="0" on="1"/>
        <pt x="189" y="740" on="1"/>
        <pt x="615" y="740" on="1"/>
        <pt x="604" y="689" on="1"/>
        <pt x="234" y="689" on="1"/>
        <pt x="174" y="404" on="1"/>
        <pt x="496" y="404" on="1"/>
        <pt x="485" y="353" on="1"/>
        <pt x="163" y="353" on="1"/>
        <pt x="99" y="51" on="1"/>
        <pt x="474" y="51" on="1"/>
        <pt x="464" y="0" on="1"/>
      </contour>
    </TTGlyph>
    <TTGlyph name="Egrave" xMin="32" yMin="0" xMax="615" yMax="987">
      <contour>
        <pt x="377" y="825" on="1"/>
        <pt x="309" y="987" on="1"/>
        <pt x="364" y="987" on="1"/>
        <pt x="421" y="826" on="1"/>
      </contour>
      <contour>
        <pt x="32" y="0" on="1"/>
        <pt x="189" y="740" on="1"/>
        <pt x="615" y="740" on="1"/>
        <pt x="604" y="689" on="1"/>
        <pt x="234" y="689" on="1"/>
        <pt x="174" y="404" on="1"/>
        <pt x="496" y="404" on="1"/>
        <pt x="485" y="353" on="1"/>
        <pt x="163" y="353" on="1"/>
        <pt x="99" y="51" on="1"/>
        <pt x="474" y="51" on="1"/>
        <pt x="464" y="0" on="1"/>
      </contour>
    </TTGlyph>
    <TTGlyph name="Emacron" xMin="32" yMin="0" xMax="615" yMax="890">
      <contour>
        <pt x="266" y="846" on="1"/>
        <pt x="275" y="890" on="1"/>
        <pt x="563" y="890" on="1"/>
        <pt x="554" y="846" on="1"/>
      </contour>
      <contour>
        <pt x="32" y="0" on="1"/>
        <pt x="189" y="740" on="1"/>
        <pt x="615" y="740" on="1"/>
        <pt x="604" y="689" on="1"/>
        <pt x="234" y="689" on="1"/>
        <pt x="174" y="404" on="1"/>
        <pt x="496" y="404" on="1"/>
        <pt x="485" y="353" on="1"/>
        <pt x="163" y="353" on="1"/>
        <pt x="99" y="51" on="1"/>
        <pt x="474" y="51" on="1"/>
        <pt x="464" y="0" on="1"/>
      </contour>
    </TTGlyph>
    <TTGlyph name="Eogonek" xMin="32" yMin="-155" xMax="615" yMax="740">
      <contour>
        <pt x="32" y="0" on="1"/>
        <pt x="189" y="740" on="1"/>
        <pt x="615" y="740" on="1"/>
        <pt x="604" y="689" on="1"/>
        <pt x="234" y="689" on="1"/>
        <pt x="174" y="404" on="1"/>
        <pt x="496" y="404" on="1"/>
        <pt x="485" y="353" on="1"/>
        <pt x="163" y="353" on="1"/>
        <pt x="99" y="51" on="1"/>
        <pt x="474" y="51" on="1"/>
        <pt x="464" y="0" on="1"/>
        <pt x="464" y="0" on="0"/>
        <pt x="442" y="-10" on="0"/>
        <pt x="412" y="-29" on="0"/>
        <pt x="390" y="-58" on="0"/>
        <pt x="390" y="-77" on="1"/>
        <pt x="390" y="-116" on="0"/>
        <pt x="442" y="-116" on="1"/>
        <pt x="457" y="-116" on="0"/>
        <pt x="482" y="-111" on="0"/>
        <pt x="482" y="-111" on="1"/>
        <pt x="474" y="-149" on="1"/>
        <pt x="474" y="-149" on="0"/>
        <pt x="450" y="-155" on="0"/>
        <pt x="431" y="-155" on="1"/>
        <pt x="391" y="-155" on="0"/>
        <pt x="345" y="-118" on="0"/>
        <pt x="345" y="-86" on="1"/>
        <pt x="345" y="-53" on="0"/>
        <pt x="386" y="-11" on="0"/>
        <pt x="407" y="0" on="1"/>
      </contour>
    </TTGlyph>
    <TTGlyph name="Eth" xMin="47" yMin="0" xMax="720" yMax="740">
      <contour>
        <pt x="79" y="0" on="1"/>
        <pt x="152" y="345" on="1"/>
        <pt x="47" y="345" on="1"/>
        <pt x="58" y="395" on="1"/>
        <pt x="163" y="395" on="1"/>
        <pt x="236" y="740" on="1"/>
        <pt x="412" y="740" on="1"/>
        <pt x="491" y="740" on="0"/>
        <pt x="608" y="690" on="0"/>
        <pt x="683" y="604" on="0"/>
        <pt x="720" y="493" on="0"/>
        <pt x="720" y="432" on="1"/>
        <pt x="720" y="356" on="0"/>
        <pt x="664" y="203" on="0"/>
        <pt x="555" y="77" on="0"/>
        <pt x="397" y="0" on="0"/>
        <pt x="295" y="0" on="1"/>
      </contour>
      <contour>
        <pt x="367" y="345" on="1"/>
        <pt x="208" y="345" on="1"/>
        <pt x="146" y="51" on="1"/>
        <pt x="296" y="51" on="1"/>
        <pt x="384" y="51" on="0"/>
        <pt x="521" y="119" on="0"/>
        <pt x="615" y="230" on="0"/>
        <pt x="663" y="363" on="0"/>
        <pt x="663" y="429" on="1"/>
        <pt x="663" y="498" on="0"/>
        <pt x="609" y="616" on="0"/>
        <pt x="496" y="689" on="0"/>
        <pt x="408" y="689" on="1"/>
        <pt x="281" y="689" on="1"/>
        <pt x="219" y="395" on="1"/>
        <pt x="378" y="395" on="1"/>
      </contour>
    </TTGlyph>
    <TTGlyph name="Euro" xMin="41" yMin="-10" xMax="754" yMax="750">
      <contour>
        <pt x="41" y="290" on="1"/>
        <pt x="50" y="334" on="1"/>
        <pt x="170" y="334" on="1"/>
        <pt x="170" y="377" on="0"/>
        <pt x="179" y="420" on="1"/>
        <pt x="69" y="420" on="1"/>
        <pt x="78" y="464" on="1"/>
        <pt x="190" y="464" on="1"/>
        <pt x="214" y="541" on="0"/>
        <pt x="315" y="671" on="0"/>
        <pt x="470" y="750" on="0"/>
        <pt x="574" y="750" on="1"/>
        <pt x="623" y="750" on="0"/>
        <pt x="705" y="736" on="0"/>
        <pt x="754" y="723" on="0"/>
        <pt x="754" y="723" on="1"/>
        <pt x="743" y="670" on="1"/>
        <pt x="743" y="670" on="0"/>
        <pt x="694" y="684" on="0"/>
        <pt x="616" y="698" on="0"/>
        <pt x="573" y="698" on="1"/>
        <pt x="487" y="698" on="0"/>
        <pt x="357" y="634" on="0"/>
        <pt x="269" y="527" on="0"/>
        <pt x="248" y="464" on="1"/>
        <pt x="544" y="464" on="1"/>
        <pt x="535" y="420" on="1"/>
        <pt x="236" y="420" on="1"/>
        <pt x="226" y="377" on="0"/>
        <pt x="226" y="335" on="1"/>
        <pt x="226" y="334" on="1"/>
        <pt x="517" y="334" on="1"/>
        <pt x="508" y="290" on="1"/>
        <pt x="229" y="290" on="1"/>
        <pt x="237" y="223" on="0"/>
        <pt x="301" y="110" on="0"/>
        <pt x="414" y="41" on="0"/>
        <pt x="496" y="41" on="1"/>
        <pt x="544" y="41" on="0"/>
        <pt x="629" y="61" on="0"/>
        <pt x="682" y="81" on="0"/>
        <pt x="682" y="81" on="1"/>
        <pt x="671" y="26" on="1"/>
        <pt x="671" y="26" on="0"/>
        <pt x="625" y="8" on="0"/>
        <pt x="544" y="-10" on="0"/>
        <pt x="492" y="-10" on="1"/>
        <pt x="391" y="-10" on="0"/>
        <pt x="254" y="73" on="0"/>
        <pt x="179" y="210" on="0"/>
        <pt x="171" y="290" on="1"/>
      </contour>
    </TTGlyph>
    <TTGlyph name="F" xMin="32" yMin="0" xMax="624" yMax="740">
      <contour>
        <pt x="32" y="0" on="1"/>
        <pt x="189" y="740" on="1"/>
        <pt x="624" y="740" on="1"/>
        <pt x="613" y="689" on="1"/>
        <pt x="234" y="689" on="1"/>
        <pt x="172" y="394" on="1"/>
        <pt x="502" y="394" on="1"/>
        <pt x="492" y="343" on="1"/>
        <pt x="161" y="343" on="1"/>
        <pt x="88" y="0" on="1"/>
      </contour>
    </TTGlyph>
    <TTGlyph name="G" xMin="65" yMin="-10" xMax="714" yMax="750">
      <contour>
        <pt x="360" y="-10" on="1"/>
        <pt x="284" y="-10" on="0"/>
        <pt x="173" y="42" on="0"/>
        <pt x="101" y="133" on="0"/>
        <pt x="65" y="249" on="0"/>
        <pt x="65" y="313" on="1"/>
        <pt x="65" y="391" on="0"/>
        <pt x="115" y="545" on="0"/>
        <pt x="214" y="673" on="0"/>
        <pt x="360" y="750" on="0"/>
        <pt x="456" y="750" on="1"/>
        <pt x="523" y="750" on="0"/>
        <pt x="613" y="714" on="0"/>
        <pt x="670" y="658" on="0"/>
        <pt x="700" y="594" on="0"/>
        <pt x="712" y="538" on="0"/>
        <pt x="714" y="502" on="0"/>
        <pt x="714" y="502" on="1"/>
        <pt x="657" y="502" on="1"/>
        <pt x="657" y="502" on="0"/>
        <pt x="655" y="541" on="0"/>
        <pt x="638" y="600" on="0"/>
        <pt x="596" y="658" on="0"/>
        <pt x="517" y="698" on="0"/>
        <pt x="453" y="698" on="1"/>
        <pt x="372" y="698" on="0"/>
        <pt x="248" y="630" on="0"/>
        <pt x="165" y="519" on="0"/>
        <pt x="122" y="384" on="0"/>
        <pt x="122" y="316" on="1"/>
        <pt x="122" y="244" on="0"/>
        <pt x="173" y="119" on="0"/>
        <pt x="280" y="42" on="0"/>
        <pt x="363" y="42" on="1"/>
        <pt x="425" y="42" on="0"/>
        <pt x="523" y="89" on="0"/>
        <pt x="592" y="169" on="0"/>
        <pt x="634" y="270" on="0"/>
        <pt x="641" y="323" on="1"/>
        <pt x="412" y="323" on="1"/>
        <pt x="422" y="372" on="1"/>
        <pt x="704" y="372" on="1"/>
        <pt x="696" y="319" on="1"/>
        <pt x="687" y="255" on="0"/>
        <pt x="636" y="137" on="0"/>
        <pt x="553" y="44" on="0"/>
        <pt x="436" y="-10" on="0"/>
      </contour>
    </TTGlyph>
    <TTGlyph name="Gbreve" xMin="65" yMin="-10" xMax="714" yMax="958">
      <contour>
        <pt x="490" y="820" on="1"/>
        <pt x="447" y="820" on="0"/>
        <pt x="397" y="848" on="0"/>
        <pt x="373" y="889" on="0"/>
        <pt x="366" y="930" on="0"/>
        <pt x="367" y="958" on="0"/>
        <pt x="367" y="958" on="1"/>
        <pt x="412" y="958" on="1"/>
        <pt x="412" y="958" on="0"/>
        <pt x="410" y="929" on="0"/>
        <pt x="420" y="891" on="0"/>
        <pt x="454" y="862" on="0"/>
        <pt x="490" y="862" on="1"/>
        <pt x="526" y="862" on="0"/>
        <pt x="572" y="891" on="0"/>
        <pt x="598" y="929" on="0"/>
        <pt x="608" y="958" on="0"/>
        <pt x="608" y="958" on="1"/>
        <pt x="653" y="958" on="1"/>
        <pt x="653" y="958" on="0"/>
        <pt x="646" y="930" on="0"/>
        <pt x="626" y="889" on="0"/>
        <pt x="590" y="848" on="0"/>
        <pt x="532" y="820" on="0"/>
      </contour>
      <contour>
        <pt x="360" y="-10" on="1"/>
        <pt x="284" y="-10" on="0"/>
        <pt x="173" y="42" on="0"/>
        <pt x="101" y="133" on="0"/>
        <pt x="65" y="249" on="0"/>
        <pt x="65" y="313" on="1"/>
        <pt x="65" y="391" on="0"/>
        <pt x="115" y="545" on="0"/>
        <pt x="214" y="673" on="0"/>
        <pt x="360" y="750" on="0"/>
        <pt x="456" y="750" on="1"/>
        <pt x="523" y="750" on="0"/>
        <pt x="613" y="714" on="0"/>
        <pt x="670" y="658" on="0"/>
        <pt x="700" y="594" on="0"/>
        <pt x="712" y="538" on="0"/>
        <pt x="714" y="502" on="0"/>
        <pt x="714" y="502" on="1"/>
        <pt x="657" y="502" on="1"/>
        <pt x="657" y="502" on="0"/>
        <pt x="655" y="541" on="0"/>
        <pt x="638" y="600" on="0"/>
        <pt x="596" y="658" on="0"/>
        <pt x="517" y="698" on="0"/>
        <pt x="453" y="698" on="1"/>
        <pt x="372" y="698" on="0"/>
        <pt x="248" y="630" on="0"/>
        <pt x="165" y="519" on="0"/>
        <pt x="122" y="384" on="0"/>
        <pt x="122" y="316" on="1"/>
        <pt x="122" y="244" on="0"/>
        <pt x="173" y="119" on="0"/>
        <pt x="280" y="42" on="0"/>
        <pt x="363" y="42" on="1"/>
        <pt x="425" y="42" on="0"/>
        <pt x="523" y="89" on="0"/>
        <pt x="592" y="169" on="0"/>
        <pt x="634" y="270" on="0"/>
        <pt x="641" y="323" on="1"/>
        <pt x="412" y="323" on="1"/>
        <pt x="422" y="372" on="1"/>
        <pt x="704" y="372" on="1"/>
        <pt x="696" y="319" on="1"/>
        <pt x="687" y="255" on="0"/>
        <pt x="636" y="137" on="0"/>
        <pt x="553" y="44" on="0"/>
        <pt x="436" y="-10" on="0"/>
      </contour>
    </TTGlyph>
    <TTGlyph name="Gcaron" xMin="65" yMin="-10" xMax="714" yMax="974">
      <contour>
        <pt x="449" y="817" on="1"/>
        <pt x="368" y="974" on="1"/>
        <pt x="418" y="974" on="1"/>
        <pt x="479" y="854" on="1"/>
        <pt x="589" y="974" on="1"/>
        <pt x="648" y="974" on="1"/>
        <pt x="501" y="817" on="1"/>
      </contour>
      <contour>
        <pt x="360" y="-10" on="1"/>
        <pt x="284" y="-10" on="0"/>
        <pt x="173" y="42" on="0"/>
        <pt x="101" y="133" on="0"/>
        <pt x="65" y="249" on="0"/>
        <pt x="65" y="313" on="1"/>
        <pt x="65" y="391" on="0"/>
        <pt x="115" y="545" on="0"/>
        <pt x="214" y="673" on="0"/>
        <pt x="360" y="750" on="0"/>
        <pt x="456" y="750" on="1"/>
        <pt x="523" y="750" on="0"/>
        <pt x="613" y="714" on="0"/>
        <pt x="670" y="658" on="0"/>
        <pt x="700" y="594" on="0"/>
        <pt x="712" y="538" on="0"/>
        <pt x="714" y="502" on="0"/>
        <pt x="714" y="502" on="1"/>
        <pt x="657" y="502" on="1"/>
        <pt x="657" y="502" on="0"/>
        <pt x="655" y="541" on="0"/>
        <pt x="638" y="600" on="0"/>
        <pt x="596" y="658" on="0"/>
        <pt x="517" y="698" on="0"/>
        <pt x="453" y="698" on="1"/>
        <pt x="372" y="698" on="0"/>
        <pt x="248" y="630" on="0"/>
        <pt x="165" y="519" on="0"/>
        <pt x="122" y="384" on="0"/>
        <pt x="122" y="316" on="1"/>
        <pt x="122" y="244" on="0"/>
        <pt x="173" y="119" on="0"/>
        <pt x="280" y="42" on="0"/>
        <pt x="363" y="42" on="1"/>
        <pt x="425" y="42" on="0"/>
        <pt x="523" y="89" on="0"/>
        <pt x="592" y="169" on="0"/>
        <pt x="634" y="270" on="0"/>
        <pt x="641" y="323" on="1"/>
        <pt x="412" y="323" on="1"/>
        <pt x="422" y="372" on="1"/>
        <pt x="704" y="372" on="1"/>
        <pt x="696" y="319" on="1"/>
        <pt x="687" y="255" on="0"/>
        <pt x="636" y="137" on="0"/>
        <pt x="553" y="44" on="0"/>
        <pt x="436" y="-10" on="0"/>
      </contour>
    </TTGlyph>
    <TTGlyph name="Gdotaccent" xMin="65" yMin="-10" xMax="714" yMax="927">
      <contour>
        <pt x="494" y="839" on="1"/>
        <pt x="475" y="839" on="0"/>
        <pt x="450" y="865" on="0"/>
        <pt x="450" y="883" on="1"/>
        <pt x="450" y="901" on="0"/>
        <pt x="475" y="927" on="0"/>
        <pt x="494" y="927" on="1"/>
        <pt x="513" y="927" on="0"/>
        <pt x="539" y="901" on="0"/>
        <pt x="539" y="883" on="1"/>
        <pt x="539" y="865" on="0"/>
        <pt x="513" y="839" on="0"/>
      </contour>
      <contour>
        <pt x="360" y="-10" on="1"/>
        <pt x="284" y="-10" on="0"/>
        <pt x="173" y="42" on="0"/>
        <pt x="101" y="133" on="0"/>
        <pt x="65" y="249" on="0"/>
        <pt x="65" y="313" on="1"/>
        <pt x="65" y="391" on="0"/>
        <pt x="115" y="545" on="0"/>
        <pt x="214" y="673" on="0"/>
        <pt x="360" y="750" on="0"/>
        <pt x="456" y="750" on="1"/>
        <pt x="523" y="750" on="0"/>
        <pt x="613" y="714" on="0"/>
        <pt x="670" y="658" on="0"/>
        <pt x="700" y="594" on="0"/>
        <pt x="712" y="538" on="0"/>
        <pt x="714" y="502" on="0"/>
        <pt x="714" y="502" on="1"/>
        <pt x="657" y="502" on="1"/>
        <pt x="657" y="502" on="0"/>
        <pt x="655" y="541" on="0"/>
        <pt x="638" y="600" on="0"/>
        <pt x="596" y="658" on="0"/>
        <pt x="517" y="698" on="0"/>
        <pt x="453" y="698" on="1"/>
        <pt x="372" y="698" on="0"/>
        <pt x="248" y="630" on="0"/>
        <pt x="165" y="519" on="0"/>
        <pt x="122" y="384" on="0"/>
        <pt x="122" y="316" on="1"/>
        <pt x="122" y="244" on="0"/>
        <pt x="173" y="119" on="0"/>
        <pt x="280" y="42" on="0"/>
        <pt x="363" y="42" on="1"/>
        <pt x="425" y="42" on="0"/>
        <pt x="523" y="89" on="0"/>
        <pt x="592" y="169" on="0"/>
        <pt x="634" y="270" on="0"/>
        <pt x="641" y="323" on="1"/>
        <pt x="412" y="323" on="1"/>
        <pt x="422" y="372" on="1"/>
        <pt x="704" y="372" on="1"/>
        <pt x="696" y="319" on="1"/>
        <pt x="687" y="255" on="0"/>
        <pt x="636" y="137" on="0"/>
        <pt x="553" y="44" on="0"/>
        <pt x="436" y="-10" on="0"/>
      </contour>
    </TTGlyph>
    <TTGlyph name="H" xMin="32" yMin="0" xMax="686" yMax="740">
      <contour>
        <pt x="32" y="0" on="1"/>
        <pt x="189" y="740" on="1"/>
        <pt x="245" y="740" on="1"/>
        <pt x="175" y="410" on="1"/>
        <pt x="560" y="410" on="1"/>
        <pt x="630" y="740" on="1"/>
        <pt x="686" y="740" on="1"/>
        <pt x="529" y="0" on="1"/>
        <pt x="473" y="0" on="1"/>
        <pt x="550" y="360" on="1"/>
        <pt x="165" y="360" on="1"/>
        <pt x="88" y="0" on="1"/>
      </contour>
    </TTGlyph>
    <TTGlyph name="Hbar" xMin="79" yMin="0" xMax="812" yMax="740">
      <contour>
        <pt x="79" y="0" on="1"/>
        <pt x="208" y="608" on="1"/>
        <pt x="112" y="608" on="1"/>
        <pt x="122" y="658" on="1"/>
        <pt x="218" y="658" on="1"/>
        <pt x="236" y="740" on="1"/>
        <pt x="292" y="740" on="1"/>
        <pt x="274" y="658" on="1"/>
        <pt x="659" y="658" on="1"/>
        <pt x="677" y="740" on="1"/>
        <pt x="733" y="740" on="1"/>
        <pt x="715" y="658" on="1"/>
        <pt x="812" y="658" on="1"/>
        <pt x="801" y="608" on="1"/>
        <pt x="705" y="608" on="1"/>
        <pt x="576" y="0" on="1"/>
        <pt x="520" y="0" on="1"/>
        <pt x="596" y="360" on="1"/>
        <pt x="211" y="360" on="1"/>
        <pt x="135" y="0" on="1"/>
      </contour>
      <contour>
        <pt x="222" y="410" on="1"/>
        <pt x="607" y="410" on="1"/>
        <pt x="649" y="608" on="1"/>
        <pt x="264" y="608" on="1"/>
      </contour>
    </TTGlyph>
    <TTGlyph name="I" xMin="32" yMin="0" xMax="245" yMax="740">
      <contour>
        <pt x="32" y="0" on="1"/>
        <pt x="189" y="740" on="1"/>
        <pt x="245" y="740" on="1"/>
        <pt x="88" y="0" on="1"/>
      </contour>
    </TTGlyph>
    <TTGlyph name="Iacute" xMin="32" yMin="0" xMax="346" yMax="974">
      <contour>
        <pt x="256" y="812" on="1"/>
        <pt x="210" y="812" on="1"/>
        <pt x="290" y="974" on="1"/>
        <pt x="346" y="974" on="1"/>
      </contour>
      <contour>
        <pt x="32" y="0" on="1"/>
        <pt x="189" y="740" on="1"/>
        <pt x="245" y="740" on="1"/>
        <pt x="88" y="0" on="1"/>
      </contour>
    </TTGlyph>
    <TTGlyph name="Icircumflex" xMin="32" yMin="0" xMax="372" yMax="961">
      <contour>
        <pt x="92" y="804" on="1"/>
        <pt x="239" y="961" on="1"/>
        <pt x="291" y="961" on="1"/>
        <pt x="372" y="804" on="1"/>
        <pt x="322" y="804" on="1"/>
        <pt x="261" y="924" on="1"/>
        <pt x="151" y="804" on="1"/>
      </contour>
      <contour>
        <pt x="32" y="0" on="1"/>
        <pt x="189" y="740" on="1"/>
        <pt x="245" y="740" on="1"/>
        <pt x="88" y="0" on="1"/>
      </contour>
    </TTGlyph>
    <TTGlyph name="Idieresis" xMin="32" yMin="0" xMax="366" yMax="909">
      <contour>
        <pt x="322" y="820" on="1"/>
        <pt x="303" y="820" on="0"/>
        <pt x="278" y="847" on="0"/>
        <pt x="278" y="865" on="1"/>
        <pt x="278" y="883" on="0"/>
        <pt x="303" y="909" on="0"/>
        <pt x="322" y="909" on="1"/>
        <pt x="340" y="909" on="0"/>
        <pt x="366" y="883" on="0"/>
        <pt x="366" y="865" on="1"/>
        <pt x="366" y="846" on="0"/>
        <pt x="340" y="820" on="0"/>
      </contour>
      <contour>
        <pt x="166" y="820" on="1"/>
        <pt x="147" y="820" on="0"/>
        <pt x="122" y="847" on="0"/>
        <pt x="122" y="865" on="1"/>
        <pt x="122" y="883" on="0"/>
        <pt x="147" y="909" on="0"/>
        <pt x="166" y="909" on="1"/>
        <pt x="184" y="909" on="0"/>
        <pt x="210" y="883" on="0"/>
        <pt x="210" y="865" on="1"/>
        <pt x="210" y="846" on="0"/>
        <pt x="184" y="820" on="0"/>
      </contour>
      <contour>
        <pt x="32" y="0" on="1"/>
        <pt x="189" y="740" on="1"/>
        <pt x="245" y="740" on="1"/>
        <pt x="88" y="0" on="1"/>
      </contour>
    </TTGlyph>
    <TTGlyph name="Idotaccent" xMin="32" yMin="0" xMax="290" yMax="914">
      <contour>
        <pt x="245" y="825" on="1"/>
        <pt x="226" y="825" on="0"/>
        <pt x="201" y="852" on="0"/>
        <pt x="201" y="870" on="1"/>
        <pt x="201" y="888" on="0"/>
        <pt x="226" y="914" on="0"/>
        <pt x="245" y="914" on="1"/>
        <pt x="264" y="914" on="0"/>
        <pt x="290" y="888" on="0"/>
        <pt x="290" y="870" on="1"/>
        <pt x="290" y="851" on="0"/>
        <pt x="264" y="825" on="0"/>
      </contour>
      <contour>
        <pt x="32" y="0" on="1"/>
        <pt x="189" y="740" on="1"/>
        <pt x="245" y="740" on="1"/>
        <pt x="88" y="0" on="1"/>
      </contour>
    </TTGlyph>
    <TTGlyph name="Igrave" xMin="32" yMin="0" xMax="249" yMax="974">
      <contour>
        <pt x="204" y="812" on="1"/>
        <pt x="136" y="974" on="1"/>
        <pt x="191" y="974" on="1"/>
        <pt x="249" y="812" on="1"/>
      </contour>
      <contour>
        <pt x="32" y="0" on="1"/>
        <pt x="189" y="740" on="1"/>
        <pt x="245" y="740" on="1"/>
        <pt x="88" y="0" on="1"/>
      </contour>
    </TTGlyph>
    <TTGlyph name="Imacron" xMin="32" yMin="0" xMax="391" yMax="876">
      <contour>
        <pt x="93" y="832" on="1"/>
        <pt x="103" y="876" on="1"/>
        <pt x="391" y="876" on="1"/>
        <pt x="381" y="832" on="1"/>
      </contour>
      <contour>
        <pt x="32" y="0" on="1"/>
        <pt x="189" y="740" on="1"/>
        <pt x="245" y="740" on="1"/>
        <pt x="88" y="0" on="1"/>
      </contour>
    </TTGlyph>
    <TTGlyph name="Iogonek" xMin="-31" yMin="-155" xMax="245" yMax="740">
      <contour>
        <pt x="56" y="-155" on="1"/>
        <pt x="15" y="-155" on="0"/>
        <pt x="-31" y="-118" on="0"/>
        <pt x="-31" y="-86" on="1"/>
        <pt x="-31" y="-53" on="0"/>
        <pt x="12" y="-11" on="0"/>
        <pt x="32" y="0" on="1"/>
        <pt x="189" y="740" on="1"/>
        <pt x="245" y="740" on="1"/>
        <pt x="88" y="0" on="1"/>
        <pt x="88" y="0" on="0"/>
        <pt x="66" y="-10" on="0"/>
        <pt x="37" y="-29" on="0"/>
        <pt x="15" y="-58" on="0"/>
        <pt x="15" y="-77" on="1"/>
        <pt x="15" y="-116" on="0"/>
        <pt x="67" y="-116" on="1"/>
        <pt x="82" y="-116" on="0"/>
        <pt x="107" y="-111" on="0"/>
        <pt x="107" y="-111" on="1"/>
        <pt x="99" y="-149" on="1"/>
        <pt x="99" y="-149" on="0"/>
        <pt x="75" y="-155" on="0"/>
      </contour>
    </TTGlyph>
    <TTGlyph name="Itilde" xMin="32" yMin="0" xMax="393" yMax="935">
      <contour>
        <pt x="303" y="816" on="1"/>
        <pt x="279" y="816" on="0"/>
        <pt x="249" y="839" on="0"/>
        <pt x="228" y="870" on="0"/>
        <pt x="206" y="894" on="0"/>
        <pt x="191" y="894" on="1"/>
        <pt x="172" y="894" on="0"/>
        <pt x="148" y="854" on="0"/>
        <pt x="143" y="821" on="1"/>
        <pt x="102" y="821" on="1"/>
        <pt x="111" y="871" on="0"/>
        <pt x="154" y="935" on="0"/>
        <pt x="193" y="935" on="1"/>
        <pt x="218" y="935" on="0"/>
        <pt x="248" y="912" on="0"/>
        <pt x="270" y="881" on="0"/>
        <pt x="290" y="858" on="0"/>
        <pt x="305" y="858" on="1"/>
        <pt x="339" y="858" on="0"/>
        <pt x="351" y="930" on="1"/>
        <pt x="393" y="930" on="1"/>
        <pt x="383" y="882" on="0"/>
        <pt x="341" y="816" on="0"/>
      </contour>
      <contour>
        <pt x="32" y="0" on="1"/>
        <pt x="189" y="740" on="1"/>
        <pt x="245" y="740" on="1"/>
        <pt x="88" y="0" on="1"/>
      </contour>
    </TTGlyph>
    <TTGlyph name="J" xMin="-3" yMin="-10" xMax="464" yMax="740">
      <contour>
        <pt x="80" y="-10" on="1"/>
        <pt x="47" y="-10" on="0"/>
        <pt x="-3" y="-2" on="0"/>
        <pt x="-3" y="-2" on="1"/>
        <pt x="7" y="49" on="1"/>
        <pt x="7" y="49" on="0"/>
        <pt x="58" y="42" on="0"/>
        <pt x="86" y="42" on="1"/>
        <pt x="171" y="42" on="0"/>
        <pt x="281" y="140" on="0"/>
        <pt x="298" y="221" on="1"/>
        <pt x="408" y="740" on="1"/>
        <pt x="464" y="740" on="1"/>
        <pt x="354" y="221" on="1"/>
        <pt x="331" y="111" on="0"/>
        <pt x="190" y="-10" on="0"/>
      </contour>
    </TTGlyph>
    <TTGlyph name="K" xMin="32" yMin="0" xMax="664" yMax="740">
      <contour>
        <pt x="32" y="0" on="1"/>
        <pt x="189" y="740" on="1"/>
        <pt x="245" y="740" on="1"/>
        <pt x="174" y="403" on="1"/>
        <pt x="584" y="739" on="1"/>
        <pt x="664" y="739" on="1"/>
        <pt x="218" y="377" on="1"/>
        <pt x="530" y="0" on="1"/>
        <pt x="461" y="0" on="1"/>
        <pt x="164" y="359" on="1"/>
        <pt x="88" y="0" on="1"/>
      </contour>
    </TTGlyph>
    <TTGlyph name="L" xMin="32" yMin="0" xMax="486" yMax="740">
      <contour>
        <pt x="32" y="0" on="1"/>
        <pt x="189" y="740" on="1"/>
        <pt x="245" y="740" on="1"/>
        <pt x="99" y="51" on="1"/>
        <pt x="486" y="51" on="1"/>
        <pt x="475" y="0" on="1"/>
      </contour>
    </TTGlyph>
    <TTGlyph name="Lacute" xMin="32" yMin="0" xMax="486" yMax="987">
      <contour>
        <pt x="259" y="825" on="1"/>
        <pt x="213" y="826" on="1"/>
        <pt x="293" y="987" on="1"/>
        <pt x="349" y="987" on="1"/>
      </contour>
      <contour>
        <pt x="32" y="0" on="1"/>
        <pt x="189" y="740" on="1"/>
        <pt x="245" y="740" on="1"/>
        <pt x="99" y="51" on="1"/>
        <pt x="486" y="51" on="1"/>
        <pt x="475" y="0" on="1"/>
      </contour>
    </TTGlyph>
    <TTGlyph name="Lcaron" xMin="32" yMin="0" xMax="486" yMax="974">
      <contour>
        <pt x="203" y="817" on="1"/>
        <pt x="122" y="974" on="1"/>
        <pt x="173" y="974" on="1"/>
        <pt x="233" y="854" on="1"/>
        <pt x="343" y="974" on="1"/>
        <pt x="402" y="974" on="1"/>
        <pt x="255" y="817" on="1"/>
      </contour>
      <contour>
        <pt x="32" y="0" on="1"/>
        <pt x="189" y="740" on="1"/>
        <pt x="245" y="740" on="1"/>
        <pt x="99" y="51" on="1"/>
        <pt x="486" y="51" on="1"/>
        <pt x="475" y="0" on="1"/>
      </contour>
    </TTGlyph>
    <TTGlyph name="Lslash" xMin="27" yMin="0" xMax="526" yMax="740">
      <contour>
        <pt x="73" y="0" on="1"/>
        <pt x="145" y="338" on="1"/>
        <pt x="27" y="294" on="1"/>
        <pt x="37" y="347" on="1"/>
        <pt x="156" y="392" on="1"/>
        <pt x="230" y="740" on="1"/>
        <pt x="286" y="740" on="1"/>
        <pt x="217" y="414" on="1"/>
        <pt x="372" y="472" on="1"/>
        <pt x="362" y="419" on="1"/>
        <pt x="206" y="361" on="1"/>
        <pt x="140" y="51" on="1"/>
        <pt x="526" y="51" on="1"/>
        <pt x="516" y="0" on="1"/>
      </contour>
    </TTGlyph>
    <TTGlyph name="M" xMin="32" yMin="0" xMax="867" yMax="740">
      <contour>
        <pt x="32" y="0" on="1"/>
        <pt x="189" y="740" on="1"/>
        <pt x="264" y="740" on="1"/>
        <pt x="423" y="256" on="1"/>
        <pt x="789" y="740" on="1"/>
        <pt x="867" y="740" on="1"/>
        <pt x="710" y="0" on="1"/>
        <pt x="654" y="0" on="1"/>
        <pt x="794" y="658" on="1"/>
        <pt x="440" y="191" on="1"/>
        <pt x="388" y="191" on="1"/>
        <pt x="230" y="665" on="1"/>
        <pt x="88" y="0" on="1"/>
      </contour>
    </TTGlyph>
    <TTGlyph name="N" xMin="32" yMin="0" xMax="738" yMax="740">
      <contour>
        <pt x="32" y="0" on="1"/>
        <pt x="189" y="740" on="1"/>
        <pt x="243" y="740" on="1"/>
        <pt x="545" y="95" on="1"/>
        <pt x="682" y="740" on="1"/>
        <pt x="738" y="740" on="1"/>
        <pt x="581" y="0" on="1"/>
        <pt x="528" y="0" on="1"/>
        <pt x="225" y="645" on="1"/>
        <pt x="88" y="0" on="1"/>
      </contour>
    </TTGlyph>
    <TTGlyph name="Nacute" xMin="32" yMin="0" xMax="738" yMax="987">
      <contour>
        <pt x="512" y="825" on="1"/>
        <pt x="466" y="826" on="1"/>
        <pt x="545" y="987" on="1"/>
        <pt x="602" y="987" on="1"/>
      </contour>
      <contour>
        <pt x="32" y="0" on="1"/>
        <pt x="189" y="740" on="1"/>
        <pt x="243" y="740" on="1"/>
        <pt x="545" y="95" on="1"/>
        <pt x="682" y="740" on="1"/>
        <pt x="738" y="740" on="1"/>
        <pt x="581" y="0" on="1"/>
        <pt x="528" y="0" on="1"/>
        <pt x="225" y="645" on="1"/>
        <pt x="88" y="0" on="1"/>
      </contour>
    </TTGlyph>
    <TTGlyph name="Ncaron" xMin="32" yMin="0" xMax="738" yMax="974">
      <contour>
        <pt x="456" y="817" on="1"/>
        <pt x="374" y="974" on="1"/>
        <pt x="425" y="974" on="1"/>
        <pt x="485" y="854" on="1"/>
        <pt x="595" y="974" on="1"/>
        <pt x="655" y="974" on="1"/>
        <pt x="507" y="817" on="1"/>
      </contour>
      <contour>
        <pt x="32" y="0" on="1"/>
        <pt x="189" y="740" on="1"/>
        <pt x="243" y="740" on="1"/>
        <pt x="545" y="95" on="1"/>
        <pt x="682" y="740" on="1"/>
        <pt x="738" y="740" on="1"/>
        <pt x="581" y="0" on="1"/>
        <pt x="528" y="0" on="1"/>
        <pt x="225" y="645" on="1"/>
        <pt x="88" y="0" on="1"/>
      </contour>
    </TTGlyph>
    <TTGlyph name="Ntilde" xMin="32" yMin="0" xMax="738" yMax="948">
      <contour>
        <pt x="559" y="829" on="1"/>
        <pt x="535" y="829" on="0"/>
        <pt x="505" y="853" on="0"/>
        <pt x="483" y="884" on="0"/>
        <pt x="462" y="907" on="0"/>
        <pt x="446" y="907" on="1"/>
        <pt x="428" y="907" on="0"/>
        <pt x="404" y="867" on="0"/>
        <pt x="399" y="835" on="1"/>
        <pt x="357" y="835" on="1"/>
        <pt x="367" y="885" on="0"/>
        <pt x="410" y="948" on="0"/>
        <pt x="449" y="948" on="1"/>
        <pt x="473" y="948" on="0"/>
        <pt x="504" y="925" on="0"/>
        <pt x="525" y="895" on="0"/>
        <pt x="546" y="871" on="0"/>
        <pt x="561" y="871" on="1"/>
        <pt x="595" y="871" on="0"/>
        <pt x="607" y="943" on="1"/>
        <pt x="648" y="943" on="1"/>
        <pt x="639" y="895" on="0"/>
        <pt x="597" y="829" on="0"/>
      </contour>
      <contour>
        <pt x="32" y="0" on="1"/>
        <pt x="189" y="740" on="1"/>
        <pt x="243" y="740" on="1"/>
        <pt x="545" y="95" on="1"/>
        <pt x="682" y="740" on="1"/>
        <pt x="738" y="740" on="1"/>
        <pt x="581" y="0" on="1"/>
        <pt x="528" y="0" on="1"/>
        <pt x="225" y="645" on="1"/>
        <pt x="88" y="0" on="1"/>
      </contour>
    </TTGlyph>
    <TTGlyph name="O" xMin="65" yMin="-10" xMax="746" yMax="750">
      <contour>
        <pt x="357" y="-10" on="1"/>
        <pt x="282" y="-10" on="0"/>
        <pt x="171" y="42" on="0"/>
        <pt x="100" y="131" on="0"/>
        <pt x="65" y="246" on="0"/>
        <pt x="65" y="309" on="1"/>
        <pt x="65" y="387" on="0"/>
        <pt x="117" y="543" on="0"/>
        <pt x="217" y="672" on="0"/>
        <pt x="362" y="750" on="0"/>
        <pt x="455" y="750" on="1"/>
        <pt x="530" y="750" on="0"/>
        <pt x="640" y="698" on="0"/>
        <pt x="711" y="608" on="0"/>
        <pt x="746" y="494" on="0"/>
        <pt x="746" y="431" on="1"/>
        <pt x="746" y="353" on="0"/>
        <pt x="694" y="197" on="0"/>
        <pt x="595" y="68" on="0"/>
        <pt x="450" y="-10" on="0"/>
      </contour>
      <contour>
        <pt x="358" y="42" on="1"/>
        <pt x="437" y="42" on="0"/>
        <pt x="560" y="111" on="0"/>
        <pt x="645" y="225" on="0"/>
        <pt x="689" y="363" on="0"/>
        <pt x="689" y="431" on="1"/>
        <pt x="689" y="501" on="0"/>
        <pt x="639" y="623" on="0"/>
        <pt x="535" y="698" on="0"/>
        <pt x="454" y="698" on="1"/>
        <pt x="375" y="698" on="0"/>
        <pt x="252" y="628" on="0"/>
        <pt x="166" y="514" on="0"/>
        <pt x="122" y="377" on="0"/>
        <pt x="122" y="309" on="1"/>
        <pt x="122" y="239" on="0"/>
        <pt x="173" y="117" on="0"/>
        <pt x="277" y="42" on="0"/>
      </contour>
    </TTGlyph>
    <TTGlyph name="OE" xMin="63" yMin="0" xMax="974" yMax="740">
      <contour>
        <pt x="974" y="740" on="1"/>
        <pt x="963" y="689" on="1"/>
        <pt x="590" y="689" on="1"/>
        <pt x="529" y="404" on="1"/>
        <pt x="854" y="404" on="1"/>
        <pt x="844" y="353" on="1"/>
        <pt x="518" y="353" on="1"/>
        <pt x="455" y="51" on="1"/>
        <pt x="833" y="51" on="1"/>
        <pt x="822" y="0" on="1"/>
        <pt x="370" y="0" on="1"/>
        <pt x="291" y="0" on="0"/>
        <pt x="175" y="50" on="0"/>
        <pt x="100" y="137" on="0"/>
        <pt x="63" y="247" on="0"/>
        <pt x="63" y="308" on="1"/>
        <pt x="63" y="384" on="0"/>
        <pt x="119" y="537" on="0"/>
        <pt x="228" y="663" on="0"/>
        <pt x="386" y="740" on="0"/>
        <pt x="488" y="740" on="1"/>
      </contour>
      <contour>
        <pt x="120" y="311" on="1"/>
        <pt x="120" y="242" on="0"/>
        <pt x="174" y="124" on="0"/>
        <pt x="287" y="51" on="0"/>
        <pt x="375" y="51" on="1"/>
        <pt x="399" y="51" on="1"/>
        <pt x="534" y="689" on="1"/>
        <pt x="487" y="689" on="1"/>
        <pt x="399" y="689" on="0"/>
        <pt x="262" y="621" on="0"/>
        <pt x="168" y="510" on="0"/>
        <pt x="120" y="377" on="0"/>
      </contour>
    </TTGlyph>
    <TTGlyph name="Oacute" xMin="65" yMin="-10" xMax="746" yMax="987">
      <contour>
        <pt x="511" y="825" on="1"/>
        <pt x="465" y="826" on="1"/>
        <pt x="544" y="987" on="1"/>
        <pt x="601" y="987" on="1"/>
      </contour>
      <contour>
        <pt x="357" y="-10" on="1"/>
        <pt x="282" y="-10" on="0"/>
        <pt x="171" y="42" on="0"/>
        <pt x="100" y="131" on="0"/>
        <pt x="65" y="246" on="0"/>
        <pt x="65" y="309" on="1"/>
        <pt x="65" y="387" on="0"/>
        <pt x="117" y="543" on="0"/>
        <pt x="217" y="672" on="0"/>
        <pt x="362" y="750" on="0"/>
        <pt x="455" y="750" on="1"/>
        <pt x="530" y="750" on="0"/>
        <pt x="640" y="698" on="0"/>
        <pt x="711" y="608" on="0"/>
        <pt x="746" y="494" on="0"/>
        <pt x="746" y="431" on="1"/>
        <pt x="746" y="353" on="0"/>
        <pt x="694" y="197" on="0"/>
        <pt x="595" y="68" on="0"/>
        <pt x="450" y="-10" on="0"/>
      </contour>
      <contour>
        <pt x="358" y="42" on="1"/>
        <pt x="437" y="42" on="0"/>
        <pt x="560" y="111" on="0"/>
        <pt x="645" y="225" on="0"/>
        <pt x="689" y="363" on="0"/>
        <pt x="689" y="431" on="1"/>
        <pt x="689" y="501" on="0"/>
        <pt x="639" y="623" on="0"/>
        <pt x="535" y="698" on="0"/>
        <pt x="454" y="698" on="1"/>
        <pt x="375" y="698" on="0"/>
        <pt x="252" y="628" on="0"/>
        <pt x="166" y="514" on="0"/>
        <pt x="122" y="377" on="0"/>
        <pt x="122" y="309" on="1"/>
        <pt x="122" y="239" on="0"/>
        <pt x="173" y="117" on="0"/>
        <pt x="277" y="42" on="0"/>
      </contour>
    </TTGlyph>
    <TTGlyph name="Ocircumflex" xMin="65" yMin="-10" xMax="746" yMax="958">
      <contour>
        <pt x="343" y="817" on="1"/>
        <pt x="487" y="958" on="1"/>
        <pt x="539" y="958" on="1"/>
        <pt x="624" y="817" on="1"/>
        <pt x="573" y="817" on="1"/>
        <pt x="510" y="924" on="1"/>
        <pt x="403" y="817" on="1"/>
      </contour>
      <contour>
        <pt x="357" y="-10" on="1"/>
        <pt x="282" y="-10" on="0"/>
        <pt x="171" y="42" on="0"/>
        <pt x="100" y="131" on="0"/>
        <pt x="65" y="246" on="0"/>
        <pt x="65" y="309" on="1"/>
        <pt x="65" y="387" on="0"/>
        <pt x="117" y="543" on="0"/>
        <pt x="217" y="672" on="0"/>
        <pt x="362" y="750" on="0"/>
        <pt x="455" y="750" on="1"/>
        <pt x="530" y="750" on="0"/>
        <pt x="640" y="698" on="0"/>
        <pt x="711" y="608" on="0"/>
        <pt x="746" y="494" on="0"/>
        <pt x="746" y="431" on="1"/>
        <pt x="746" y="353" on="0"/>
        <pt x="694" y="197" on="0"/>
        <pt x="595" y="68" on="0"/>
        <pt x="450" y="-10" on="0"/>
      </contour>
      <contour>
        <pt x="358" y="42" on="1"/>
        <pt x="437" y="42" on="0"/>
        <pt x="560" y="111" on="0"/>
        <pt x="645" y="225" on="0"/>
        <pt x="689" y="363" on="0"/>
        <pt x="689" y="431" on="1"/>
        <pt x="689" y="501" on="0"/>
        <pt x="639" y="623" on="0"/>
        <pt x="535" y="698" on="0"/>
        <pt x="454" y="698" on="1"/>
        <pt x="375" y="698" on="0"/>
        <pt x="252" y="628" on="0"/>
        <pt x="166" y="514" on="0"/>
        <pt x="122" y="377" on="0"/>
        <pt x="122" y="309" on="1"/>
        <pt x="122" y="239" on="0"/>
        <pt x="173" y="117" on="0"/>
        <pt x="277" y="42" on="0"/>
      </contour>
    </TTGlyph>
    <TTGlyph name="Odieresis" xMin="65" yMin="-10" xMax="746" yMax="922">
      <contour>
        <pt x="576" y="834" on="1"/>
        <pt x="557" y="834" on="0"/>
        <pt x="532" y="860" on="0"/>
        <pt x="532" y="878" on="1"/>
        <pt x="532" y="896" on="0"/>
        <pt x="557" y="922" on="0"/>
        <pt x="576" y="922" on="1"/>
        <pt x="595" y="922" on="0"/>
        <pt x="621" y="896" on="0"/>
        <pt x="621" y="878" on="1"/>
        <pt x="621" y="860" on="0"/>
        <pt x="595" y="834" on="0"/>
      </contour>
      <contour>
        <pt x="420" y="834" on="1"/>
        <pt x="401" y="834" on="0"/>
        <pt x="376" y="860" on="0"/>
        <pt x="376" y="878" on="1"/>
        <pt x="376" y="896" on="0"/>
        <pt x="401" y="922" on="0"/>
        <pt x="420" y="922" on="1"/>
        <pt x="439" y="922" on="0"/>
        <pt x="465" y="896" on="0"/>
        <pt x="465" y="878" on="1"/>
        <pt x="465" y="860" on="0"/>
        <pt x="439" y="834" on="0"/>
      </contour>
      <contour>
        <pt x="357" y="-10" on="1"/>
        <pt x="282" y="-10" on="0"/>
        <pt x="171" y="42" on="0"/>
        <pt x="100" y="131" on="0"/>
        <pt x="65" y="246" on="0"/>
        <pt x="65" y="309" on="1"/>
        <pt x="65" y="387" on="0"/>
        <pt x="117" y="543" on="0"/>
        <pt x="217" y="672" on="0"/>
        <pt x="362" y="750" on="0"/>
        <pt x="455" y="750" on="1"/>
        <pt x="530" y="750" on="0"/>
        <pt x="640" y="698" on="0"/>
        <pt x="711" y="608" on="0"/>
        <pt x="746" y="494" on="0"/>
        <pt x="746" y="431" on="1"/>
        <pt x="746" y="353" on="0"/>
        <pt x="694" y="197" on="0"/>
        <pt x="595" y="68" on="0"/>
        <pt x="450" y="-10" on="0"/>
      </contour>
      <contour>
        <pt x="358" y="42" on="1"/>
        <pt x="437" y="42" on="0"/>
        <pt x="560" y="111" on="0"/>
        <pt x="645" y="225" on="0"/>
        <pt x="689" y="363" on="0"/>
        <pt x="689" y="431" on="1"/>
        <pt x="689" y="501" on="0"/>
        <pt x="639" y="623" on="0"/>
        <pt x="535" y="698" on="0"/>
        <pt x="454" y="698" on="1"/>
        <pt x="375" y="698" on="0"/>
        <pt x="252" y="628" on="0"/>
        <pt x="166" y="514" on="0"/>
        <pt x="122" y="377" on="0"/>
        <pt x="122" y="309" on="1"/>
        <pt x="122" y="239" on="0"/>
        <pt x="173" y="117" on="0"/>
        <pt x="277" y="42" on="0"/>
      </contour>
    </TTGlyph>
    <TTGlyph name="Ograve" xMin="65" yMin="-10" xMax="746" yMax="987">
      <contour>
        <pt x="459" y="825" on="1"/>
        <pt x="391" y="987" on="1"/>
        <pt x="446" y="987" on="1"/>
        <pt x="503" y="826" on="1"/>
      </contour>
      <contour>
        <pt x="357" y="-10" on="1"/>
        <pt x="282" y="-10" on="0"/>
        <pt x="171" y="42" on="0"/>
        <pt x="100" y="131" on="0"/>
        <pt x="65" y="246" on="0"/>
        <pt x="65" y="309" on="1"/>
        <pt x="65" y="387" on="0"/>
        <pt x="117" y="543" on="0"/>
        <pt x="217" y="672" on="0"/>
        <pt x="362" y="750" on="0"/>
        <pt x="455" y="750" on="1"/>
        <pt x="530" y="750" on="0"/>
        <pt x="640" y="698" on="0"/>
        <pt x="711" y="608" on="0"/>
        <pt x="746" y="494" on="0"/>
        <pt x="746" y="431" on="1"/>
        <pt x="746" y="353" on="0"/>
        <pt x="694" y="197" on="0"/>
        <pt x="595" y="68" on="0"/>
        <pt x="450" y="-10" on="0"/>
      </contour>
      <contour>
        <pt x="358" y="42" on="1"/>
        <pt x="437" y="42" on="0"/>
        <pt x="560" y="111" on="0"/>
        <pt x="645" y="225" on="0"/>
        <pt x="689" y="363" on="0"/>
        <pt x="689" y="431" on="1"/>
        <pt x="689" y="501" on="0"/>
        <pt x="639" y="623" on="0"/>
        <pt x="535" y="698" on="0"/>
        <pt x="454" y="698" on="1"/>
        <pt x="375" y="698" on="0"/>
        <pt x="252" y="628" on="0"/>
        <pt x="166" y="514" on="0"/>
        <pt x="122" y="377" on="0"/>
        <pt x="122" y="309" on="1"/>
        <pt x="122" y="239" on="0"/>
        <pt x="173" y="117" on="0"/>
        <pt x="277" y="42" on="0"/>
      </contour>
    </TTGlyph>
    <TTGlyph name="Ohorn" xMin="65" yMin="-10" xMax="746" yMax="844">
      <contour>
        <pt x="357" y="-10" on="1"/>
        <pt x="282" y="-10" on="0"/>
        <pt x="171" y="42" on="0"/>
        <pt x="100" y="131" on="0"/>
        <pt x="65" y="246" on="0"/>
        <pt x="65" y="309" on="1"/>
        <pt x="65" y="387" on="0"/>
        <pt x="117" y="543" on="0"/>
        <pt x="217" y="672" on="0"/>
        <pt x="362" y="750" on="0"/>
        <pt x="455" y="750" on="1"/>
        <pt x="455" y="750" on="1"/>
        <pt x="455" y="750" on="1"/>
        <pt x="612" y="750" on="1"/>
        <pt x="642" y="750" on="0"/>
        <pt x="672" y="775" on="0"/>
        <pt x="678" y="803" on="1"/>
        <pt x="686" y="844" on="1"/>
        <pt x="738" y="844" on="1"/>
        <pt x="728" y="797" on="1"/>
        <pt x="711" y="710" on="0"/>
        <pt x="622" y="710" on="1"/>
        <pt x="611" y="710" on="1"/>
        <pt x="680" y="668" on="0"/>
        <pt x="746" y="517" on="0"/>
        <pt x="746" y="431" on="1"/>
        <pt x="746" y="353" on="0"/>
        <pt x="694" y="197" on="0"/>
        <pt x="595" y="68" on="0"/>
        <pt x="450" y="-10" on="0"/>
      </contour>
      <contour>
        <pt x="358" y="42" on="1"/>
        <pt x="437" y="42" on="0"/>
        <pt x="560" y="111" on="0"/>
        <pt x="645" y="225" on="0"/>
        <pt x="689" y="363" on="0"/>
        <pt x="689" y="431" on="1"/>
        <pt x="689" y="501" on="0"/>
        <pt x="639" y="623" on="0"/>
        <pt x="535" y="698" on="0"/>
        <pt x="454" y="698" on="1"/>
        <pt x="375" y="698" on="0"/>
        <pt x="252" y="628" on="0"/>
        <pt x="166" y="514" on="0"/>
        <pt x="122" y="377" on="0"/>
        <pt x="122" y="309" on="1"/>
        <pt x="122" y="239" on="0"/>
        <pt x="173" y="117" on="0"/>
        <pt x="277" y="42" on="0"/>
      </contour>
    </TTGlyph>
    <TTGlyph name="Ohungarumlaut" xMin="65" yMin="-10" xMax="746" yMax="987">
      <contour>
        <pt x="438" y="825" on="1"/>
        <pt x="387" y="826" on="1"/>
        <pt x="486" y="987" on="1"/>
        <pt x="547" y="987" on="1"/>
      </contour>
      <contour>
        <pt x="571" y="825" on="1"/>
        <pt x="520" y="826" on="1"/>
        <pt x="622" y="987" on="1"/>
        <pt x="683" y="987" on="1"/>
      </contour>
      <contour>
        <pt x="357" y="-10" on="1"/>
        <pt x="282" y="-10" on="0"/>
        <pt x="171" y="42" on="0"/>
        <pt x="100" y="131" on="0"/>
        <pt x="65" y="246" on="0"/>
        <pt x="65" y="309" on="1"/>
        <pt x="65" y="387" on="0"/>
        <pt x="117" y="543" on="0"/>
        <pt x="217" y="672" on="0"/>
        <pt x="362" y="750" on="0"/>
        <pt x="455" y="750" on="1"/>
        <pt x="530" y="750" on="0"/>
        <pt x="640" y="698" on="0"/>
        <pt x="711" y="608" on="0"/>
        <pt x="746" y="494" on="0"/>
        <pt x="746" y="431" on="1"/>
        <pt x="746" y="353" on="0"/>
        <pt x="694" y="197" on="0"/>
        <pt x="595" y="68" on="0"/>
        <pt x="450" y="-10" on="0"/>
      </contour>
      <contour>
        <pt x="358" y="42" on="1"/>
        <pt x="437" y="42" on="0"/>
        <pt x="560" y="111" on="0"/>
        <pt x="645" y="225" on="0"/>
        <pt x="689" y="363" on="0"/>
        <pt x="689" y="431" on="1"/>
        <pt x="689" y="501" on="0"/>
        <pt x="639" y="623" on="0"/>
        <pt x="535" y="698" on="0"/>
        <pt x="454" y="698" on="1"/>
        <pt x="375" y="698" on="0"/>
        <pt x="252" y="628" on="0"/>
        <pt x="166" y="514" on="0"/>
        <pt x="122" y="377" on="0"/>
        <pt x="122" y="309" on="1"/>
        <pt x="122" y="239" on="0"/>
        <pt x="173" y="117" on="0"/>
        <pt x="277" y="42" on="0"/>
      </contour>
    </TTGlyph>
    <TTGlyph name="Omacron" xMin="65" yMin="-10" xMax="746" yMax="890">
      <contour>
        <pt x="348" y="846" on="1"/>
        <pt x="357" y="890" on="1"/>
        <pt x="645" y="890" on="1"/>
        <pt x="636" y="846" on="1"/>
      </contour>
      <contour>
        <pt x="357" y="-10" on="1"/>
        <pt x="282" y="-10" on="0"/>
        <pt x="171" y="42" on="0"/>
        <pt x="100" y="131" on="0"/>
        <pt x="65" y="246" on="0"/>
        <pt x="65" y="309" on="1"/>
        <pt x="65" y="387" on="0"/>
        <pt x="117" y="543" on="0"/>
        <pt x="217" y="672" on="0"/>
        <pt x="362" y="750" on="0"/>
        <pt x="455" y="750" on="1"/>
        <pt x="530" y="750" on="0"/>
        <pt x="640" y="698" on="0"/>
        <pt x="711" y="608" on="0"/>
        <pt x="746" y="494" on="0"/>
        <pt x="746" y="431" on="1"/>
        <pt x="746" y="353" on="0"/>
        <pt x="694" y="197" on="0"/>
        <pt x="595" y="68" on="0"/>
        <pt x="450" y="-10" on="0"/>
      </contour>
      <contour>
        <pt x="358" y="42" on="1"/>
        <pt x="437" y="42" on="0"/>
        <pt x="560" y="111" on="0"/>
        <pt x="645" y="225" on="0"/>
        <pt x="689" y="363" on="0"/>
        <pt x="689" y="431" on="1"/>
        <pt x="689" y="501" on="0"/>
        <pt x="639" y="623" on="0"/>
        <pt x="535" y="698" on="0"/>
        <pt x="454" y="698" on="1"/>
        <pt x="375" y="698" on="0"/>
        <pt x="252" y="628" on="0"/>
        <pt x="166" y="514" on="0"/>
        <pt x="122" y="377" on="0"/>
        <pt x="122" y="309" on="1"/>
        <pt x="122" y="239" on="0"/>
        <pt x="173" y="117" on="0"/>
        <pt x="277" y="42" on="0"/>
      </contour>
    </TTGlyph>
    <TTGlyph name="Oslash" xMin="37" yMin="-23" xMax="774" yMax="764">
      <contour>
        <pt x="37" y="-23" on="1"/>
        <pt x="133" y="89" on="1"/>
        <pt x="98" y="133" on="0"/>
        <pt x="65" y="247" on="0"/>
        <pt x="65" y="309" on="1"/>
        <pt x="65" y="387" on="0"/>
        <pt x="117" y="543" on="0"/>
        <pt x="217" y="672" on="0"/>
        <pt x="362" y="750" on="0"/>
        <pt x="455" y="750" on="1"/>
        <pt x="514" y="750" on="0"/>
        <pt x="608" y="716" on="0"/>
        <pt x="643" y="687" on="1"/>
        <pt x="708" y="764" on="1"/>
        <pt x="774" y="764" on="1"/>
        <pt x="677" y="651" on="1"/>
        <pt x="712" y="607" on="0"/>
        <pt x="746" y="493" on="0"/>
        <pt x="746" y="431" on="1"/>
        <pt x="746" y="353" on="0"/>
        <pt x="694" y="197" on="0"/>
        <pt x="595" y="68" on="0"/>
        <pt x="450" y="-10" on="0"/>
        <pt x="357" y="-10" on="1"/>
        <pt x="297" y="-10" on="0"/>
        <pt x="203" y="24" on="0"/>
        <pt x="168" y="53" on="1"/>
        <pt x="103" y="-23" on="1"/>
      </contour>
      <contour>
        <pt x="122" y="309" on="1"/>
        <pt x="122" y="260" on="0"/>
        <pt x="146" y="170" on="0"/>
        <pt x="171" y="134" on="1"/>
        <pt x="606" y="644" on="1"/>
        <pt x="578" y="669" on="0"/>
        <pt x="502" y="698" on="0"/>
        <pt x="454" y="698" on="1"/>
        <pt x="375" y="698" on="0"/>
        <pt x="252" y="628" on="0"/>
        <pt x="166" y="514" on="0"/>
        <pt x="122" y="377" on="0"/>
      </contour>
      <contour>
        <pt x="358" y="42" on="1"/>
        <pt x="437" y="42" on="0"/>
        <pt x="560" y="111" on="0"/>
        <pt x="645" y="225" on="0"/>
        <pt x="689" y="363" on="0"/>
        <pt x="689" y="431" on="1"/>
        <pt x="689" y="480" on="0"/>
        <pt x="665" y="571" on="0"/>
        <pt x="640" y="607" on="1"/>
        <pt x="204" y="96" on="1"/>
        <pt x="233" y="71" on="0"/>
        <pt x="309" y="42" on="0"/>
      </contour>
    </TTGlyph>
    <TTGlyph name="Otilde" xMin="65" yMin="-10" xMax="746" yMax="948">
      <contour>
        <pt x="558" y="829" on="1"/>
        <pt x="534" y="829" on="0"/>
        <pt x="504" y="853" on="0"/>
        <pt x="482" y="884" on="0"/>
        <pt x="461" y="907" on="0"/>
        <pt x="445" y="907" on="1"/>
        <pt x="427" y="907" on="0"/>
        <pt x="403" y="867" on="0"/>
        <pt x="398" y="835" on="1"/>
        <pt x="356" y="835" on="1"/>
        <pt x="366" y="885" on="0"/>
        <pt x="409" y="948" on="0"/>
        <pt x="448" y="948" on="1"/>
        <pt x="472" y="948" on="0"/>
        <pt x="503" y="925" on="0"/>
        <pt x="524" y="895" on="0"/>
        <pt x="545" y="871" on="0"/>
        <pt x="560" y="871" on="1"/>
        <pt x="594" y="871" on="0"/>
        <pt x="606" y="943" on="1"/>
        <pt x="647" y="943" on="1"/>
        <pt x="638" y="895" on="0"/>
        <pt x="596" y="829" on="0"/>
      </contour>
      <contour>
        <pt x="357" y="-10" on="1"/>
        <pt x="282" y="-10" on="0"/>
        <pt x="171" y="42" on="0"/>
        <pt x="100" y="131" on="0"/>
        <pt x="65" y="246" on="0"/>
        <pt x="65" y="309" on="1"/>
        <pt x="65" y="387" on="0"/>
        <pt x="117" y="543" on="0"/>
        <pt x="217" y="672" on="0"/>
        <pt x="362" y="750" on="0"/>
        <pt x="455" y="750" on="1"/>
        <pt x="530" y="750" on="0"/>
        <pt x="640" y="698" on="0"/>
        <pt x="711" y="608" on="0"/>
        <pt x="746" y="494" on="0"/>
        <pt x="746" y="431" on="1"/>
        <pt x="746" y="353" on="0"/>
        <pt x="694" y="197" on="0"/>
        <pt x="595" y="68" on="0"/>
        <pt x="450" y="-10" on="0"/>
      </contour>
      <contour>
        <pt x="358" y="42" on="1"/>
        <pt x="437" y="42" on="0"/>
        <pt x="560" y="111" on="0"/>
        <pt x="645" y="225" on="0"/>
        <pt x="689" y="363" on="0"/>
        <pt x="689" y="431" on="1"/>
        <pt x="689" y="501" on="0"/>
        <pt x="639" y="623" on="0"/>
        <pt x="535" y="698" on="0"/>
        <pt x="454" y="698" on="1"/>
        <pt x="375" y="698" on="0"/>
        <pt x="252" y="628" on="0"/>
        <pt x="166" y="514" on="0"/>
        <pt x="122" y="377" on="0"/>
        <pt x="122" y="309" on="1"/>
        <pt x="122" y="239" on="0"/>
        <pt x="173" y="117" on="0"/>
        <pt x="277" y="42" on="0"/>
      </contour>
    </TTGlyph>
    <TTGlyph name="P" xMin="32" yMin="0" xMax="621" yMax="740">
      <contour>
        <pt x="32" y="0" on="1"/>
        <pt x="189" y="740" on="1"/>
        <pt x="392" y="740" on="1"/>
        <pt x="469" y="740" on="0"/>
        <pt x="571" y="681" on="0"/>
        <pt x="621" y="588" on="0"/>
        <pt x="621" y="535" on="1"/>
        <pt x="621" y="489" on="0"/>
        <pt x="584" y="398" on="0"/>
        <pt x="512" y="324" on="0"/>
        <pt x="407" y="280" on="0"/>
        <pt x="339" y="280" on="1"/>
        <pt x="148" y="280" on="1"/>
        <pt x="88" y="0" on="1"/>
      </contour>
      <contour>
        <pt x="388" y="689" on="1"/>
        <pt x="234" y="689" on="1"/>
        <pt x="159" y="331" on="1"/>
        <pt x="342" y="331" on="1"/>
        <pt x="414" y="331" on="0"/>
        <pt x="513" y="392" on="0"/>
        <pt x="564" y="484" on="0"/>
        <pt x="564" y="532" on="1"/>
        <pt x="564" y="572" on="0"/>
        <pt x="526" y="644" on="0"/>
        <pt x="448" y="689" on="0"/>
      </contour>
    </TTGlyph>
    <TTGlyph name="Q" xMin="65" yMin="-10" xMax="746" yMax="750">
      <contour>
        <pt x="357" y="-10" on="1"/>
        <pt x="282" y="-10" on="0"/>
        <pt x="171" y="42" on="0"/>
        <pt x="100" y="131" on="0"/>
        <pt x="65" y="246" on="0"/>
        <pt x="65" y="309" on="1"/>
        <pt x="65" y="387" on="0"/>
        <pt x="117" y="543" on="0"/>
        <pt x="217" y="672" on="0"/>
        <pt x="362" y="750" on="0"/>
        <pt x="455" y="750" on="1"/>
        <pt x="530" y="750" on="0"/>
        <pt x="640" y="698" on="0"/>
        <pt x="711" y="608" on="0"/>
        <pt x="746" y="494" on="0"/>
        <pt x="746" y="431" on="1"/>
        <pt x="746" y="345" on="0"/>
        <pt x="682" y="171" on="0"/>
        <pt x="622" y="106" on="1"/>
        <pt x="711" y="0" on="1"/>
        <pt x="643" y="0" on="1"/>
        <pt x="583" y="70" on="1"/>
        <pt x="538" y="33" on="0"/>
        <pt x="425" y="-10" on="0"/>
      </contour>
      <contour>
        <pt x="358" y="42" on="1"/>
        <pt x="415" y="42" on="0"/>
        <pt x="510" y="80" on="0"/>
        <pt x="548" y="111" on="1"/>
        <pt x="427" y="255" on="1"/>
        <pt x="467" y="289" on="1"/>
        <pt x="586" y="148" on="1"/>
        <pt x="636" y="206" on="0"/>
        <pt x="689" y="356" on="0"/>
        <pt x="689" y="431" on="1"/>
        <pt x="689" y="501" on="0"/>
        <pt x="639" y="623" on="0"/>
        <pt x="535" y="698" on="0"/>
        <pt x="454" y="698" on="1"/>
        <pt x="375" y="698" on="0"/>
        <pt x="252" y="628" on="0"/>
        <pt x="166" y="514" on="0"/>
        <pt x="122" y="377" on="0"/>
        <pt x="122" y="309" on="1"/>
        <pt x="122" y="239" on="0"/>
        <pt x="173" y="117" on="0"/>
        <pt x="277" y="42" on="0"/>
      </contour>
    </TTGlyph>
    <TTGlyph name="R" xMin="32" yMin="0" xMax="600" yMax="740">
      <contour>
        <pt x="32" y="0" on="1"/>
        <pt x="189" y="740" on="1"/>
        <pt x="389" y="740" on="1"/>
        <pt x="461" y="740" on="0"/>
        <pt x="554" y="687" on="0"/>
        <pt x="600" y="603" on="0"/>
        <pt x="600" y="555" on="1"/>
        <pt x="600" y="505" on="0"/>
        <pt x="550" y="408" on="0"/>
        <pt x="454" y="341" on="0"/>
        <pt x="385" y="334" on="1"/>
        <pt x="511" y="0" on="1"/>
        <pt x="453" y="0" on="1"/>
        <pt x="328" y="332" on="1"/>
        <pt x="159" y="332" on="1"/>
        <pt x="88" y="0" on="1"/>
      </contour>
      <contour>
        <pt x="388" y="689" on="1"/>
        <pt x="234" y="689" on="1"/>
        <pt x="170" y="383" on="1"/>
        <pt x="357" y="383" on="1"/>
        <pt x="417" y="383" on="0"/>
        <pt x="500" y="434" on="0"/>
        <pt x="543" y="513" on="0"/>
        <pt x="543" y="553" on="1"/>
        <pt x="543" y="589" on="0"/>
        <pt x="510" y="650" on="0"/>
        <pt x="441" y="689" on="0"/>
      </contour>
    </TTGlyph>
    <TTGlyph name="Racute" xMin="32" yMin="0" xMax="600" yMax="987">
      <contour>
        <pt x="435" y="825" on="1"/>
        <pt x="389" y="826" on="1"/>
        <pt x="469" y="987" on="1"/>
        <pt x="525" y="987" on="1"/>
      </contour>
      <contour>
        <pt x="32" y="0" on="1"/>
        <pt x="189" y="740" on="1"/>
        <pt x="389" y="740" on="1"/>
        <pt x="461" y="740" on="0"/>
        <pt x="554" y="687" on="0"/>
        <pt x="600" y="603" on="0"/>
        <pt x="600" y="555" on="1"/>
        <pt x="600" y="505" on="0"/>
        <pt x="550" y="408" on="0"/>
        <pt x="454" y="341" on="0"/>
        <pt x="385" y="334" on="1"/>
        <pt x="511" y="0" on="1"/>
        <pt x="453" y="0" on="1"/>
        <pt x="328" y="332" on="1"/>
        <pt x="159" y="332" on="1"/>
        <pt x="88" y="0" on="1"/>
      </contour>
      <contour>
        <pt x="388" y="689" on="1"/>
        <pt x="234" y="689" on="1"/>
        <pt x="170" y="383" on="1"/>
        <pt x="357" y="383" on="1"/>
        <pt x="417" y="383" on="0"/>
        <pt x="500" y="434" on="0"/>
        <pt x="543" y="513" on="0"/>
        <pt x="543" y="553" on="1"/>
        <pt x="543" y="589" on="0"/>
        <pt x="510" y="650" on="0"/>
        <pt x="441" y="689" on="0"/>
      </contour>
    </TTGlyph>
    <TTGlyph name="Rcaron" xMin="32" yMin="0" xMax="600" yMax="974">
      <contour>
        <pt x="379" y="817" on="1"/>
        <pt x="298" y="974" on="1"/>
        <pt x="349" y="974" on="1"/>
        <pt x="409" y="854" on="1"/>
        <pt x="519" y="974" on="1"/>
        <pt x="578" y="974" on="1"/>
        <pt x="431" y="817" on="1"/>
      </contour>
      <contour>
        <pt x="32" y="0" on="1"/>
        <pt x="189" y="740" on="1"/>
        <pt x="389" y="740" on="1"/>
        <pt x="461" y="740" on="0"/>
        <pt x="554" y="687" on="0"/>
        <pt x="600" y="603" on="0"/>
        <pt x="600" y="555" on="1"/>
        <pt x="600" y="505" on="0"/>
        <pt x="550" y="408" on="0"/>
        <pt x="454" y="341" on="0"/>
        <pt x="385" y="334" on="1"/>
        <pt x="511" y="0" on="1"/>
        <pt x="453" y="0" on="1"/>
        <pt x="328" y="332" on="1"/>
        <pt x="159" y="332" on="1"/>
        <pt x="88" y="0" on="1"/>
      </contour>
      <contour>
        <pt x="388" y="689" on="1"/>
        <pt x="234" y="689" on="1"/>
        <pt x="170" y="383" on="1"/>
        <pt x="357" y="383" on="1"/>
        <pt x="417" y="383" on="0"/>
        <pt x="500" y="434" on="0"/>
        <pt x="543" y="513" on="0"/>
        <pt x="543" y="553" on="1"/>
        <pt x="543" y="589" on="0"/>
        <pt x="510" y="650" on="0"/>
        <pt x="441" y="689" on="0"/>
      </contour>
    </TTGlyph>
    <TTGlyph name="S" xMin="43" yMin="-10" xMax="622" yMax="750">
      <contour>
        <pt x="304" y="-10" on="1"/>
        <pt x="237" y="-10" on="0"/>
        <pt x="145" y="23" on="0"/>
        <pt x="88" y="74" on="0"/>
        <pt x="57" y="132" on="0"/>
        <pt x="45" y="184" on="0"/>
        <pt x="43" y="216" on="0"/>
        <pt x="43" y="216" on="1"/>
        <pt x="99" y="216" on="1"/>
        <pt x="99" y="216" on="0"/>
        <pt x="102" y="181" on="0"/>
        <pt x="120" y="129" on="0"/>
        <pt x="163" y="77" on="0"/>
        <pt x="241" y="42" on="0"/>
        <pt x="304" y="42" on="1"/>
        <pt x="354" y="42" on="0"/>
        <pt x="441" y="79" on="0"/>
        <pt x="495" y="148" on="0"/>
        <pt x="495" y="196" on="1"/>
        <pt x="495" y="251" on="0"/>
        <pt x="426" y="314" on="0"/>
        <pt x="377" y="337" on="1"/>
        <pt x="297" y="375" on="1"/>
        <pt x="260" y="393" on="0"/>
        <pt x="196" y="439" on="0"/>
        <pt x="157" y="507" on="0"/>
        <pt x="157" y="557" on="1"/>
        <pt x="157" y="611" on="0"/>
        <pt x="217" y="698" on="0"/>
        <pt x="323" y="750" on="0"/>
        <pt x="392" y="750" on="1"/>
        <pt x="463" y="750" on="0"/>
        <pt x="551" y="708" on="0"/>
        <pt x="599" y="645" on="0"/>
        <pt x="619" y="583" on="0"/>
        <pt x="622" y="541" on="0"/>
        <pt x="622" y="541" on="1"/>
        <pt x="568" y="541" on="1"/>
        <pt x="568" y="541" on="0"/>
        <pt x="564" y="573" on="0"/>
        <pt x="548" y="620" on="0"/>
        <pt x="511" y="668" on="0"/>
        <pt x="444" y="700" on="0"/>
        <pt x="392" y="700" on="1"/>
        <pt x="314" y="700" on="0"/>
        <pt x="214" y="622" on="0"/>
        <pt x="214" y="559" on="1"/>
        <pt x="214" y="507" on="0"/>
        <pt x="276" y="446" on="0"/>
        <pt x="322" y="425" on="1"/>
        <pt x="397" y="390" on="1"/>
        <pt x="437" y="371" on="0"/>
        <pt x="507" y="323" on="0"/>
        <pt x="552" y="251" on="0"/>
        <pt x="552" y="197" on="1"/>
        <pt x="552" y="136" on="0"/>
        <pt x="484" y="43" on="0"/>
        <pt x="372" y="-10" on="0"/>
      </contour>
    </TTGlyph>
    <TTGlyph name="Sacute" xMin="29" yMin="-10" xMax="608" yMax="987">
      <contour>
        <pt x="445" y="825" on="1"/>
        <pt x="399" y="826" on="1"/>
        <pt x="478" y="987" on="1"/>
        <pt x="535" y="987" on="1"/>
      </contour>
      <contour>
        <pt x="290" y="-10" on="1"/>
        <pt x="223" y="-10" on="0"/>
        <pt x="131" y="23" on="0"/>
        <pt x="74" y="74" on="0"/>
        <pt x="43" y="132" on="0"/>
        <pt x="31" y="184" on="0"/>
        <pt x="29" y="216" on="0"/>
        <pt x="29" y="216" on="1"/>
        <pt x="84" y="216" on="1"/>
        <pt x="84" y="216" on="0"/>
        <pt x="87" y="181" on="0"/>
        <pt x="105" y="129" on="0"/>
        <pt x="148" y="77" on="0"/>
        <pt x="227" y="42" on="0"/>
        <pt x="290" y="42" on="1"/>
        <pt x="339" y="42" on="0"/>
        <pt x="426" y="79" on="0"/>
        <pt x="481" y="148" on="0"/>
        <pt x="481" y="196" on="1"/>
        <pt x="481" y="251" on="0"/>
        <pt x="412" y="314" on="0"/>
        <pt x="363" y="337" on="1"/>
        <pt x="283" y="375" on="1"/>
        <pt x="245" y="393" on="0"/>
        <pt x="182" y="439" on="0"/>
        <pt x="143" y="507" on="0"/>
        <pt x="143" y="557" on="1"/>
        <pt x="143" y="611" on="0"/>
        <pt x="203" y="698" on="0"/>
        <pt x="309" y="750" on="0"/>
        <pt x="378" y="750" on="1"/>
        <pt x="448" y="750" on="0"/>
        <pt x="537" y="708" on="0"/>
        <pt x="585" y="645" on="0"/>
        <pt x="605" y="583" on="0"/>
        <pt x="608" y="541" on="0"/>
        <pt x="608" y="541" on="1"/>
        <pt x="554" y="541" on="1"/>
        <pt x="554" y="541" on="0"/>
        <pt x="550" y="573" on="0"/>
        <pt x="534" y="620" on="0"/>
        <pt x="497" y="668" on="0"/>
        <pt x="430" y="700" on="0"/>
        <pt x="378" y="700" on="1"/>
        <pt x="300" y="700" on="0"/>
        <pt x="200" y="622" on="0"/>
        <pt x="200" y="559" on="1"/>
        <pt x="200" y="507" on="0"/>
        <pt x="262" y="446" on="0"/>
        <pt x="308" y="425" on="1"/>
        <pt x="383" y="390" on="1"/>
        <pt x="422" y="371" on="0"/>
        <pt x="493" y="323" on="0"/>
        <pt x="538" y="251" on="0"/>
        <pt x="538" y="197" on="1"/>
        <pt x="538" y="136" on="0"/>
        <pt x="470" y="43" on="0"/>
        <pt x="357" y="-10" on="0"/>
      </contour>
    </TTGlyph>
    <TTGlyph name="Scaron" xMin="29" yMin="-10" xMax="608" yMax="974">
      <contour>
        <pt x="389" y="817" on="1"/>
        <pt x="307" y="974" on="1"/>
        <pt x="358" y="974" on="1"/>
        <pt x="418" y="854" on="1"/>
        <pt x="528" y="974" on="1"/>
        <pt x="588" y="974" on="1"/>
        <pt x="440" y="817" on="1"/>
      </contour>
      <contour>
        <pt x="290" y="-10" on="1"/>
        <pt x="223" y="-10" on="0"/>
        <pt x="131" y="23" on="0"/>
        <pt x="74" y="74" on="0"/>
        <pt x="43" y="132" on="0"/>
        <pt x="31" y="184" on="0"/>
        <pt x="29" y="216" on="0"/>
        <pt x="29" y="216" on="1"/>
        <pt x="84" y="216" on="1"/>
        <pt x="84" y="216" on="0"/>
        <pt x="87" y="181" on="0"/>
        <pt x="105" y="129" on="0"/>
        <pt x="148" y="77" on="0"/>
        <pt x="227" y="42" on="0"/>
        <pt x="290" y="42" on="1"/>
        <pt x="339" y="42" on="0"/>
        <pt x="426" y="79" on="0"/>
        <pt x="481" y="148" on="0"/>
        <pt x="481" y="196" on="1"/>
        <pt x="481" y="251" on="0"/>
        <pt x="412" y="314" on="0"/>
        <pt x="363" y="337" on="1"/>
        <pt x="283" y="375" on="1"/>
        <pt x="245" y="393" on="0"/>
        <pt x="182" y="439" on="0"/>
        <pt x="143" y="507" on="0"/>
        <pt x="143" y="557" on="1"/>
        <pt x="143" y="611" on="0"/>
        <pt x="203" y="698" on="0"/>
        <pt x="309" y="750" on="0"/>
        <pt x="378" y="750" on="1"/>
        <pt x="448" y="750" on="0"/>
        <pt x="537" y="708" on="0"/>
        <pt x="585" y="645" on="0"/>
        <pt x="605" y="583" on="0"/>
        <pt x="608" y="541" on="0"/>
        <pt x="608" y="541" on="1"/>
        <pt x="554" y="541" on="1"/>
        <pt x="554" y="541" on="0"/>
        <pt x="550" y="573" on="0"/>
        <pt x="534" y="620" on="0"/>
        <pt x="497" y="668" on="0"/>
        <pt x="430" y="700" on="0"/>
        <pt x="378" y="700" on="1"/>
        <pt x="300" y="700" on="0"/>
        <pt x="200" y="622" on="0"/>
        <pt x="200" y="559" on="1"/>
        <pt x="200" y="507" on="0"/>
        <pt x="262" y="446" on="0"/>
        <pt x="308" y="425" on="1"/>
        <pt x="383" y="390" on="1"/>
        <pt x="422" y="371" on="0"/>
        <pt x="493" y="323" on="0"/>
        <pt x="538" y="251" on="0"/>
        <pt x="538" y="197" on="1"/>
        <pt x="538" y="136" on="0"/>
        <pt x="470" y="43" on="0"/>
        <pt x="357" y="-10" on="0"/>
      </contour>
    </TTGlyph>
    <TTGlyph name="Scedilla" xMin="29" yMin="-253" xMax="608" yMax="750">
      <contour>
        <pt x="290" y="-10" on="1"/>
        <pt x="287" y="-10" on="0"/>
        <pt x="285" y="-10" on="1"/>
        <pt x="239" y="-67" on="1"/>
        <pt x="246" y="-66" on="0"/>
        <pt x="255" y="-66" on="1"/>
        <pt x="301" y="-66" on="0"/>
        <pt x="350" y="-119" on="0"/>
        <pt x="350" y="-153" on="1"/>
        <pt x="350" y="-190" on="0"/>
        <pt x="290" y="-253" on="0"/>
        <pt x="226" y="-253" on="1"/>
        <pt x="195" y="-253" on="0"/>
        <pt x="150" y="-241" on="0"/>
        <pt x="150" y="-241" on="1"/>
        <pt x="158" y="-202" on="1"/>
        <pt x="158" y="-202" on="0"/>
        <pt x="203" y="-213" on="0"/>
        <pt x="226" y="-213" on="1"/>
        <pt x="267" y="-213" on="0"/>
        <pt x="302" y="-176" on="0"/>
        <pt x="302" y="-155" on="1"/>
        <pt x="302" y="-135" on="0"/>
        <pt x="272" y="-104" on="0"/>
        <pt x="242" y="-104" on="1"/>
        <pt x="218" y="-104" on="0"/>
        <pt x="187" y="-120" on="0"/>
        <pt x="188" y="-120" on="1"/>
        <pt x="169" y="-96" on="1"/>
        <pt x="240" y="-7" on="1"/>
        <pt x="174" y="1" on="0"/>
        <pt x="93" y="51" on="0"/>
        <pt x="49" y="115" on="0"/>
        <pt x="31" y="176" on="0"/>
        <pt x="29" y="216" on="0"/>
        <pt x="29" y="216" on="1"/>
        <pt x="84" y="216" on="1"/>
        <pt x="84" y="216" on="0"/>
        <pt x="87" y="181" on="0"/>
        <pt x="105" y="129" on="0"/>
        <pt x="148" y="77" on="0"/>
        <pt x="227" y="42" on="0"/>
        <pt x="290" y="42" on="1"/>
        <pt x="339" y="42" on="0"/>
        <pt x="426" y="79" on="0"/>
        <pt x="481" y="148" on="0"/>
        <pt x="481" y="196" on="1"/>
        <pt x="481" y="251" on="0"/>
        <pt x="412" y="314" on="0"/>
        <pt x="363" y="337" on="1"/>
        <pt x="283" y="375" on="1"/>
        <pt x="245" y="393" on="0"/>
        <pt x="182" y="439" on="0"/>
        <pt x="143" y="507" on="0"/>
        <pt x="143" y="557" on="1"/>
        <pt x="143" y="611" on="0"/>
        <pt x="203" y="698" on="0"/>
        <pt x="309" y="750" on="0"/>
        <pt x="378" y="750" on="1"/>
        <pt x="448" y="750" on="0"/>
        <pt x="537" y="708" on="0"/>
        <pt x="585" y="645" on="0"/>
        <pt x="605" y="583" on="0"/>
        <pt x="608" y="541" on="0"/>
        <pt x="608" y="541" on="1"/>
        <pt x="554" y="541" on="1"/>
        <pt x="554" y="541" on="0"/>
        <pt x="550" y="573" on="0"/>
        <pt x="534" y="620" on="0"/>
        <pt x="497" y="668" on="0"/>
        <pt x="430" y="700" on="0"/>
        <pt x="378" y="700" on="1"/>
        <pt x="300" y="700" on="0"/>
        <pt x="200" y="622" on="0"/>
        <pt x="200" y="559" on="1"/>
        <pt x="200" y="507" on="0"/>
        <pt x="262" y="446" on="0"/>
        <pt x="308" y="425" on="1"/>
        <pt x="383" y="390" on="1"/>
        <pt x="422" y="371" on="0"/>
        <pt x="493" y="323" on="0"/>
        <pt x="538" y="251" on="0"/>
        <pt x="538" y="197" on="1"/>
        <pt x="538" y="136" on="0"/>
        <pt x="470" y="43" on="0"/>
        <pt x="357" y="-10" on="0"/>
      </contour>
    </TTGlyph>
    <TTGlyph name="T" xMin="127" yMin="0" xMax="711" yMax="740">
      <contour>
        <pt x="235" y="0" on="1"/>
        <pt x="381" y="689" on="1"/>
        <pt x="127" y="689" on="1"/>
        <pt x="138" y="740" on="1"/>
        <pt x="711" y="740" on="1"/>
        <pt x="700" y="689" on="1"/>
        <pt x="437" y="689" on="1"/>
        <pt x="291" y="0" on="1"/>
      </contour>
    </TTGlyph>
    <TTGlyph name="Tbar" xMin="119" yMin="0" xMax="691" yMax="740">
      <contour>
        <pt x="225" y="0" on="1"/>
        <pt x="301" y="355" on="1"/>
        <pt x="119" y="355" on="1"/>
        <pt x="130" y="405" on="1"/>
        <pt x="311" y="405" on="1"/>
        <pt x="371" y="689" on="1"/>
        <pt x="127" y="689" on="1"/>
        <pt x="138" y="740" on="1"/>
        <pt x="691" y="740" on="1"/>
        <pt x="680" y="689" on="1"/>
        <pt x="427" y="689" on="1"/>
        <pt x="367" y="405" on="1"/>
        <pt x="570" y="405" on="1"/>
        <pt x="560" y="355" on="1"/>
        <pt x="357" y="355" on="1"/>
        <pt x="281" y="0" on="1"/>
      </contour>
    </TTGlyph>
    <TTGlyph name="Tcaron" xMin="134" yMin="0" xMax="698" yMax="974">
      <contour>
        <pt x="398" y="817" on="1"/>
        <pt x="316" y="974" on="1"/>
        <pt x="367" y="974" on="1"/>
        <pt x="427" y="854" on="1"/>
        <pt x="537" y="974" on="1"/>
        <pt x="597" y="974" on="1"/>
        <pt x="449" y="817" on="1"/>
      </contour>
      <contour>
        <pt x="232" y="0" on="1"/>
        <pt x="378" y="689" on="1"/>
        <pt x="134" y="689" on="1"/>
        <pt x="144" y="740" on="1"/>
        <pt x="698" y="740" on="1"/>
        <pt x="687" y="689" on="1"/>
        <pt x="434" y="689" on="1"/>
        <pt x="288" y="0" on="1"/>
      </contour>
    </TTGlyph>
    <TTGlyph name="Thorn" xMin="32" yMin="0" xMax="598" yMax="740">
      <contour>
        <pt x="32" y="0" on="1"/>
        <pt x="189" y="740" on="1"/>
        <pt x="245" y="740" on="1"/>
        <pt x="216" y="600" on="1"/>
        <pt x="369" y="600" on="1"/>
        <pt x="447" y="600" on="0"/>
        <pt x="549" y="542" on="0"/>
        <pt x="598" y="448" on="0"/>
        <pt x="598" y="395" on="1"/>
        <pt x="598" y="349" on="0"/>
        <pt x="562" y="258" on="0"/>
        <pt x="490" y="184" on="0"/>
        <pt x="385" y="140" on="0"/>
        <pt x="316" y="140" on="1"/>
        <pt x="118" y="140" on="1"/>
        <pt x="88" y="0" on="1"/>
      </contour>
      <contour>
        <pt x="366" y="549" on="1"/>
        <pt x="205" y="549" on="1"/>
        <pt x="129" y="191" on="1"/>
        <pt x="320" y="191" on="1"/>
        <pt x="392" y="191" on="0"/>
        <pt x="491" y="252" on="0"/>
        <pt x="542" y="344" on="0"/>
        <pt x="542" y="392" on="1"/>
        <pt x="542" y="432" on="0"/>
        <pt x="504" y="504" on="0"/>
        <pt x="426" y="549" on="0"/>
      </contour>
    </TTGlyph>
    <TTGlyph name="U" xMin="73" yMin="-10" xMax="720" yMax="740">
      <contour>
        <pt x="312" y="-10" on="1"/>
        <pt x="223" y="-10" on="0"/>
        <pt x="113" y="67" on="0"/>
        <pt x="73" y="196" on="0"/>
        <pt x="90" y="275" on="1"/>
        <pt x="189" y="740" on="1"/>
        <pt x="245" y="740" on="1"/>
        <pt x="146" y="271" on="1"/>
        <pt x="124" y="167" on="0"/>
        <pt x="215" y="44" on="0"/>
        <pt x="317" y="44" on="1"/>
        <pt x="384" y="44" on="0"/>
        <pt x="485" y="100" on="0"/>
        <pt x="550" y="200" on="0"/>
        <pt x="563" y="265" on="1"/>
        <pt x="664" y="740" on="1"/>
        <pt x="720" y="740" on="1"/>
        <pt x="619" y="265" on="1"/>
        <pt x="603" y="186" on="0"/>
        <pt x="524" y="62" on="0"/>
        <pt x="399" y="-10" on="0"/>
      </contour>
    </TTGlyph>
    <TTGlyph name="Uacute" xMin="73" yMin="-10" xMax="720" yMax="987">
      <contour>
        <pt x="494" y="825" on="1"/>
        <pt x="448" y="826" on="1"/>
        <pt x="528" y="987" on="1"/>
        <pt x="584" y="987" on="1"/>
      </contour>
      <contour>
        <pt x="312" y="-10" on="1"/>
        <pt x="223" y="-10" on="0"/>
        <pt x="113" y="67" on="0"/>
        <pt x="73" y="196" on="0"/>
        <pt x="90" y="275" on="1"/>
        <pt x="189" y="740" on="1"/>
        <pt x="245" y="740" on="1"/>
        <pt x="146" y="271" on="1"/>
        <pt x="124" y="167" on="0"/>
        <pt x="215" y="44" on="0"/>
        <pt x="317" y="44" on="1"/>
        <pt x="384" y="44" on="0"/>
        <pt x="485" y="100" on="0"/>
        <pt x="550" y="200" on="0"/>
        <pt x="563" y="265" on="1"/>
        <pt x="664" y="740" on="1"/>
        <pt x="720" y="740" on="1"/>
        <pt x="619" y="265" on="1"/>
        <pt x="603" y="186" on="0"/>
        <pt x="524" y="62" on="0"/>
        <pt x="399" y="-10" on="0"/>
      </contour>
    </TTGlyph>
    <TTGlyph name="Ucircumflex" xMin="73" yMin="-10" xMax="720" yMax="974">
      <contour>
        <pt x="330" y="817" on="1"/>
        <pt x="478" y="974" on="1"/>
        <pt x="529" y="974" on="1"/>
        <pt x="611" y="817" on="1"/>
        <pt x="560" y="817" on="1"/>
        <pt x="500" y="937" on="1"/>
        <pt x="390" y="817" on="1"/>
      </contour>
      <contour>
        <pt x="312" y="-10" on="1"/>
        <pt x="223" y="-10" on="0"/>
        <pt x="113" y="67" on="0"/>
        <pt x="73" y="196" on="0"/>
        <pt x="90" y="275" on="1"/>
        <pt x="189" y="740" on="1"/>
        <pt x="245" y="740" on="1"/>
        <pt x="146" y="271" on="1"/>
        <pt x="124" y="167" on="0"/>
        <pt x="215" y="44" on="0"/>
        <pt x="317" y="44" on="1"/>
        <pt x="384" y="44" on="0"/>
        <pt x="485" y="100" on="0"/>
        <pt x="550" y="200" on="0"/>
        <pt x="563" y="265" on="1"/>
        <pt x="664" y="740" on="1"/>
        <pt x="720" y="740" on="1"/>
        <pt x="619" y="265" on="1"/>
        <pt x="603" y="186" on="0"/>
        <pt x="524" y="62" on="0"/>
        <pt x="399" y="-10" on="0"/>
      </contour>
    </TTGlyph>
    <TTGlyph name="Udieresis" xMin="73" yMin="-10" xMax="720" yMax="922">
      <contour>
        <pt x="560" y="834" on="1"/>
        <pt x="541" y="834" on="0"/>
        <pt x="516" y="860" on="0"/>
        <pt x="516" y="878" on="1"/>
        <pt x="516" y="896" on="0"/>
        <pt x="541" y="922" on="0"/>
        <pt x="560" y="922" on="1"/>
        <pt x="579" y="922" on="0"/>
        <pt x="605" y="896" on="0"/>
        <pt x="605" y="878" on="1"/>
        <pt x="605" y="860" on="0"/>
        <pt x="579" y="834" on="0"/>
      </contour>
      <contour>
        <pt x="404" y="834" on="1"/>
        <pt x="385" y="834" on="0"/>
        <pt x="360" y="860" on="0"/>
        <pt x="360" y="878" on="1"/>
        <pt x="360" y="896" on="0"/>
        <pt x="385" y="922" on="0"/>
        <pt x="404" y="922" on="1"/>
        <pt x="423" y="922" on="0"/>
        <pt x="449" y="896" on="0"/>
        <pt x="449" y="878" on="1"/>
        <pt x="449" y="860" on="0"/>
        <pt x="423" y="834" on="0"/>
      </contour>
      <contour>
        <pt x="312" y="-10" on="1"/>
        <pt x="223" y="-10" on="0"/>
        <pt x="113" y="67" on="0"/>
        <pt x="73" y="196" on="0"/>
        <pt x="90" y="275" on="1"/>
        <pt x="189" y="740" on="1"/>
        <pt x="245" y="740" on="1"/>
        <pt x="146" y="271" on="1"/>
        <pt x="124" y="167" on="0"/>
        <pt x="215" y="44" on="0"/>
        <pt x="317" y="44" on="1"/>
        <pt x="384" y="44" on="0"/>
        <pt x="485" y="100" on="0"/>
        <pt x="550" y="200" on="0"/>
        <pt x="563" y="265" on="1"/>
        <pt x="664" y="740" on="1"/>
        <pt x="720" y="740" on="1"/>
        <pt x="619" y="265" on="1"/>
        <pt x="603" y="186" on="0"/>
        <pt x="524" y="62" on="0"/>
        <pt x="399" y="-10" on="0"/>
      </contour>
    </TTGlyph>
    <TTGlyph name="Ugrave" xMin="73" yMin="-10" xMax="720" yMax="987">
      <contour>
        <pt x="442" y="825" on="1"/>
        <pt x="375" y="987" on="1"/>
        <pt x="430" y="987" on="1"/>
        <pt x="487" y="826" on="1"/>
      </contour>
      <contour>
        <pt x="312" y="-10" on="1"/>
        <pt x="223" y="-10" on="0"/>
        <pt x="113" y="67" on="0"/>
        <pt x="73" y="196" on="0"/>
        <pt x="90" y="275" on="1"/>
        <pt x="189" y="740" on="1"/>
        <pt x="245" y="740" on="1"/>
        <pt x="146" y="271" on="1"/>
        <pt x="124" y="167" on="0"/>
        <pt x="215" y="44" on="0"/>
        <pt x="317" y="44" on="1"/>
        <pt x="384" y="44" on="0"/>
        <pt x="485" y="100" on="0"/>
        <pt x="550" y="200" on="0"/>
        <pt x="563" y="265" on="1"/>
        <pt x="664" y="740" on="1"/>
        <pt x="720" y="740" on="1"/>
        <pt x="619" y="265" on="1"/>
        <pt x="603" y="186" on="0"/>
        <pt x="524" y="62" on="0"/>
        <pt x="399" y="-10" on="0"/>
      </contour>
    </TTGlyph>
    <TTGlyph name="Uhorn" xMin="74" yMin="-10" xMax="842" yMax="834">
      <contour>
        <pt x="312" y="-10" on="1"/>
        <pt x="223" y="-10" on="0"/>
        <pt x="113" y="67" on="0"/>
        <pt x="74" y="196" on="0"/>
        <pt x="90" y="275" on="1"/>
        <pt x="189" y="740" on="1"/>
        <pt x="245" y="740" on="1"/>
        <pt x="146" y="271" on="1"/>
        <pt x="124" y="167" on="0"/>
        <pt x="215" y="44" on="0"/>
        <pt x="317" y="44" on="1"/>
        <pt x="384" y="44" on="0"/>
        <pt x="485" y="100" on="0"/>
        <pt x="550" y="200" on="0"/>
        <pt x="563" y="265" on="1"/>
        <pt x="664" y="740" on="1"/>
        <pt x="717" y="740" on="1"/>
        <pt x="772" y="740" on="0"/>
        <pt x="783" y="793" on="1"/>
        <pt x="791" y="834" on="1"/>
        <pt x="842" y="834" on="1"/>
        <pt x="833" y="787" on="1"/>
        <pt x="815" y="700" on="0"/>
        <pt x="727" y="700" on="1"/>
        <pt x="712" y="700" on="1"/>
        <pt x="619" y="265" on="1"/>
        <pt x="603" y="186" on="0"/>
        <pt x="524" y="62" on="0"/>
        <pt x="399" y="-10" on="0"/>
      </contour>
    </TTGlyph>
    <TTGlyph name="Uhungarumlaut" xMin="73" yMin="-10" xMax="720" yMax="987">
      <contour>
        <pt x="421" y="825" on="1"/>
        <pt x="371" y="826" on="1"/>
        <pt x="470" y="987" on="1"/>
        <pt x="530" y="987" on="1"/>
      </contour>
      <contour>
        <pt x="555" y="825" on="1"/>
        <pt x="504" y="826" on="1"/>
        <pt x="606" y="987" on="1"/>
        <pt x="667" y="987" on="1"/>
      </contour>
      <contour>
        <pt x="312" y="-10" on="1"/>
        <pt x="223" y="-10" on="0"/>
        <pt x="113" y="67" on="0"/>
        <pt x="73" y="196" on="0"/>
        <pt x="90" y="275" on="1"/>
        <pt x="189" y="740" on="1"/>
        <pt x="245" y="740" on="1"/>
        <pt x="146" y="271" on="1"/>
        <pt x="124" y="167" on="0"/>
        <pt x="215" y="44" on="0"/>
        <pt x="317" y="44" on="1"/>
        <pt x="384" y="44" on="0"/>
        <pt x="485" y="100" on="0"/>
        <pt x="550" y="200" on="0"/>
        <pt x="563" y="265" on="1"/>
        <pt x="664" y="740" on="1"/>
        <pt x="720" y="740" on="1"/>
        <pt x="619" y="265" on="1"/>
        <pt x="603" y="186" on="0"/>
        <pt x="524" y="62" on="0"/>
        <pt x="399" y="-10" on="0"/>
      </contour>
    </TTGlyph>
    <TTGlyph name="Umacron" xMin="73" yMin="-10" xMax="720" yMax="890">
      <contour>
        <pt x="332" y="846" on="1"/>
        <pt x="341" y="890" on="1"/>
        <pt x="629" y="890" on="1"/>
        <pt x="620" y="846" on="1"/>
      </contour>
      <contour>
        <pt x="312" y="-10" on="1"/>
        <pt x="223" y="-10" on="0"/>
        <pt x="113" y="67" on="0"/>
        <pt x="73" y="196" on="0"/>
        <pt x="90" y="275" on="1"/>
        <pt x="189" y="740" on="1"/>
        <pt x="245" y="740" on="1"/>
        <pt x="146" y="271" on="1"/>
        <pt x="124" y="167" on="0"/>
        <pt x="215" y="44" on="0"/>
        <pt x="317" y="44" on="1"/>
        <pt x="384" y="44" on="0"/>
        <pt x="485" y="100" on="0"/>
        <pt x="550" y="200" on="0"/>
        <pt x="563" y="265" on="1"/>
        <pt x="664" y="740" on="1"/>
        <pt x="720" y="740" on="1"/>
        <pt x="619" y="265" on="1"/>
        <pt x="603" y="186" on="0"/>
        <pt x="524" y="62" on="0"/>
        <pt x="399" y="-10" on="0"/>
      </contour>
    </TTGlyph>
    <TTGlyph name="Uogonek" xMin="75" yMin="-162" xMax="720" yMax="740">
      <contour>
        <pt x="306" y="-162" on="1"/>
        <pt x="266" y="-162" on="0"/>
        <pt x="220" y="-125" on="0"/>
        <pt x="220" y="-93" on="1"/>
        <pt x="220" y="-61" on="0"/>
        <pt x="258" y="-20" on="0"/>
        <pt x="279" y="-8" on="1"/>
        <pt x="201" y="-1" on="0"/>
        <pt x="107" y="78" on="0"/>
        <pt x="75" y="201" on="0"/>
        <pt x="90" y="275" on="1"/>
        <pt x="189" y="740" on="1"/>
        <pt x="245" y="740" on="1"/>
        <pt x="146" y="271" on="1"/>
        <pt x="124" y="167" on="0"/>
        <pt x="215" y="44" on="0"/>
        <pt x="317" y="44" on="1"/>
        <pt x="384" y="44" on="0"/>
        <pt x="485" y="100" on="0"/>
        <pt x="550" y="200" on="0"/>
        <pt x="563" y="265" on="1"/>
        <pt x="664" y="740" on="1"/>
        <pt x="720" y="740" on="1"/>
        <pt x="619" y="265" on="1"/>
        <pt x="603" y="189" on="0"/>
        <pt x="529" y="68" on="0"/>
        <pt x="412" y="-5" on="0"/>
        <pt x="332" y="-9" on="1"/>
        <pt x="322" y="-13" on="0"/>
        <pt x="291" y="-33" on="0"/>
        <pt x="265" y="-63" on="0"/>
        <pt x="265" y="-84" on="1"/>
        <pt x="265" y="-123" on="0"/>
        <pt x="317" y="-123" on="1"/>
        <pt x="332" y="-123" on="0"/>
        <pt x="357" y="-118" on="0"/>
        <pt x="357" y="-118" on="1"/>
        <pt x="349" y="-156" on="1"/>
        <pt x="349" y="-156" on="0"/>
        <pt x="325" y="-162" on="0"/>
      </contour>
    </TTGlyph>
    <TTGlyph name="Uring" xMin="73" yMin="-10" xMax="720" yMax="1030">
      <contour>
        <pt x="479" y="820" on="1"/>
        <pt x="435" y="820" on="0"/>
        <pt x="374" y="881" on="0"/>
        <pt x="374" y="925" on="1"/>
        <pt x="374" y="968" on="0"/>
        <pt x="435" y="1030" on="0"/>
        <pt x="479" y="1030" on="1"/>
        <pt x="522" y="1030" on="0"/>
        <pt x="583" y="968" on="0"/>
        <pt x="583" y="925" on="1"/>
        <pt x="583" y="881" on="0"/>
        <pt x="522" y="820" on="0"/>
      </contour>
      <contour>
        <pt x="479" y="863" on="1"/>
        <pt x="504" y="863" on="0"/>
        <pt x="541" y="899" on="0"/>
        <pt x="541" y="925" on="1"/>
        <pt x="541" y="950" on="0"/>
        <pt x="504" y="987" on="0"/>
        <pt x="479" y="987" on="1"/>
        <pt x="453" y="987" on="0"/>
        <pt x="416" y="950" on="0"/>
        <pt x="416" y="925" on="1"/>
        <pt x="416" y="899" on="0"/>
        <pt x="453" y="863" on="0"/>
      </contour>
      <contour>
        <pt x="312" y="-10" on="1"/>
        <pt x="223" y="-10" on="0"/>
        <pt x="113" y="67" on="0"/>
        <pt x="73" y="196" on="0"/>
        <pt x="90" y="275" on="1"/>
        <pt x="189" y="740" on="1"/>
        <pt x="245" y="740" on="1"/>
        <pt x="146" y="271" on="1"/>
        <pt x="124" y="167" on="0"/>
        <pt x="215" y="44" on="0"/>
        <pt x="317" y="44" on="1"/>
        <pt x="384" y="44" on="0"/>
        <pt x="485" y="100" on="0"/>
        <pt x="550" y="200" on="0"/>
        <pt x="563" y="265" on="1"/>
        <pt x="664" y="740" on="1"/>
        <pt x="720" y="740" on="1"/>
        <pt x="619" y="265" on="1"/>
        <pt x="603" y="186" on="0"/>
        <pt x="524" y="62" on="0"/>
        <pt x="399" y="-10" on="0"/>
      </contour>
    </TTGlyph>
    <TTGlyph name="Utilde" xMin="73" yMin="-10" xMax="720" yMax="948">
      <contour>
        <pt x="541" y="829" on="1"/>
        <pt x="518" y="829" on="0"/>
        <pt x="488" y="853" on="0"/>
        <pt x="466" y="884" on="0"/>
        <pt x="444" y="907" on="0"/>
        <pt x="429" y="907" on="1"/>
        <pt x="411" y="907" on="0"/>
        <pt x="387" y="867" on="0"/>
        <pt x="381" y="835" on="1"/>
        <pt x="340" y="835" on="1"/>
        <pt x="349" y="885" on="0"/>
        <pt x="392" y="948" on="0"/>
        <pt x="431" y="948" on="1"/>
        <pt x="456" y="948" on="0"/>
        <pt x="487" y="925" on="0"/>
        <pt x="508" y="895" on="0"/>
        <pt x="529" y="871" on="0"/>
        <pt x="544" y="871" on="1"/>
        <pt x="578" y="871" on="0"/>
        <pt x="590" y="943" on="1"/>
        <pt x="631" y="943" on="1"/>
        <pt x="622" y="895" on="0"/>
        <pt x="580" y="829" on="0"/>
      </contour>
      <contour>
        <pt x="312" y="-10" on="1"/>
        <pt x="223" y="-10" on="0"/>
        <pt x="113" y="67" on="0"/>
        <pt x="73" y="196" on="0"/>
        <pt x="90" y="275" on="1"/>
        <pt x="189" y="740" on="1"/>
        <pt x="245" y="740" on="1"/>
        <pt x="146" y="271" on="1"/>
        <pt x="124" y="167" on="0"/>
        <pt x="215" y="44" on="0"/>
        <pt x="317" y="44" on="1"/>
        <pt x="384" y="44" on="0"/>
        <pt x="485" y="100" on="0"/>
        <pt x="550" y="200" on="0"/>
        <pt x="563" y="265" on="1"/>
        <pt x="664" y="740" on="1"/>
        <pt x="720" y="740" on="1"/>
        <pt x="619" y="265" on="1"/>
        <pt x="603" y="186" on="0"/>
        <pt x="524" y="62" on="0"/>
        <pt x="399" y="-10" on="0"/>
      </contour>
    </TTGlyph>
    <TTGlyph name="V" xMin="124" yMin="0" xMax="721" yMax="740">
      <contour>
        <pt x="232" y="0" on="1"/>
        <pt x="124" y="740" on="1"/>
        <pt x="180" y="740" on="1"/>
        <pt x="275" y="68" on="1"/>
        <pt x="658" y="740" on="1"/>
        <pt x="721" y="740" on="1"/>
        <pt x="299" y="0" on="1"/>
      </contour>
    </TTGlyph>
    <TTGlyph name="W" xMin="134" yMin="0" xMax="1034" yMax="740">
      <contour>
        <pt x="180" y="0" on="1"/>
        <pt x="134" y="740" on="1"/>
        <pt x="188" y="740" on="1"/>
        <pt x="229" y="84" on="1"/>
        <pt x="553" y="740" on="1"/>
        <pt x="611" y="740" on="1"/>
        <pt x="658" y="84" on="1"/>
        <pt x="973" y="740" on="1"/>
        <pt x="1034" y="740" on="1"/>
        <pt x="674" y="0" on="1"/>
        <pt x="611" y="0" on="1"/>
        <pt x="565" y="651" on="1"/>
        <pt x="244" y="0" on="1"/>
      </contour>
    </TTGlyph>
    <TTGlyph name="Wacute" xMin="113" yMin="0" xMax="1013" yMax="987">
      <contour>
        <pt x="604" y="825" on="1"/>
        <pt x="558" y="826" on="1"/>
        <pt x="638" y="987" on="1"/>
        <pt x="694" y="987" on="1"/>
      </contour>
      <contour>
        <pt x="160" y="0" on="1"/>
        <pt x="113" y="740" on="1"/>
        <pt x="167" y="740" on="1"/>
        <pt x="208" y="84" on="1"/>
        <pt x="533" y="740" on="1"/>
        <pt x="590" y="740" on="1"/>
        <pt x="637" y="84" on="1"/>
        <pt x="952" y="740" on="1"/>
        <pt x="1013" y="740" on="1"/>
        <pt x="654" y="0" on="1"/>
        <pt x="590" y="0" on="1"/>
        <pt x="545" y="651" on="1"/>
        <pt x="223" y="0" on="1"/>
      </contour>
    </TTGlyph>
    <TTGlyph name="Wcircumflex" xMin="113" yMin="0" xMax="1013" yMax="974">
      <contour>
        <pt x="440" y="817" on="1"/>
        <pt x="587" y="974" on="1"/>
        <pt x="639" y="974" on="1"/>
        <pt x="720" y="817" on="1"/>
        <pt x="670" y="817" on="1"/>
        <pt x="609" y="937" on="1"/>
        <pt x="499" y="817" on="1"/>
      </contour>
      <contour>
        <pt x="160" y="0" on="1"/>
        <pt x="113" y="740" on="1"/>
        <pt x="167" y="740" on="1"/>
        <pt x="208" y="84" on="1"/>
        <pt x="533" y="740" on="1"/>
        <pt x="590" y="740" on="1"/>
        <pt x="637" y="84" on="1"/>
        <pt x="952" y="740" on="1"/>
        <pt x="1013" y="740" on="1"/>
        <pt x="654" y="0" on="1"/>
        <pt x="590" y="0" on="1"/>
        <pt x="545" y="651" on="1"/>
        <pt x="223" y="0" on="1"/>
      </contour>
    </TTGlyph>
    <TTGlyph name="Wdieresis" xMin="113" yMin="0" xMax="1013" yMax="922">
      <contour>
        <pt x="670" y="834" on="1"/>
        <pt x="651" y="834" on="0"/>
        <pt x="626" y="860" on="0"/>
        <pt x="626" y="878" on="1"/>
        <pt x="626" y="896" on="0"/>
        <pt x="651" y="922" on="0"/>
        <pt x="670" y="922" on="1"/>
        <pt x="688" y="922" on="0"/>
        <pt x="714" y="896" on="0"/>
        <pt x="714" y="878" on="1"/>
        <pt x="714" y="860" on="0"/>
        <pt x="688" y="834" on="0"/>
      </contour>
      <contour>
        <pt x="514" y="834" on="1"/>
        <pt x="495" y="834" on="0"/>
        <pt x="470" y="860" on="0"/>
        <pt x="470" y="878" on="1"/>
        <pt x="470" y="896" on="0"/>
        <pt x="495" y="922" on="0"/>
        <pt x="514" y="922" on="1"/>
        <pt x="532" y="922" on="0"/>
        <pt x="558" y="896" on="0"/>
        <pt x="558" y="878" on="1"/>
        <pt x="558" y="860" on="0"/>
        <pt x="532" y="834" on="0"/>
      </contour>
      <contour>
        <pt x="160" y="0" on="1"/>
        <pt x="113" y="740" on="1"/>
        <pt x="167" y="740" on="1"/>
        <pt x="208" y="84" on="1"/>
        <pt x="533" y="740" on="1"/>
        <pt x="590" y="740" on="1"/>
        <pt x="637" y="84" on="1"/>
        <pt x="952" y="740" on="1"/>
        <pt x="1013" y="740" on="1"/>
        <pt x="654" y="0" on="1"/>
        <pt x="590" y="0" on="1"/>
        <pt x="545" y="651" on="1"/>
        <pt x="223" y="0" on="1"/>
      </contour>
    </TTGlyph>
    <TTGlyph name="Wgrave" xMin="113" yMin="0" xMax="1013" yMax="987">
      <contour>
        <pt x="552" y="825" on="1"/>
        <pt x="484" y="987" on="1"/>
        <pt x="539" y="987" on="1"/>
        <pt x="597" y="826" on="1"/>
      </contour>
      <contour>
        <pt x="160" y="0" on="1"/>
        <pt x="113" y="740" on="1"/>
        <pt x="167" y="740" on="1"/>
        <pt x="208" y="84" on="1"/>
        <pt x="533" y="740" on="1"/>
        <pt x="590" y="740" on="1"/>
        <pt x="637" y="84" on="1"/>
        <pt x="952" y="740" on="1"/>
        <pt x="1013" y="740" on="1"/>
        <pt x="654" y="0" on="1"/>
        <pt x="590" y="0" on="1"/>
        <pt x="545" y="651" on="1"/>
        <pt x="223" y="0" on="1"/>
      </contour>
    </TTGlyph>
    <TTGlyph name="X" xMin="-8" yMin="0" xMax="725" yMax="740">
      <contour>
        <pt x="-8" y="0" on="1"/>
        <pt x="325" y="378" on="1"/>
        <pt x="160" y="740" on="1"/>
        <pt x="220" y="740" on="1"/>
        <pt x="367" y="414" on="1"/>
        <pt x="654" y="740" on="1"/>
        <pt x="725" y="740" on="1"/>
        <pt x="395" y="364" on="1"/>
        <pt x="559" y="0" on="1"/>
        <pt x="501" y="0" on="1"/>
        <pt x="353" y="329" on="1"/>
        <pt x="63" y="0" on="1"/>
      </contour>
    </TTGlyph>
    <TTGlyph name="Y" xMin="125" yMin="0" xMax="710" yMax="740">
      <contour>
        <pt x="232" y="0" on="1"/>
        <pt x="290" y="274" on="1"/>
        <pt x="125" y="740" on="1"/>
        <pt x="182" y="740" on="1"/>
        <pt x="326" y="331" on="1"/>
        <pt x="643" y="740" on="1"/>
        <pt x="710" y="740" on="1"/>
        <pt x="346" y="273" on="1"/>
        <pt x="288" y="0" on="1"/>
      </contour>
    </TTGlyph>
    <TTGlyph name="Yacute" xMin="113" yMin="0" xMax="698" yMax="987">
      <contour>
        <pt x="440" y="825" on="1"/>
        <pt x="394" y="826" on="1"/>
        <pt x="474" y="987" on="1"/>
        <pt x="530" y="987" on="1"/>
      </contour>
      <contour>
        <pt x="220" y="0" on="1"/>
        <pt x="278" y="274" on="1"/>
        <pt x="113" y="740" on="1"/>
        <pt x="170" y="740" on="1"/>
        <pt x="314" y="331" on="1"/>
        <pt x="631" y="740" on="1"/>
        <pt x="698" y="740" on="1"/>
        <pt x="334" y="273" on="1"/>
        <pt x="276" y="0" on="1"/>
      </contour>
    </TTGlyph>
    <TTGlyph name="Ycircumflex" xMin="113" yMin="0" xMax="698" yMax="974">
      <contour>
        <pt x="276" y="817" on="1"/>
        <pt x="424" y="974" on="1"/>
        <pt x="475" y="974" on="1"/>
        <pt x="557" y="817" on="1"/>
        <pt x="506" y="817" on="1"/>
        <pt x="446" y="937" on="1"/>
        <pt x="336" y="817" on="1"/>
      </contour>
      <contour>
        <pt x="220" y="0" on="1"/>
        <pt x="278" y="274" on="1"/>
        <pt x="113" y="740" on="1"/>
        <pt x="170" y="740" on="1"/>
        <pt x="314" y="331" on="1"/>
        <pt x="631" y="740" on="1"/>
        <pt x="698" y="740" on="1"/>
        <pt x="334" y="273" on="1"/>
        <pt x="276" y="0" on="1"/>
      </contour>
    </TTGlyph>
    <TTGlyph name="Ydieresis" xMin="113" yMin="0" xMax="698" yMax="922">
      <contour>
        <pt x="506" y="834" on="1"/>
        <pt x="487" y="834" on="0"/>
        <pt x="462" y="860" on="0"/>
        <pt x="462" y="878" on="1"/>
        <pt x="462" y="896" on="0"/>
        <pt x="487" y="922" on="0"/>
        <pt x="506" y="922" on="1"/>
        <pt x="525" y="922" on="0"/>
        <pt x="551" y="896" on="0"/>
        <pt x="551" y="878" on="1"/>
        <pt x="551" y="860" on="0"/>
        <pt x="525" y="834" on="0"/>
      </contour>
      <contour>
        <pt x="350" y="834" on="1"/>
        <pt x="331" y="834" on="0"/>
        <pt x="306" y="860" on="0"/>
        <pt x="306" y="878" on="1"/>
        <pt x="306" y="896" on="0"/>
        <pt x="331" y="922" on="0"/>
        <pt x="350" y="922" on="1"/>
        <pt x="369" y="922" on="0"/>
        <pt x="395" y="896" on="0"/>
        <pt x="395" y="878" on="1"/>
        <pt x="395" y="860" on="0"/>
        <pt x="369" y="834" on="0"/>
      </contour>
      <contour>
        <pt x="220" y="0" on="1"/>
        <pt x="278" y="274" on="1"/>
        <pt x="113" y="740" on="1"/>
        <pt x="170" y="740" on="1"/>
        <pt x="314" y="331" on="1"/>
        <pt x="631" y="740" on="1"/>
        <pt x="698" y="740" on="1"/>
        <pt x="334" y="273" on="1"/>
        <pt x="276" y="0" on="1"/>
      </contour>
    </TTGlyph>
    <TTGlyph name="Ygrave" xMin="113" yMin="0" xMax="698" yMax="987">
      <contour>
        <pt x="388" y="825" on="1"/>
        <pt x="321" y="987" on="1"/>
        <pt x="376" y="987" on="1"/>
        <pt x="433" y="826" on="1"/>
      </contour>
      <contour>
        <pt x="220" y="0" on="1"/>
        <pt x="278" y="274" on="1"/>
        <pt x="113" y="740" on="1"/>
        <pt x="170" y="740" on="1"/>
        <pt x="314" y="331" on="1"/>
        <pt x="631" y="740" on="1"/>
        <pt x="698" y="740" on="1"/>
        <pt x="334" y="273" on="1"/>
        <pt x="276" y="0" on="1"/>
      </contour>
    </TTGlyph>
    <TTGlyph name="Z" xMin="9" yMin="0" xMax="663" yMax="740">
      <contour>
        <pt x="9" y="0" on="1"/>
        <pt x="19" y="46" on="1"/>
        <pt x="579" y="689" on="1"/>
        <pt x="155" y="689" on="1"/>
        <pt x="166" y="740" on="1"/>
        <pt x="663" y="740" on="1"/>
        <pt x="653" y="694" on="1"/>
        <pt x="94" y="53" on="1"/>
        <pt x="518" y="53" on="1"/>
        <pt x="506" y="0" on="1"/>
      </contour>
    </TTGlyph>
    <TTGlyph name="Zacute" xMin="9" yMin="0" xMax="663" yMax="987">
      <contour>
        <pt x="453" y="825" on="1"/>
        <pt x="407" y="826" on="1"/>
        <pt x="487" y="987" on="1"/>
        <pt x="543" y="987" on="1"/>
      </contour>
      <contour>
        <pt x="9" y="0" on="1"/>
        <pt x="19" y="46" on="1"/>
        <pt x="579" y="689" on="1"/>
        <pt x="155" y="689" on="1"/>
        <pt x="166" y="740" on="1"/>
        <pt x="663" y="740" on="1"/>
        <pt x="653" y="694" on="1"/>
        <pt x="94" y="53" on="1"/>
        <pt x="518" y="53" on="1"/>
        <pt x="506" y="0" on="1"/>
      </contour>
    </TTGlyph>
    <TTGlyph name="Zcaron" xMin="9" yMin="0" xMax="663" yMax="974">
      <contour>
        <pt x="397" y="817" on="1"/>
        <pt x="316" y="974" on="1"/>
        <pt x="367" y="974" on="1"/>
        <pt x="427" y="854" on="1"/>
        <pt x="537" y="974" on="1"/>
        <pt x="596" y="974" on="1"/>
        <pt x="449" y="817" on="1"/>
      </contour>
      <contour>
        <pt x="9" y="0" on="1"/>
        <pt x="19" y="46" on="1"/>
        <pt x="579" y="689" on="1"/>
        <pt x="155" y="689" on="1"/>
        <pt x="166" y="740" on="1"/>
        <pt x="663" y="740" on="1"/>
        <pt x="653" y="694" on="1"/>
        <pt x="94" y="53" on="1"/>
        <pt x="518" y="53" on="1"/>
        <pt x="506" y="0" on="1"/>
      </contour>
    </TTGlyph>
    <TTGlyph name="Zdotaccent" xMin="9" yMin="0" xMax="663" yMax="927">
      <contour>
        <pt x="443" y="839" on="1"/>
        <pt x="424" y="839" on="0"/>
        <pt x="399" y="865" on="0"/>
        <pt x="399" y="883" on="1"/>
        <pt x="399" y="901" on="0"/>
        <pt x="424" y="927" on="0"/>
        <pt x="443" y="927" on="1"/>
        <pt x="461" y="927" on="0"/>
        <pt x="487" y="901" on="0"/>
        <pt x="487" y="883" on="1"/>
        <pt x="487" y="865" on="0"/>
        <pt x="461" y="839" on="0"/>
      </contour>
      <contour>
        <pt x="9" y="0" on="1"/>
        <pt x="19" y="46" on="1"/>
        <pt x="579" y="689" on="1"/>
        <pt x="155" y="689" on="1"/>
        <pt x="166" y="740" on="1"/>
        <pt x="663" y="740" on="1"/>
        <pt x="653" y="694" on="1"/>
        <pt x="94" y="53" on="1"/>
        <pt x="518" y="53" on="1"/>
        <pt x="506" y="0" on="1"/>
      </contour>
    </TTGlyph>
    <TTGlyph name="a" xMin="55" yMin="-10" xMax="594" yMax="540">
      <contour>
        <pt x="331" y="540" on="1"/>
        <pt x="382" y="540" on="0"/>
        <pt x="449" y="506" on="0"/>
        <pt x="489" y="460" on="0"/>
        <pt x="507" y="420" on="0"/>
        <pt x="509" y="415" on="1"/>
        <pt x="514" y="415" on="1"/>
        <pt x="538" y="530" on="1"/>
        <pt x="594" y="530" on="1"/>
        <pt x="480" y="0" on="1"/>
        <pt x="425" y="0" on="1"/>
        <pt x="445" y="92" on="1"/>
        <pt x="441" y="92" on="1"/>
        <pt x="441" y="92" on="0"/>
        <pt x="418" y="61" on="0"/>
        <pt x="372" y="21" on="0"/>
        <pt x="302" y="-10" on="0"/>
        <pt x="255" y="-10" on="1"/>
        <pt x="188" y="-10" on="0"/>
        <pt x="99" y="55" on="0"/>
        <pt x="55" y="159" on="0"/>
        <pt x="55" y="219" on="1"/>
        <pt x="55" y="276" on="0"/>
        <pt x="92" y="390" on="0"/>
        <pt x="163" y="483" on="0"/>
        <pt x="265" y="540" on="0"/>
      </contour>
      <contour>
        <pt x="332" y="490" on="1"/>
        <pt x="279" y="490" on="0"/>
        <pt x="197" y="442" on="0"/>
        <pt x="139" y="361" on="0"/>
        <pt x="109" y="265" on="0"/>
        <pt x="109" y="218" on="1"/>
        <pt x="109" y="171" on="0"/>
        <pt x="141" y="90" on="0"/>
        <pt x="209" y="40" on="0"/>
        <pt x="261" y="40" on="1"/>
        <pt x="314" y="40" on="0"/>
        <pt x="396" y="89" on="0"/>
        <pt x="454" y="169" on="0"/>
        <pt x="485" y="266" on="0"/>
        <pt x="485" y="313" on="1"/>
        <pt x="485" y="361" on="0"/>
        <pt x="453" y="441" on="0"/>
        <pt x="385" y="490" on="0"/>
      </contour>
    </TTGlyph>
    <TTGlyph name="a.ss01" xMin="31" yMin="-10" xMax="492" yMax="540">
      <contour>
        <pt x="365" y="85" on="1"/>
        <pt x="365" y="85" on="0"/>
        <pt x="344" y="57" on="0"/>
        <pt x="301" y="19" on="0"/>
        <pt x="235" y="-10" on="0"/>
        <pt x="190" y="-10" on="1"/>
        <pt x="119" y="-10" on="0"/>
        <pt x="31" y="71" on="0"/>
        <pt x="31" y="133" on="1"/>
        <pt x="31" y="197" on="0"/>
        <pt x="127" y="287" on="0"/>
        <pt x="221" y="291" on="1"/>
        <pt x="417" y="299" on="1"/>
        <pt x="426" y="338" on="1"/>
        <pt x="431" y="361" on="0"/>
        <pt x="428" y="414" on="0"/>
        <pt x="403" y="461" on="0"/>
        <pt x="349" y="491" on="0"/>
        <pt x="303" y="491" on="1"/>
        <pt x="251" y="491" on="0"/>
        <pt x="189" y="456" on="0"/>
        <pt x="158" y="410" on="0"/>
        <pt x="148" y="375" on="0"/>
        <pt x="148" y="375" on="1"/>
        <pt x="93" y="375" on="1"/>
        <pt x="93" y="375" on="0"/>
        <pt x="102" y="409" on="0"/>
        <pt x="128" y="458" on="0"/>
        <pt x="175" y="507" on="0"/>
        <pt x="249" y="540" on="0"/>
        <pt x="304" y="540" on="1"/>
        <pt x="368" y="540" on="0"/>
        <pt x="456" y="487" on="0"/>
        <pt x="492" y="393" on="0"/>
        <pt x="479" y="331" on="1"/>
        <pt x="409" y="0" on="1"/>
        <pt x="354" y="0" on="1"/>
        <pt x="373" y="85" on="1"/>
      </contour>
      <contour>
        <pt x="85" y="137" on="1"/>
        <pt x="85" y="88" on="0"/>
        <pt x="154" y="36" on="0"/>
        <pt x="202" y="36" on="1"/>
        <pt x="252" y="36" on="0"/>
        <pt x="334" y="88" on="0"/>
        <pt x="390" y="173" on="0"/>
        <pt x="401" y="222" on="1"/>
        <pt x="407" y="253" on="1"/>
        <pt x="224" y="246" on="1"/>
        <pt x="160" y="243" on="0"/>
        <pt x="85" y="187" on="0"/>
      </contour>
    </TTGlyph>
    <TTGlyph name="aacute" xMin="58" yMin="-10" xMax="597" yMax="777">
      <contour>
        <pt x="401" y="615" on="1"/>
        <pt x="355" y="616" on="1"/>
        <pt x="434" y="777" on="1"/>
        <pt x="491" y="777" on="1"/>
      </contour>
      <contour>
        <pt x="334" y="540" on="1"/>
        <pt x="385" y="540" on="0"/>
        <pt x="452" y="506" on="0"/>
        <pt x="492" y="460" on="0"/>
        <pt x="510" y="420" on="0"/>
        <pt x="512" y="415" on="1"/>
        <pt x="517" y="415" on="1"/>
        <pt x="542" y="530" on="1"/>
        <pt x="597" y="530" on="1"/>
        <pt x="484" y="0" on="1"/>
        <pt x="428" y="0" on="1"/>
        <pt x="448" y="92" on="1"/>
        <pt x="444" y="92" on="1"/>
        <pt x="444" y="92" on="0"/>
        <pt x="421" y="61" on="0"/>
        <pt x="375" y="21" on="0"/>
        <pt x="305" y="-10" on="0"/>
        <pt x="258" y="-10" on="1"/>
        <pt x="191" y="-10" on="0"/>
        <pt x="102" y="55" on="0"/>
        <pt x="58" y="159" on="0"/>
        <pt x="58" y="219" on="1"/>
        <pt x="58" y="276" on="0"/>
        <pt x="95" y="390" on="0"/>
        <pt x="166" y="483" on="0"/>
        <pt x="269" y="540" on="0"/>
      </contour>
      <contour>
        <pt x="336" y="490" on="1"/>
        <pt x="283" y="490" on="0"/>
        <pt x="200" y="442" on="0"/>
        <pt x="143" y="361" on="0"/>
        <pt x="113" y="265" on="0"/>
        <pt x="113" y="218" on="1"/>
        <pt x="113" y="171" on="0"/>
        <pt x="145" y="90" on="0"/>
        <pt x="212" y="40" on="0"/>
        <pt x="265" y="40" on="1"/>
        <pt x="317" y="40" on="0"/>
        <pt x="400" y="89" on="0"/>
        <pt x="458" y="169" on="0"/>
        <pt x="488" y="266" on="0"/>
        <pt x="488" y="313" on="1"/>
        <pt x="488" y="361" on="0"/>
        <pt x="456" y="441" on="0"/>
        <pt x="389" y="490" on="0"/>
      </contour>
    </TTGlyph>
    <TTGlyph name="aacute.ss01" xMin="30" yMin="-10" xMax="492" yMax="777">
      <contour>
        <pt x="361" y="615" on="1"/>
        <pt x="315" y="616" on="1"/>
        <pt x="395" y="777" on="1"/>
        <pt x="451" y="777" on="1"/>
      </contour>
      <contour>
        <pt x="364" y="85" on="1"/>
        <pt x="364" y="85" on="0"/>
        <pt x="343" y="57" on="0"/>
        <pt x="300" y="19" on="0"/>
        <pt x="234" y="-10" on="0"/>
        <pt x="189" y="-10" on="1"/>
        <pt x="118" y="-10" on="0"/>
        <pt x="30" y="71" on="0"/>
        <pt x="30" y="133" on="1"/>
        <pt x="30" y="197" on="0"/>
        <pt x="126" y="287" on="0"/>
        <pt x="221" y="291" on="1"/>
        <pt x="417" y="299" on="1"/>
        <pt x="425" y="338" on="1"/>
        <pt x="430" y="361" on="0"/>
        <pt x="428" y="414" on="0"/>
        <pt x="405" y="461" on="0"/>
        <pt x="351" y="491" on="0"/>
        <pt x="305" y="491" on="1"/>
        <pt x="254" y="491" on="0"/>
        <pt x="191" y="456" on="0"/>
        <pt x="159" y="410" on="0"/>
        <pt x="148" y="375" on="0"/>
        <pt x="148" y="375" on="1"/>
        <pt x="92" y="375" on="1"/>
        <pt x="92" y="375" on="0"/>
        <pt x="102" y="409" on="0"/>
        <pt x="129" y="458" on="0"/>
        <pt x="177" y="507" on="0"/>
        <pt x="252" y="540" on="0"/>
        <pt x="306" y="540" on="1"/>
        <pt x="370" y="540" on="0"/>
        <pt x="457" y="487" on="0"/>
        <pt x="492" y="393" on="0"/>
        <pt x="478" y="331" on="1"/>
        <pt x="408" y="0" on="1"/>
        <pt x="353" y="0" on="1"/>
        <pt x="372" y="85" on="1"/>
      </contour>
      <contour>
        <pt x="84" y="137" on="1"/>
        <pt x="84" y="88" on="0"/>
        <pt x="154" y="36" on="0"/>
        <pt x="201" y="36" on="1"/>
        <pt x="251" y="36" on="0"/>
        <pt x="334" y="88" on="0"/>
        <pt x="390" y="173" on="0"/>
        <pt x="400" y="222" on="1"/>
        <pt x="407" y="253" on="1"/>
        <pt x="223" y="246" on="1"/>
        <pt x="159" y="243" on="0"/>
        <pt x="84" y="187" on="0"/>
      </contour>
    </TTGlyph>
    <TTGlyph name="abreve" xMin="58" yMin="-10" xMax="597" yMax="748">
      <contour>
        <pt x="385" y="610" on="1"/>
        <pt x="343" y="610" on="0"/>
        <pt x="293" y="638" on="0"/>
        <pt x="269" y="679" on="0"/>
        <pt x="262" y="720" on="0"/>
        <pt x="263" y="748" on="0"/>
        <pt x="263" y="748" on="1"/>
        <pt x="308" y="748" on="1"/>
        <pt x="308" y="748" on="0"/>
        <pt x="306" y="719" on="0"/>
        <pt x="316" y="681" on="0"/>
        <pt x="349" y="652" on="0"/>
        <pt x="385" y="652" on="1"/>
        <pt x="421" y="652" on="0"/>
        <pt x="467" y="681" on="0"/>
        <pt x="493" y="719" on="0"/>
        <pt x="503" y="748" on="0"/>
        <pt x="503" y="748" on="1"/>
        <pt x="548" y="748" on="1"/>
        <pt x="548" y="748" on="0"/>
        <pt x="541" y="720" on="0"/>
        <pt x="522" y="679" on="0"/>
        <pt x="486" y="638" on="0"/>
        <pt x="428" y="610" on="0"/>
      </contour>
      <contour>
        <pt x="334" y="540" on="1"/>
        <pt x="385" y="540" on="0"/>
        <pt x="452" y="506" on="0"/>
        <pt x="492" y="460" on="0"/>
        <pt x="510" y="420" on="0"/>
        <pt x="512" y="415" on="1"/>
        <pt x="517" y="415" on="1"/>
        <pt x="542" y="530" on="1"/>
        <pt x="597" y="530" on="1"/>
        <pt x="484" y="0" on="1"/>
        <pt x="428" y="0" on="1"/>
        <pt x="448" y="92" on="1"/>
        <pt x="444" y="92" on="1"/>
        <pt x="444" y="92" on="0"/>
        <pt x="421" y="61" on="0"/>
        <pt x="375" y="21" on="0"/>
        <pt x="305" y="-10" on="0"/>
        <pt x="258" y="-10" on="1"/>
        <pt x="191" y="-10" on="0"/>
        <pt x="102" y="55" on="0"/>
        <pt x="58" y="159" on="0"/>
        <pt x="58" y="219" on="1"/>
        <pt x="58" y="276" on="0"/>
        <pt x="95" y="390" on="0"/>
        <pt x="166" y="483" on="0"/>
        <pt x="269" y="540" on="0"/>
      </contour>
      <contour>
        <pt x="336" y="490" on="1"/>
        <pt x="283" y="490" on="0"/>
        <pt x="200" y="442" on="0"/>
        <pt x="143" y="361" on="0"/>
        <pt x="113" y="265" on="0"/>
        <pt x="113" y="218" on="1"/>
        <pt x="113" y="171" on="0"/>
        <pt x="145" y="90" on="0"/>
        <pt x="212" y="40" on="0"/>
        <pt x="265" y="40" on="1"/>
        <pt x="317" y="40" on="0"/>
        <pt x="400" y="89" on="0"/>
        <pt x="458" y="169" on="0"/>
        <pt x="488" y="266" on="0"/>
        <pt x="488" y="313" on="1"/>
        <pt x="488" y="361" on="0"/>
        <pt x="456" y="441" on="0"/>
        <pt x="389" y="490" on="0"/>
      </contour>
    </TTGlyph>
    <TTGlyph name="abreve.ss01" xMin="30" yMin="-10" xMax="509" yMax="748">
      <contour>
        <pt x="346" y="610" on="1"/>
        <pt x="303" y="610" on="0"/>
        <pt x="253" y="638" on="0"/>
        <pt x="229" y="679" on="0"/>
        <pt x="222" y="720" on="0"/>
        <pt x="223" y="748" on="0"/>
        <pt x="223" y="748" on="1"/>
        <pt x="268" y="748" on="1"/>
        <pt x="268" y="748" on="0"/>
        <pt x="266" y="719" on="0"/>
        <pt x="276" y="681" on="0"/>
        <pt x="310" y="652" on="0"/>
        <pt x="346" y="652" on="1"/>
        <pt x="382" y="652" on="0"/>
        <pt x="428" y="681" on="0"/>
        <pt x="454" y="719" on="0"/>
        <pt x="464" y="748" on="0"/>
        <pt x="464" y="748" on="1"/>
        <pt x="509" y="748" on="1"/>
        <pt x="509" y="748" on="0"/>
        <pt x="502" y="720" on="0"/>
        <pt x="482" y="679" on="0"/>
        <pt x="446" y="638" on="0"/>
        <pt x="388" y="610" on="0"/>
      </contour>
      <contour>
        <pt x="364" y="85" on="1"/>
        <pt x="364" y="85" on="0"/>
        <pt x="343" y="57" on="0"/>
        <pt x="300" y="19" on="0"/>
        <pt x="234" y="-10" on="0"/>
        <pt x="189" y="-10" on="1"/>
        <pt x="118" y="-10" on="0"/>
        <pt x="30" y="71" on="0"/>
        <pt x="30" y="133" on="1"/>
        <pt x="30" y="197" on="0"/>
        <pt x="126" y="287" on="0"/>
        <pt x="221" y="291" on="1"/>
        <pt x="417" y="299" on="1"/>
        <pt x="425" y="338" on="1"/>
        <pt x="430" y="361" on="0"/>
        <pt x="428" y="414" on="0"/>
        <pt x="405" y="461" on="0"/>
        <pt x="351" y="491" on="0"/>
        <pt x="305" y="491" on="1"/>
        <pt x="254" y="491" on="0"/>
        <pt x="191" y="456" on="0"/>
        <pt x="159" y="410" on="0"/>
        <pt x="148" y="375" on="0"/>
        <pt x="148" y="375" on="1"/>
        <pt x="92" y="375" on="1"/>
        <pt x="92" y="375" on="0"/>
        <pt x="102" y="409" on="0"/>
        <pt x="129" y="458" on="0"/>
        <pt x="177" y="507" on="0"/>
        <pt x="252" y="540" on="0"/>
        <pt x="306" y="540" on="1"/>
        <pt x="370" y="540" on="0"/>
        <pt x="457" y="487" on="0"/>
        <pt x="492" y="393" on="0"/>
        <pt x="478" y="331" on="1"/>
        <pt x="408" y="0" on="1"/>
        <pt x="353" y="0" on="1"/>
        <pt x="372" y="85" on="1"/>
      </contour>
      <contour>
        <pt x="84" y="137" on="1"/>
        <pt x="84" y="88" on="0"/>
        <pt x="154" y="36" on="0"/>
        <pt x="201" y="36" on="1"/>
        <pt x="251" y="36" on="0"/>
        <pt x="334" y="88" on="0"/>
        <pt x="390" y="173" on="0"/>
        <pt x="400" y="222" on="1"/>
        <pt x="407" y="253" on="1"/>
        <pt x="223" y="246" on="1"/>
        <pt x="159" y="243" on="0"/>
        <pt x="84" y="187" on="0"/>
      </contour>
    </TTGlyph>
    <TTGlyph name="acircumflex" xMin="58" yMin="-10" xMax="597" yMax="764">
      <contour>
        <pt x="237" y="607" on="1"/>
        <pt x="384" y="764" on="1"/>
        <pt x="436" y="764" on="1"/>
        <pt x="517" y="607" on="1"/>
        <pt x="466" y="607" on="1"/>
        <pt x="406" y="727" on="1"/>
        <pt x="296" y="607" on="1"/>
      </contour>
      <contour>
        <pt x="334" y="540" on="1"/>
        <pt x="385" y="540" on="0"/>
        <pt x="452" y="506" on="0"/>
        <pt x="492" y="460" on="0"/>
        <pt x="510" y="420" on="0"/>
        <pt x="512" y="415" on="1"/>
        <pt x="517" y="415" on="1"/>
        <pt x="542" y="530" on="1"/>
        <pt x="597" y="530" on="1"/>
        <pt x="484" y="0" on="1"/>
        <pt x="428" y="0" on="1"/>
        <pt x="448" y="92" on="1"/>
        <pt x="444" y="92" on="1"/>
        <pt x="444" y="92" on="0"/>
        <pt x="421" y="61" on="0"/>
        <pt x="375" y="21" on="0"/>
        <pt x="305" y="-10" on="0"/>
        <pt x="258" y="-10" on="1"/>
        <pt x="191" y="-10" on="0"/>
        <pt x="102" y="55" on="0"/>
        <pt x="58" y="159" on="0"/>
        <pt x="58" y="219" on="1"/>
        <pt x="58" y="276" on="0"/>
        <pt x="95" y="390" on="0"/>
        <pt x="166" y="483" on="0"/>
        <pt x="269" y="540" on="0"/>
      </contour>
      <contour>
        <pt x="336" y="490" on="1"/>
        <pt x="283" y="490" on="0"/>
        <pt x="200" y="442" on="0"/>
        <pt x="143" y="361" on="0"/>
        <pt x="113" y="265" on="0"/>
        <pt x="113" y="218" on="1"/>
        <pt x="113" y="171" on="0"/>
        <pt x="145" y="90" on="0"/>
        <pt x="212" y="40" on="0"/>
        <pt x="265" y="40" on="1"/>
        <pt x="317" y="40" on="0"/>
        <pt x="400" y="89" on="0"/>
        <pt x="458" y="169" on="0"/>
        <pt x="488" y="266" on="0"/>
        <pt x="488" y="313" on="1"/>
        <pt x="488" y="361" on="0"/>
        <pt x="456" y="441" on="0"/>
        <pt x="389" y="490" on="0"/>
      </contour>
    </TTGlyph>
    <TTGlyph name="acircumflex.ss01" xMin="30" yMin="-10" xMax="492" yMax="764">
      <contour>
        <pt x="197" y="607" on="1"/>
        <pt x="344" y="764" on="1"/>
        <pt x="396" y="764" on="1"/>
        <pt x="477" y="607" on="1"/>
        <pt x="427" y="607" on="1"/>
        <pt x="366" y="727" on="1"/>
        <pt x="256" y="607" on="1"/>
      </contour>
      <contour>
        <pt x="364" y="85" on="1"/>
        <pt x="364" y="85" on="0"/>
        <pt x="343" y="57" on="0"/>
        <pt x="300" y="19" on="0"/>
        <pt x="234" y="-10" on="0"/>
        <pt x="189" y="-10" on="1"/>
        <pt x="118" y="-10" on="0"/>
        <pt x="30" y="71" on="0"/>
        <pt x="30" y="133" on="1"/>
        <pt x="30" y="197" on="0"/>
        <pt x="126" y="287" on="0"/>
        <pt x="221" y="291" on="1"/>
        <pt x="417" y="299" on="1"/>
        <pt x="425" y="338" on="1"/>
        <pt x="430" y="361" on="0"/>
        <pt x="428" y="414" on="0"/>
        <pt x="405" y="461" on="0"/>
        <pt x="351" y="491" on="0"/>
        <pt x="305" y="491" on="1"/>
        <pt x="254" y="491" on="0"/>
        <pt x="191" y="456" on="0"/>
        <pt x="159" y="410" on="0"/>
        <pt x="148" y="375" on="0"/>
        <pt x="148" y="375" on="1"/>
        <pt x="92" y="375" on="1"/>
        <pt x="92" y="375" on="0"/>
        <pt x="102" y="409" on="0"/>
        <pt x="129" y="458" on="0"/>
        <pt x="177" y="507" on="0"/>
        <pt x="252" y="540" on="0"/>
        <pt x="306" y="540" on="1"/>
        <pt x="370" y="540" on="0"/>
        <pt x="457" y="487" on="0"/>
        <pt x="492" y="393" on="0"/>
        <pt x="478" y="331" on="1"/>
        <pt x="408" y="0" on="1"/>
        <pt x="353" y="0" on="1"/>
        <pt x="372" y="85" on="1"/>
      </contour>
      <contour>
        <pt x="84" y="137" on="1"/>
        <pt x="84" y="88" on="0"/>
        <pt x="154" y="36" on="0"/>
        <pt x="201" y="36" on="1"/>
        <pt x="251" y="36" on="0"/>
        <pt x="334" y="88" on="0"/>
        <pt x="390" y="173" on="0"/>
        <pt x="400" y="222" on="1"/>
        <pt x="407" y="253" on="1"/>
        <pt x="223" y="246" on="1"/>
        <pt x="159" y="243" on="0"/>
        <pt x="84" y="187" on="0"/>
      </contour>
    </TTGlyph>
    <TTGlyph name="acute" xMin="110" yMin="615" xMax="246" yMax="777">
      <contour>
        <pt x="156" y="615" on="1"/>
        <pt x="110" y="616" on="1"/>
        <pt x="189" y="777" on="1"/>
        <pt x="246" y="777" on="1"/>
      </contour>
    </TTGlyph>
    <TTGlyph name="acutecomb" xMin="140" yMin="615" xMax="276" yMax="777">
      <contour>
        <pt x="186" y="615" on="1"/>
        <pt x="140" y="616" on="1"/>
        <pt x="219" y="777" on="1"/>
        <pt x="276" y="777" on="1"/>
      </contour>
    </TTGlyph>
    <TTGlyph name="adieresis" xMin="58" yMin="-10" xMax="597" yMax="713">
      <contour>
        <pt x="467" y="624" on="1"/>
        <pt x="448" y="624" on="0"/>
        <pt x="423" y="650" on="0"/>
        <pt x="423" y="668" on="1"/>
        <pt x="423" y="686" on="0"/>
        <pt x="448" y="713" on="0"/>
        <pt x="467" y="713" on="1"/>
        <pt x="485" y="713" on="0"/>
        <pt x="511" y="686" on="0"/>
        <pt x="511" y="668" on="1"/>
        <pt x="511" y="650" on="0"/>
        <pt x="485" y="624" on="0"/>
      </contour>
      <contour>
        <pt x="311" y="624" on="1"/>
        <pt x="292" y="624" on="0"/>
        <pt x="267" y="650" on="0"/>
        <pt x="267" y="668" on="1"/>
        <pt x="267" y="686" on="0"/>
        <pt x="292" y="713" on="0"/>
        <pt x="311" y="713" on="1"/>
        <pt x="329" y="713" on="0"/>
        <pt x="355" y="686" on="0"/>
        <pt x="355" y="668" on="1"/>
        <pt x="355" y="650" on="0"/>
        <pt x="329" y="624" on="0"/>
      </contour>
      <contour>
        <pt x="334" y="540" on="1"/>
        <pt x="385" y="540" on="0"/>
        <pt x="452" y="506" on="0"/>
        <pt x="492" y="460" on="0"/>
        <pt x="510" y="420" on="0"/>
        <pt x="512" y="415" on="1"/>
        <pt x="517" y="415" on="1"/>
        <pt x="542" y="530" on="1"/>
        <pt x="597" y="530" on="1"/>
        <pt x="484" y="0" on="1"/>
        <pt x="428" y="0" on="1"/>
        <pt x="448" y="92" on="1"/>
        <pt x="444" y="92" on="1"/>
        <pt x="444" y="92" on="0"/>
        <pt x="421" y="61" on="0"/>
        <pt x="375" y="21" on="0"/>
        <pt x="305" y="-10" on="0"/>
        <pt x="258" y="-10" on="1"/>
        <pt x="191" y="-10" on="0"/>
        <pt x="102" y="55" on="0"/>
        <pt x="58" y="159" on="0"/>
        <pt x="58" y="219" on="1"/>
        <pt x="58" y="276" on="0"/>
        <pt x="95" y="390" on="0"/>
        <pt x="166" y="483" on="0"/>
        <pt x="269" y="540" on="0"/>
      </contour>
      <contour>
        <pt x="336" y="490" on="1"/>
        <pt x="283" y="490" on="0"/>
        <pt x="200" y="442" on="0"/>
        <pt x="143" y="361" on="0"/>
        <pt x="113" y="265" on="0"/>
        <pt x="113" y="218" on="1"/>
        <pt x="113" y="171" on="0"/>
        <pt x="145" y="90" on="0"/>
        <pt x="212" y="40" on="0"/>
        <pt x="265" y="40" on="1"/>
        <pt x="317" y="40" on="0"/>
        <pt x="400" y="89" on="0"/>
        <pt x="458" y="169" on="0"/>
        <pt x="488" y="266" on="0"/>
        <pt x="488" y="313" on="1"/>
        <pt x="488" y="361" on="0"/>
        <pt x="456" y="441" on="0"/>
        <pt x="389" y="490" on="0"/>
      </contour>
    </TTGlyph>
    <TTGlyph name="adieresis.ss01" xMin="30" yMin="-10" xMax="492" yMax="712">
      <contour>
        <pt x="427" y="624" on="1"/>
        <pt x="408" y="624" on="0"/>
        <pt x="383" y="650" on="0"/>
        <pt x="383" y="668" on="1"/>
        <pt x="383" y="686" on="0"/>
        <pt x="408" y="712" on="0"/>
        <pt x="427" y="712" on="1"/>
        <pt x="445" y="712" on="0"/>
        <pt x="471" y="686" on="0"/>
        <pt x="471" y="668" on="1"/>
        <pt x="471" y="650" on="0"/>
        <pt x="445" y="624" on="0"/>
      </contour>
      <contour>
        <pt x="271" y="624" on="1"/>
        <pt x="252" y="624" on="0"/>
        <pt x="227" y="650" on="0"/>
        <pt x="227" y="668" on="1"/>
        <pt x="227" y="686" on="0"/>
        <pt x="252" y="712" on="0"/>
        <pt x="271" y="712" on="1"/>
        <pt x="289" y="712" on="0"/>
        <pt x="315" y="686" on="0"/>
        <pt x="315" y="668" on="1"/>
        <pt x="315" y="650" on="0"/>
        <pt x="289" y="624" on="0"/>
      </contour>
      <contour>
        <pt x="364" y="85" on="1"/>
        <pt x="364" y="85" on="0"/>
        <pt x="343" y="57" on="0"/>
        <pt x="300" y="19" on="0"/>
        <pt x="234" y="-10" on="0"/>
        <pt x="189" y="-10" on="1"/>
        <pt x="118" y="-10" on="0"/>
        <pt x="30" y="71" on="0"/>
        <pt x="30" y="133" on="1"/>
        <pt x="30" y="197" on="0"/>
        <pt x="126" y="287" on="0"/>
        <pt x="221" y="291" on="1"/>
        <pt x="417" y="299" on="1"/>
        <pt x="425" y="338" on="1"/>
        <pt x="430" y="361" on="0"/>
        <pt x="428" y="414" on="0"/>
        <pt x="405" y="461" on="0"/>
        <pt x="351" y="491" on="0"/>
        <pt x="305" y="491" on="1"/>
        <pt x="254" y="491" on="0"/>
        <pt x="191" y="456" on="0"/>
        <pt x="159" y="410" on="0"/>
        <pt x="148" y="375" on="0"/>
        <pt x="148" y="375" on="1"/>
        <pt x="92" y="375" on="1"/>
        <pt x="92" y="375" on="0"/>
        <pt x="102" y="409" on="0"/>
        <pt x="129" y="458" on="0"/>
        <pt x="177" y="507" on="0"/>
        <pt x="252" y="540" on="0"/>
        <pt x="306" y="540" on="1"/>
        <pt x="370" y="540" on="0"/>
        <pt x="457" y="487" on="0"/>
        <pt x="492" y="393" on="0"/>
        <pt x="478" y="331" on="1"/>
        <pt x="408" y="0" on="1"/>
        <pt x="353" y="0" on="1"/>
        <pt x="372" y="85" on="1"/>
      </contour>
      <contour>
        <pt x="84" y="137" on="1"/>
        <pt x="84" y="88" on="0"/>
        <pt x="154" y="36" on="0"/>
        <pt x="201" y="36" on="1"/>
        <pt x="251" y="36" on="0"/>
        <pt x="334" y="88" on="0"/>
        <pt x="390" y="173" on="0"/>
        <pt x="400" y="222" on="1"/>
        <pt x="407" y="253" on="1"/>
        <pt x="223" y="246" on="1"/>
        <pt x="159" y="243" on="0"/>
        <pt x="84" y="187" on="0"/>
      </contour>
    </TTGlyph>
    <TTGlyph name="ae" xMin="31" yMin="-10" xMax="889" yMax="540">
      <contour>
        <pt x="193" y="-10" on="1"/>
        <pt x="119" y="-10" on="0"/>
        <pt x="31" y="71" on="0"/>
        <pt x="31" y="134" on="1"/>
        <pt x="31" y="197" on="0"/>
        <pt x="127" y="287" on="0"/>
        <pt x="221" y="291" on="1"/>
        <pt x="418" y="299" on="1"/>
        <pt x="426" y="338" on="1"/>
        <pt x="431" y="362" on="0"/>
        <pt x="428" y="415" on="0"/>
        <pt x="404" y="462" on="0"/>
        <pt x="351" y="491" on="0"/>
        <pt x="306" y="491" on="1"/>
        <pt x="254" y="491" on="0"/>
        <pt x="192" y="456" on="0"/>
        <pt x="159" y="410" on="0"/>
        <pt x="148" y="375" on="0"/>
        <pt x="148" y="375" on="1"/>
        <pt x="93" y="375" on="1"/>
        <pt x="93" y="375" on="0"/>
        <pt x="103" y="409" on="0"/>
        <pt x="129" y="458" on="0"/>
        <pt x="177" y="507" on="0"/>
        <pt x="253" y="540" on="0"/>
        <pt x="307" y="540" on="1"/>
        <pt x="374" y="540" on="0"/>
        <pt x="462" y="479" on="0"/>
        <pt x="474" y="420" on="1"/>
        <pt x="477" y="420" on="1"/>
        <pt x="513" y="474" on="0"/>
        <pt x="623" y="540" on="0"/>
        <pt x="691" y="540" on="1"/>
        <pt x="754" y="540" on="0"/>
        <pt x="837" y="493" on="0"/>
        <pt x="880" y="413" on="0"/>
        <pt x="889" y="315" on="0"/>
        <pt x="878" y="264" on="1"/>
        <pt x="875" y="252" on="1"/>
        <pt x="464" y="252" on="1"/>
        <pt x="458" y="196" on="0"/>
        <pt x="487" y="99" on="0"/>
        <pt x="561" y="40" on="0"/>
        <pt x="621" y="40" on="1"/>
        <pt x="671" y="40" on="0"/>
        <pt x="739" y="74" on="0"/>
        <pt x="780" y="119" on="0"/>
        <pt x="798" y="154" on="0"/>
        <pt x="798" y="154" on="1"/>
        <pt x="851" y="154" on="1"/>
        <pt x="851" y="154" on="0"/>
        <pt x="837" y="121" on="0"/>
        <pt x="804" y="72" on="0"/>
        <pt x="750" y="23" on="0"/>
        <pt x="671" y="-10" on="0"/>
        <pt x="617" y="-10" on="1"/>
        <pt x="532" y="-10" on="0"/>
        <pt x="434" y="80" on="0"/>
        <pt x="418" y="145" on="1"/>
        <pt x="415" y="145" on="1"/>
        <pt x="415" y="145" on="0"/>
        <pt x="400" y="114" on="0"/>
        <pt x="368" y="68" on="0"/>
        <pt x="316" y="21" on="0"/>
        <pt x="243" y="-10" on="0"/>
      </contour>
      <contour>
        <pt x="473" y="298" on="1"/>
        <pt x="830" y="298" on="1"/>
        <pt x="838" y="348" on="0"/>
        <pt x="817" y="435" on="0"/>
        <pt x="750" y="490" on="0"/>
        <pt x="688" y="490" on="1"/>
        <pt x="633" y="490" on="0"/>
        <pt x="547" y="438" on="0"/>
        <pt x="487" y="350" on="0"/>
      </contour>
      <contour>
        <pt x="202" y="36" on="1"/>
        <pt x="253" y="36" on="0"/>
        <pt x="335" y="89" on="0"/>
        <pt x="391" y="173" on="0"/>
        <pt x="401" y="222" on="1"/>
        <pt x="407" y="253" on="1"/>
        <pt x="224" y="246" on="1"/>
        <pt x="160" y="243" on="0"/>
        <pt x="85" y="187" on="0"/>
        <pt x="85" y="137" on="1"/>
        <pt x="85" y="88" on="0"/>
        <pt x="154" y="36" on="0"/>
      </contour>
    </TTGlyph>
    <TTGlyph name="agrave" xMin="58" yMin="-10" xMax="597" yMax="777">
      <contour>
        <pt x="349" y="615" on="1"/>
        <pt x="281" y="777" on="1"/>
        <pt x="336" y="777" on="1"/>
        <pt x="393" y="616" on="1"/>
      </contour>
      <contour>
        <pt x="334" y="540" on="1"/>
        <pt x="385" y="540" on="0"/>
        <pt x="452" y="506" on="0"/>
        <pt x="492" y="460" on="0"/>
        <pt x="510" y="420" on="0"/>
        <pt x="512" y="415" on="1"/>
        <pt x="517" y="415" on="1"/>
        <pt x="542" y="530" on="1"/>
        <pt x="597" y="530" on="1"/>
        <pt x="484" y="0" on="1"/>
        <pt x="428" y="0" on="1"/>
        <pt x="448" y="92" on="1"/>
        <pt x="444" y="92" on="1"/>
        <pt x="444" y="92" on="0"/>
        <pt x="421" y="61" on="0"/>
        <pt x="375" y="21" on="0"/>
        <pt x="305" y="-10" on="0"/>
        <pt x="258" y="-10" on="1"/>
        <pt x="191" y="-10" on="0"/>
        <pt x="102" y="55" on="0"/>
        <pt x="58" y="159" on="0"/>
        <pt x="58" y="219" on="1"/>
        <pt x="58" y="276" on="0"/>
        <pt x="95" y="390" on="0"/>
        <pt x="166" y="483" on="0"/>
        <pt x="269" y="540" on="0"/>
      </contour>
      <contour>
        <pt x="336" y="490" on="1"/>
        <pt x="283" y="490" on="0"/>
        <pt x="200" y="442" on="0"/>
        <pt x="143" y="361" on="0"/>
        <pt x="113" y="265" on="0"/>
        <pt x="113" y="218" on="1"/>
        <pt x="113" y="171" on="0"/>
        <pt x="145" y="90" on="0"/>
        <pt x="212" y="40" on="0"/>
        <pt x="265" y="40" on="1"/>
        <pt x="317" y="40" on="0"/>
        <pt x="400" y="89" on="0"/>
        <pt x="458" y="169" on="0"/>
        <pt x="488" y="266" on="0"/>
        <pt x="488" y="313" on="1"/>
        <pt x="488" y="361" on="0"/>
        <pt x="456" y="441" on="0"/>
        <pt x="389" y="490" on="0"/>
      </contour>
    </TTGlyph>
    <TTGlyph name="agrave.ss01" xMin="30" yMin="-10" xMax="492" yMax="777">
      <contour>
        <pt x="309" y="615" on="1"/>
        <pt x="241" y="777" on="1"/>
        <pt x="296" y="777" on="1"/>
        <pt x="354" y="616" on="1"/>
      </contour>
      <contour>
        <pt x="364" y="85" on="1"/>
        <pt x="364" y="85" on="0"/>
        <pt x="343" y="57" on="0"/>
        <pt x="300" y="19" on="0"/>
        <pt x="234" y="-10" on="0"/>
        <pt x="189" y="-10" on="1"/>
        <pt x="118" y="-10" on="0"/>
        <pt x="30" y="71" on="0"/>
        <pt x="30" y="133" on="1"/>
        <pt x="30" y="197" on="0"/>
        <pt x="126" y="287" on="0"/>
        <pt x="221" y="291" on="1"/>
        <pt x="417" y="299" on="1"/>
        <pt x="425" y="338" on="1"/>
        <pt x="430" y="361" on="0"/>
        <pt x="428" y="414" on="0"/>
        <pt x="405" y="461" on="0"/>
        <pt x="351" y="491" on="0"/>
        <pt x="305" y="491" on="1"/>
        <pt x="254" y="491" on="0"/>
        <pt x="191" y="456" on="0"/>
        <pt x="159" y="410" on="0"/>
        <pt x="148" y="375" on="0"/>
        <pt x="148" y="375" on="1"/>
        <pt x="92" y="375" on="1"/>
        <pt x="92" y="375" on="0"/>
        <pt x="102" y="409" on="0"/>
        <pt x="129" y="458" on="0"/>
        <pt x="177" y="507" on="0"/>
        <pt x="252" y="540" on="0"/>
        <pt x="306" y="540" on="1"/>
        <pt x="370" y="540" on="0"/>
        <pt x="457" y="487" on="0"/>
        <pt x="492" y="393" on="0"/>
        <pt x="478" y="331" on="1"/>
        <pt x="408" y="0" on="1"/>
        <pt x="353" y="0" on="1"/>
        <pt x="372" y="85" on="1"/>
      </contour>
      <contour>
        <pt x="84" y="137" on="1"/>
        <pt x="84" y="88" on="0"/>
        <pt x="154" y="36" on="0"/>
        <pt x="201" y="36" on="1"/>
        <pt x="251" y="36" on="0"/>
        <pt x="334" y="88" on="0"/>
        <pt x="390" y="173" on="0"/>
        <pt x="400" y="222" on="1"/>
        <pt x="407" y="253" on="1"/>
        <pt x="223" y="246" on="1"/>
        <pt x="159" y="243" on="0"/>
        <pt x="84" y="187" on="0"/>
      </contour>
    </TTGlyph>
    <TTGlyph name="amacron" xMin="58" yMin="-10" xMax="597" yMax="680">
      <contour>
        <pt x="238" y="636" on="1"/>
        <pt x="247" y="680" on="1"/>
        <pt x="535" y="680" on="1"/>
        <pt x="526" y="636" on="1"/>
      </contour>
      <contour>
        <pt x="334" y="540" on="1"/>
        <pt x="385" y="540" on="0"/>
        <pt x="452" y="506" on="0"/>
        <pt x="492" y="460" on="0"/>
        <pt x="510" y="420" on="0"/>
        <pt x="512" y="415" on="1"/>
        <pt x="517" y="415" on="1"/>
        <pt x="542" y="530" on="1"/>
        <pt x="597" y="530" on="1"/>
        <pt x="484" y="0" on="1"/>
        <pt x="428" y="0" on="1"/>
        <pt x="448" y="92" on="1"/>
        <pt x="444" y="92" on="1"/>
        <pt x="444" y="92" on="0"/>
        <pt x="421" y="61" on="0"/>
        <pt x="375" y="21" on="0"/>
        <pt x="305" y="-10" on="0"/>
        <pt x="258" y="-10" on="1"/>
        <pt x="191" y="-10" on="0"/>
        <pt x="102" y="55" on="0"/>
        <pt x="58" y="159" on="0"/>
        <pt x="58" y="219" on="1"/>
        <pt x="58" y="276" on="0"/>
        <pt x="95" y="390" on="0"/>
        <pt x="166" y="483" on="0"/>
        <pt x="269" y="540" on="0"/>
      </contour>
      <contour>
        <pt x="336" y="490" on="1"/>
        <pt x="283" y="490" on="0"/>
        <pt x="200" y="442" on="0"/>
        <pt x="143" y="361" on="0"/>
        <pt x="113" y="265" on="0"/>
        <pt x="113" y="218" on="1"/>
        <pt x="113" y="171" on="0"/>
        <pt x="145" y="90" on="0"/>
        <pt x="212" y="40" on="0"/>
        <pt x="265" y="40" on="1"/>
        <pt x="317" y="40" on="0"/>
        <pt x="400" y="89" on="0"/>
        <pt x="458" y="169" on="0"/>
        <pt x="488" y="266" on="0"/>
        <pt x="488" y="313" on="1"/>
        <pt x="488" y="361" on="0"/>
        <pt x="456" y="441" on="0"/>
        <pt x="389" y="490" on="0"/>
      </contour>
    </TTGlyph>
    <TTGlyph name="amacron.ss01" xMin="30" yMin="-10" xMax="496" yMax="680">
      <contour>
        <pt x="198" y="636" on="1"/>
        <pt x="208" y="680" on="1"/>
        <pt x="496" y="680" on="1"/>
        <pt x="486" y="636" on="1"/>
      </contour>
      <contour>
        <pt x="364" y="85" on="1"/>
        <pt x="364" y="85" on="0"/>
        <pt x="343" y="57" on="0"/>
        <pt x="300" y="19" on="0"/>
        <pt x="234" y="-10" on="0"/>
        <pt x="189" y="-10" on="1"/>
        <pt x="118" y="-10" on="0"/>
        <pt x="30" y="71" on="0"/>
        <pt x="30" y="133" on="1"/>
        <pt x="30" y="197" on="0"/>
        <pt x="126" y="287" on="0"/>
        <pt x="221" y="291" on="1"/>
        <pt x="417" y="299" on="1"/>
        <pt x="425" y="338" on="1"/>
        <pt x="430" y="361" on="0"/>
        <pt x="428" y="414" on="0"/>
        <pt x="405" y="461" on="0"/>
        <pt x="351" y="491" on="0"/>
        <pt x="305" y="491" on="1"/>
        <pt x="254" y="491" on="0"/>
        <pt x="191" y="456" on="0"/>
        <pt x="159" y="410" on="0"/>
        <pt x="148" y="375" on="0"/>
        <pt x="148" y="375" on="1"/>
        <pt x="92" y="375" on="1"/>
        <pt x="92" y="375" on="0"/>
        <pt x="102" y="409" on="0"/>
        <pt x="129" y="458" on="0"/>
        <pt x="177" y="507" on="0"/>
        <pt x="252" y="540" on="0"/>
        <pt x="306" y="540" on="1"/>
        <pt x="370" y="540" on="0"/>
        <pt x="457" y="487" on="0"/>
        <pt x="492" y="393" on="0"/>
        <pt x="478" y="331" on="1"/>
        <pt x="408" y="0" on="1"/>
        <pt x="353" y="0" on="1"/>
        <pt x="372" y="85" on="1"/>
      </contour>
      <contour>
        <pt x="84" y="137" on="1"/>
        <pt x="84" y="88" on="0"/>
        <pt x="154" y="36" on="0"/>
        <pt x="201" y="36" on="1"/>
        <pt x="251" y="36" on="0"/>
        <pt x="334" y="88" on="0"/>
        <pt x="390" y="173" on="0"/>
        <pt x="400" y="222" on="1"/>
        <pt x="407" y="253" on="1"/>
        <pt x="223" y="246" on="1"/>
        <pt x="159" y="243" on="0"/>
        <pt x="84" y="187" on="0"/>
      </contour>
    </TTGlyph>
    <TTGlyph name="ampersand" xMin="15" yMin="-10" xMax="597" yMax="751">
      <contour>
        <pt x="239" y="-10" on="1"/>
        <pt x="171" y="-10" on="0"/>
        <pt x="71" y="42" on="0"/>
        <pt x="15" y="131" on="0"/>
        <pt x="15" y="187" on="1"/>
        <pt x="15" y="251" on="0"/>
        <pt x="79" y="341" on="0"/>
        <pt x="177" y="402" on="0"/>
        <pt x="229" y="422" on="1"/>
        <pt x="203" y="465" on="0"/>
        <pt x="174" y="541" on="0"/>
        <pt x="174" y="581" on="1"/>
        <pt x="174" y="638" on="0"/>
        <pt x="222" y="713" on="0"/>
        <pt x="298" y="751" on="0"/>
        <pt x="339" y="751" on="1"/>
        <pt x="379" y="751" on="0"/>
        <pt x="452" y="717" on="0"/>
        <pt x="497" y="652" on="0"/>
        <pt x="497" y="604" on="1"/>
        <pt x="497" y="562" on="0"/>
        <pt x="461" y="498" on="0"/>
        <pt x="403" y="450" on="0"/>
        <pt x="335" y="416" on="0"/>
        <pt x="304" y="404" on="1"/>
        <pt x="301" y="403" on="1"/>
        <pt x="307" y="394" on="0"/>
        <pt x="319" y="376" on="0"/>
        <pt x="326" y="367" on="1"/>
        <pt x="461" y="170" on="1"/>
        <pt x="491" y="217" on="0"/>
        <pt x="535" y="347" on="0"/>
        <pt x="547" y="430" on="1"/>
        <pt x="597" y="430" on="1"/>
        <pt x="583" y="331" on="0"/>
        <pt x="528" y="181" on="0"/>
        <pt x="491" y="128" on="1"/>
        <pt x="579" y="0" on="1"/>
        <pt x="515" y="0" on="1"/>
        <pt x="456" y="86" on="1"/>
        <pt x="410" y="36" on="0"/>
        <pt x="299" y="-10" on="0"/>
      </contour>
      <contour>
        <pt x="224" y="582" on="1"/>
        <pt x="224" y="548" on="0"/>
        <pt x="252" y="480" on="0"/>
        <pt x="277" y="440" on="1"/>
        <pt x="289" y="445" on="1"/>
        <pt x="308" y="452" on="0"/>
        <pt x="362" y="476" on="0"/>
        <pt x="414" y="514" on="0"/>
        <pt x="448" y="567" on="0"/>
        <pt x="448" y="603" on="1"/>
        <pt x="448" y="653" on="0"/>
        <pt x="381" y="705" on="0"/>
        <pt x="340" y="705" on="1"/>
        <pt x="311" y="705" on="0"/>
        <pt x="258" y="678" on="0"/>
        <pt x="224" y="624" on="0"/>
      </contour>
      <contour>
        <pt x="69" y="191" on="1"/>
        <pt x="69" y="125" on="0"/>
        <pt x="164" y="38" on="0"/>
        <pt x="243" y="38" on="1"/>
        <pt x="296" y="38" on="0"/>
        <pt x="390" y="82" on="0"/>
        <pt x="429" y="126" on="1"/>
        <pt x="292" y="328" on="1"/>
        <pt x="281" y="343" on="0"/>
        <pt x="262" y="371" on="0"/>
        <pt x="253" y="385" on="1"/>
        <pt x="223" y="374" on="0"/>
        <pt x="158" y="342" on="0"/>
        <pt x="103" y="296" on="0"/>
        <pt x="69" y="234" on="0"/>
      </contour>
    </TTGlyph>
    <TTGlyph name="aogonek" xMin="58" yMin="-155" xMax="597" yMax="540">
      <contour>
        <pt x="451" y="-155" on="1"/>
        <pt x="411" y="-155" on="0"/>
        <pt x="365" y="-118" on="0"/>
        <pt x="365" y="-86" on="1"/>
        <pt x="365" y="-52" on="0"/>
        <pt x="408" y="-10" on="0"/>
        <pt x="429" y="1" on="1"/>
        <pt x="448" y="92" on="1"/>
        <pt x="444" y="92" on="1"/>
        <pt x="444" y="92" on="0"/>
        <pt x="421" y="61" on="0"/>
        <pt x="375" y="21" on="0"/>
        <pt x="305" y="-10" on="0"/>
        <pt x="258" y="-10" on="1"/>
        <pt x="191" y="-10" on="0"/>
        <pt x="102" y="55" on="0"/>
        <pt x="58" y="159" on="0"/>
        <pt x="58" y="219" on="1"/>
        <pt x="58" y="276" on="0"/>
        <pt x="95" y="390" on="0"/>
        <pt x="166" y="483" on="0"/>
        <pt x="269" y="540" on="0"/>
        <pt x="334" y="540" on="1"/>
        <pt x="385" y="540" on="0"/>
        <pt x="452" y="506" on="0"/>
        <pt x="492" y="460" on="0"/>
        <pt x="510" y="420" on="0"/>
        <pt x="512" y="415" on="1"/>
        <pt x="517" y="415" on="1"/>
        <pt x="542" y="530" on="1"/>
        <pt x="597" y="530" on="1"/>
        <pt x="484" y="0" on="1"/>
        <pt x="484" y="0" on="0"/>
        <pt x="462" y="-10" on="0"/>
        <pt x="432" y="-29" on="0"/>
        <pt x="410" y="-58" on="0"/>
        <pt x="410" y="-77" on="1"/>
        <pt x="410" y="-116" on="0"/>
        <pt x="462" y="-116" on="1"/>
        <pt x="477" y="-116" on="0"/>
        <pt x="502" y="-111" on="0"/>
        <pt x="502" y="-111" on="1"/>
        <pt x="494" y="-149" on="1"/>
        <pt x="494" y="-149" on="0"/>
        <pt x="470" y="-155" on="0"/>
      </contour>
      <contour>
        <pt x="336" y="490" on="1"/>
        <pt x="283" y="490" on="0"/>
        <pt x="200" y="442" on="0"/>
        <pt x="143" y="361" on="0"/>
        <pt x="113" y="265" on="0"/>
        <pt x="113" y="218" on="1"/>
        <pt x="113" y="171" on="0"/>
        <pt x="145" y="90" on="0"/>
        <pt x="212" y="40" on="0"/>
        <pt x="265" y="40" on="1"/>
        <pt x="317" y="40" on="0"/>
        <pt x="400" y="89" on="0"/>
        <pt x="458" y="169" on="0"/>
        <pt x="488" y="266" on="0"/>
        <pt x="488" y="313" on="1"/>
        <pt x="488" y="361" on="0"/>
        <pt x="456" y="441" on="0"/>
        <pt x="389" y="490" on="0"/>
      </contour>
    </TTGlyph>
    <TTGlyph name="aogonek.ss01" xMin="30" yMin="-155" xMax="492" yMax="540">
      <contour>
        <pt x="376" y="-155" on="1"/>
        <pt x="335" y="-155" on="0"/>
        <pt x="289" y="-118" on="0"/>
        <pt x="289" y="-86" on="1"/>
        <pt x="289" y="-52" on="0"/>
        <pt x="333" y="-10" on="0"/>
        <pt x="354" y="1" on="1"/>
        <pt x="372" y="85" on="1"/>
        <pt x="364" y="85" on="1"/>
        <pt x="364" y="85" on="0"/>
        <pt x="343" y="57" on="0"/>
        <pt x="300" y="19" on="0"/>
        <pt x="234" y="-10" on="0"/>
        <pt x="189" y="-10" on="1"/>
        <pt x="118" y="-10" on="0"/>
        <pt x="30" y="71" on="0"/>
        <pt x="30" y="133" on="1"/>
        <pt x="30" y="197" on="0"/>
        <pt x="126" y="287" on="0"/>
        <pt x="221" y="291" on="1"/>
        <pt x="417" y="299" on="1"/>
        <pt x="425" y="338" on="1"/>
        <pt x="430" y="361" on="0"/>
        <pt x="428" y="414" on="0"/>
        <pt x="405" y="461" on="0"/>
        <pt x="351" y="491" on="0"/>
        <pt x="305" y="491" on="1"/>
        <pt x="254" y="491" on="0"/>
        <pt x="191" y="456" on="0"/>
        <pt x="159" y="410" on="0"/>
        <pt x="148" y="375" on="0"/>
        <pt x="148" y="375" on="1"/>
        <pt x="92" y="375" on="1"/>
        <pt x="92" y="375" on="0"/>
        <pt x="102" y="409" on="0"/>
        <pt x="129" y="458" on="0"/>
        <pt x="177" y="507" on="0"/>
        <pt x="252" y="540" on="0"/>
        <pt x="306" y="540" on="1"/>
        <pt x="370" y="540" on="0"/>
        <pt x="457" y="487" on="0"/>
        <pt x="492" y="393" on="0"/>
        <pt x="478" y="331" on="1"/>
        <pt x="408" y="0" on="1"/>
        <pt x="408" y="0" on="0"/>
        <pt x="386" y="-10" on="0"/>
        <pt x="357" y="-29" on="0"/>
        <pt x="335" y="-58" on="0"/>
        <pt x="335" y="-77" on="1"/>
        <pt x="335" y="-116" on="0"/>
        <pt x="387" y="-116" on="1"/>
        <pt x="401" y="-116" on="0"/>
        <pt x="427" y="-111" on="0"/>
        <pt x="427" y="-111" on="1"/>
        <pt x="419" y="-149" on="1"/>
        <pt x="419" y="-149" on="0"/>
        <pt x="395" y="-155" on="0"/>
      </contour>
      <contour>
        <pt x="84" y="137" on="1"/>
        <pt x="84" y="88" on="0"/>
        <pt x="154" y="36" on="0"/>
        <pt x="201" y="36" on="1"/>
        <pt x="251" y="36" on="0"/>
        <pt x="334" y="88" on="0"/>
        <pt x="390" y="173" on="0"/>
        <pt x="400" y="222" on="1"/>
        <pt x="407" y="253" on="1"/>
        <pt x="223" y="246" on="1"/>
        <pt x="159" y="243" on="0"/>
        <pt x="84" y="187" on="0"/>
      </contour>
    </TTGlyph>
    <TTGlyph name="approxequal" xMin="124" yMin="164" xMax="411" yMax="481">
      <contour>
        <pt x="323" y="364" on="1"/>
        <pt x="300" y="364" on="0"/>
        <pt x="270" y="388" on="0"/>
        <pt x="249" y="419" on="0"/>
        <pt x="227" y="442" on="0"/>
        <pt x="212" y="442" on="1"/>
        <pt x="193" y="442" on="0"/>
        <pt x="169" y="402" on="0"/>
        <pt x="164" y="369" on="1"/>
        <pt x="124" y="369" on="1"/>
        <pt x="133" y="417" on="0"/>
        <pt x="175" y="481" on="0"/>
        <pt x="214" y="481" on="1"/>
        <pt x="238" y="481" on="0"/>
        <pt x="269" y="458" on="0"/>
        <pt x="290" y="427" on="0"/>
        <pt x="311" y="403" on="0"/>
        <pt x="326" y="403" on="1"/>
        <pt x="343" y="403" on="0"/>
        <pt x="366" y="442" on="0"/>
        <pt x="372" y="476" on="1"/>
        <pt x="411" y="476" on="1"/>
        <pt x="403" y="431" on="0"/>
        <pt x="362" y="364" on="0"/>
      </contour>
      <contour>
        <pt x="323" y="164" on="1"/>
        <pt x="300" y="164" on="0"/>
        <pt x="270" y="188" on="0"/>
        <pt x="249" y="219" on="0"/>
        <pt x="227" y="242" on="0"/>
        <pt x="212" y="242" on="1"/>
        <pt x="193" y="242" on="0"/>
        <pt x="169" y="202" on="0"/>
        <pt x="164" y="169" on="1"/>
        <pt x="124" y="169" on="1"/>
        <pt x="133" y="217" on="0"/>
        <pt x="175" y="281" on="0"/>
        <pt x="214" y="281" on="1"/>
        <pt x="238" y="281" on="0"/>
        <pt x="269" y="258" on="0"/>
        <pt x="290" y="227" on="0"/>
        <pt x="311" y="203" on="0"/>
        <pt x="326" y="203" on="1"/>
        <pt x="343" y="203" on="0"/>
        <pt x="366" y="242" on="0"/>
        <pt x="372" y="276" on="1"/>
        <pt x="411" y="276" on="1"/>
        <pt x="403" y="231" on="0"/>
        <pt x="362" y="164" on="0"/>
      </contour>
    </TTGlyph>
    <TTGlyph name="aring" xMin="58" yMin="-10" xMax="597" yMax="820">
      <contour>
        <pt x="385" y="610" on="1"/>
        <pt x="341" y="610" on="0"/>
        <pt x="280" y="671" on="0"/>
        <pt x="280" y="715" on="1"/>
        <pt x="280" y="758" on="0"/>
        <pt x="341" y="820" on="0"/>
        <pt x="385" y="820" on="1"/>
        <pt x="429" y="820" on="0"/>
        <pt x="490" y="758" on="0"/>
        <pt x="490" y="715" on="1"/>
        <pt x="490" y="671" on="0"/>
        <pt x="429" y="610" on="0"/>
      </contour>
      <contour>
        <pt x="385" y="653" on="1"/>
        <pt x="411" y="653" on="0"/>
        <pt x="447" y="689" on="0"/>
        <pt x="447" y="715" on="1"/>
        <pt x="447" y="740" on="0"/>
        <pt x="411" y="777" on="0"/>
        <pt x="385" y="777" on="1"/>
        <pt x="359" y="777" on="0"/>
        <pt x="323" y="740" on="0"/>
        <pt x="323" y="715" on="1"/>
        <pt x="323" y="689" on="0"/>
        <pt x="359" y="653" on="0"/>
      </contour>
      <contour>
        <pt x="334" y="540" on="1"/>
        <pt x="385" y="540" on="0"/>
        <pt x="452" y="506" on="0"/>
        <pt x="492" y="460" on="0"/>
        <pt x="510" y="420" on="0"/>
        <pt x="512" y="415" on="1"/>
        <pt x="517" y="415" on="1"/>
        <pt x="542" y="530" on="1"/>
        <pt x="597" y="530" on="1"/>
        <pt x="484" y="0" on="1"/>
        <pt x="428" y="0" on="1"/>
        <pt x="448" y="92" on="1"/>
        <pt x="444" y="92" on="1"/>
        <pt x="444" y="92" on="0"/>
        <pt x="421" y="61" on="0"/>
        <pt x="375" y="21" on="0"/>
        <pt x="305" y="-10" on="0"/>
        <pt x="258" y="-10" on="1"/>
        <pt x="191" y="-10" on="0"/>
        <pt x="102" y="55" on="0"/>
        <pt x="58" y="159" on="0"/>
        <pt x="58" y="219" on="1"/>
        <pt x="58" y="276" on="0"/>
        <pt x="95" y="390" on="0"/>
        <pt x="166" y="483" on="0"/>
        <pt x="269" y="540" on="0"/>
      </contour>
      <contour>
        <pt x="336" y="490" on="1"/>
        <pt x="283" y="490" on="0"/>
        <pt x="200" y="442" on="0"/>
        <pt x="143" y="361" on="0"/>
        <pt x="113" y="265" on="0"/>
        <pt x="113" y="218" on="1"/>
        <pt x="113" y="171" on="0"/>
        <pt x="145" y="90" on="0"/>
        <pt x="212" y="40" on="0"/>
        <pt x="265" y="40" on="1"/>
        <pt x="317" y="40" on="0"/>
        <pt x="400" y="89" on="0"/>
        <pt x="458" y="169" on="0"/>
        <pt x="488" y="266" on="0"/>
        <pt x="488" y="313" on="1"/>
        <pt x="488" y="361" on="0"/>
        <pt x="456" y="441" on="0"/>
        <pt x="389" y="490" on="0"/>
      </contour>
    </TTGlyph>
    <TTGlyph name="aring.ss01" xMin="30" yMin="-10" xMax="492" yMax="820">
      <contour>
        <pt x="345" y="610" on="1"/>
        <pt x="302" y="610" on="0"/>
        <pt x="240" y="671" on="0"/>
        <pt x="240" y="715" on="1"/>
        <pt x="240" y="758" on="0"/>
        <pt x="302" y="820" on="0"/>
        <pt x="345" y="820" on="1"/>
        <pt x="389" y="820" on="0"/>
        <pt x="450" y="758" on="0"/>
        <pt x="450" y="715" on="1"/>
        <pt x="450" y="671" on="0"/>
        <pt x="389" y="610" on="0"/>
      </contour>
      <contour>
        <pt x="345" y="653" on="1"/>
        <pt x="371" y="653" on="0"/>
        <pt x="407" y="689" on="0"/>
        <pt x="407" y="715" on="1"/>
        <pt x="407" y="740" on="0"/>
        <pt x="371" y="777" on="0"/>
        <pt x="345" y="777" on="1"/>
        <pt x="319" y="777" on="0"/>
        <pt x="283" y="740" on="0"/>
        <pt x="283" y="715" on="1"/>
        <pt x="283" y="689" on="0"/>
        <pt x="319" y="653" on="0"/>
      </contour>
      <contour>
        <pt x="364" y="85" on="1"/>
        <pt x="364" y="85" on="0"/>
        <pt x="343" y="57" on="0"/>
        <pt x="300" y="19" on="0"/>
        <pt x="234" y="-10" on="0"/>
        <pt x="189" y="-10" on="1"/>
        <pt x="118" y="-10" on="0"/>
        <pt x="30" y="71" on="0"/>
        <pt x="30" y="133" on="1"/>
        <pt x="30" y="197" on="0"/>
        <pt x="126" y="287" on="0"/>
        <pt x="221" y="291" on="1"/>
        <pt x="417" y="299" on="1"/>
        <pt x="425" y="338" on="1"/>
        <pt x="430" y="361" on="0"/>
        <pt x="428" y="414" on="0"/>
        <pt x="405" y="461" on="0"/>
        <pt x="351" y="491" on="0"/>
        <pt x="305" y="491" on="1"/>
        <pt x="254" y="491" on="0"/>
        <pt x="191" y="456" on="0"/>
        <pt x="159" y="410" on="0"/>
        <pt x="148" y="375" on="0"/>
        <pt x="148" y="375" on="1"/>
        <pt x="92" y="375" on="1"/>
        <pt x="92" y="375" on="0"/>
        <pt x="102" y="409" on="0"/>
        <pt x="129" y="458" on="0"/>
        <pt x="177" y="507" on="0"/>
        <pt x="252" y="540" on="0"/>
        <pt x="306" y="540" on="1"/>
        <pt x="370" y="540" on="0"/>
        <pt x="457" y="487" on="0"/>
        <pt x="492" y="393" on="0"/>
        <pt x="478" y="331" on="1"/>
        <pt x="408" y="0" on="1"/>
        <pt x="353" y="0" on="1"/>
        <pt x="372" y="85" on="1"/>
      </contour>
      <contour>
        <pt x="84" y="137" on="1"/>
        <pt x="84" y="88" on="0"/>
        <pt x="154" y="36" on="0"/>
        <pt x="201" y="36" on="1"/>
        <pt x="251" y="36" on="0"/>
        <pt x="334" y="88" on="0"/>
        <pt x="390" y="173" on="0"/>
        <pt x="400" y="222" on="1"/>
        <pt x="407" y="253" on="1"/>
        <pt x="223" y="246" on="1"/>
        <pt x="159" y="243" on="0"/>
        <pt x="84" y="187" on="0"/>
      </contour>
    </TTGlyph>
    <TTGlyph name="asciicircum" xMin="170" yMin="583" xMax="450" yMax="740">
      <contour>
        <pt x="170" y="583" on="1"/>
        <pt x="317" y="740" on="1"/>
        <pt x="369" y="740" on="1"/>
        <pt x="450" y="583" on="1"/>
        <pt x="400" y="583" on="1"/>
        <pt x="339" y="703" on="1"/>
        <pt x="229" y="583" on="1"/>
      </contour>
    </TTGlyph>
    <TTGlyph name="asciitilde" xMin="97" yMin="320" xMax="384" yMax="437">
      <contour>
        <pt x="296" y="320" on="1"/>
        <pt x="273" y="320" on="0"/>
        <pt x="243" y="344" on="0"/>
        <pt x="221" y="375" on="0"/>
        <pt x="200" y="398" on="0"/>
        <pt x="184" y="398" on="1"/>
        <pt x="166" y="398" on="0"/>
        <pt x="142" y="358" on="0"/>
        <pt x="136" y="325" on="1"/>
        <pt x="97" y="325" on="1"/>
        <pt x="106" y="373" on="0"/>
        <pt x="148" y="437" on="0"/>
        <pt x="187" y="437" on="1"/>
        <pt x="211" y="437" on="0"/>
        <pt x="241" y="414" on="0"/>
        <pt x="263" y="383" on="0"/>
        <pt x="283" y="359" on="0"/>
        <pt x="298" y="359" on="1"/>
        <pt x="316" y="359" on="0"/>
        <pt x="339" y="398" on="0"/>
        <pt x="345" y="432" on="1"/>
        <pt x="384" y="432" on="1"/>
        <pt x="375" y="387" on="0"/>
        <pt x="334" y="320" on="0"/>
      </contour>
    </TTGlyph>
    <TTGlyph name="asterisk" xMin="114" yMin="358" xMax="516" yMax="740">
      <contour>
        <pt x="215" y="358" on="1"/>
        <pt x="176" y="386" on="1"/>
        <pt x="278" y="524" on="1"/>
        <pt x="114" y="576" on="1"/>
        <pt x="129" y="623" on="1"/>
        <pt x="292" y="568" on="1"/>
        <pt x="291" y="740" on="1"/>
        <pt x="339" y="740" on="1"/>
        <pt x="339" y="568" on="1"/>
        <pt x="502" y="623" on="1"/>
        <pt x="516" y="576" on="1"/>
        <pt x="354" y="524" on="1"/>
        <pt x="454" y="386" on="1"/>
        <pt x="415" y="358" on="1"/>
        <pt x="315" y="496" on="1"/>
      </contour>
    </TTGlyph>
    <TTGlyph name="at" xMin="59" yMin="-94" xMax="888" yMax="745">
      <contour>
        <pt x="442" y="-94" on="1"/>
        <pt x="345" y="-94" on="0"/>
        <pt x="200" y="-32" on="0"/>
        <pt x="106" y="75" on="0"/>
        <pt x="59" y="211" on="0"/>
        <pt x="59" y="284" on="1"/>
        <pt x="59" y="367" on="0"/>
        <pt x="117" y="530" on="0"/>
        <pt x="231" y="664" on="0"/>
        <pt x="398" y="745" on="0"/>
        <pt x="507" y="745" on="1"/>
        <pt x="607" y="745" on="0"/>
        <pt x="752" y="682" on="0"/>
        <pt x="844" y="577" on="0"/>
        <pt x="888" y="447" on="0"/>
        <pt x="888" y="381" on="1"/>
        <pt x="888" y="327" on="0"/>
        <pt x="861" y="227" on="0"/>
        <pt x="810" y="148" on="0"/>
        <pt x="740" y="103" on="0"/>
        <pt x="696" y="103" on="1"/>
        <pt x="655" y="103" on="0"/>
        <pt x="610" y="134" on="0"/>
        <pt x="589" y="174" on="0"/>
        <pt x="584" y="205" on="0"/>
        <pt x="584" y="205" on="1"/>
        <pt x="580" y="205" on="1"/>
        <pt x="580" y="205" on="0"/>
        <pt x="561" y="174" on="0"/>
        <pt x="522" y="134" on="0"/>
        <pt x="461" y="103" on="0"/>
        <pt x="419" y="103" on="1"/>
        <pt x="368" y="103" on="0"/>
        <pt x="300" y="153" on="0"/>
        <pt x="267" y="236" on="0"/>
        <pt x="267" y="284" on="1"/>
        <pt x="267" y="329" on="0"/>
        <pt x="295" y="421" on="0"/>
        <pt x="349" y="497" on="0"/>
        <pt x="427" y="543" on="0"/>
        <pt x="475" y="543" on="1"/>
        <pt x="516" y="543" on="0"/>
        <pt x="568" y="513" on="0"/>
        <pt x="598" y="474" on="0"/>
        <pt x="610" y="445" on="0"/>
        <pt x="610" y="445" on="1"/>
        <pt x="614" y="445" on="1"/>
        <pt x="633" y="535" on="1"/>
        <pt x="683" y="535" on="1"/>
        <pt x="640" y="331" on="1"/>
        <pt x="633" y="298" on="0"/>
        <pt x="627" y="233" on="0"/>
        <pt x="636" y="180" on="0"/>
        <pt x="667" y="147" on="0"/>
        <pt x="698" y="147" on="1"/>
        <pt x="738" y="147" on="0"/>
        <pt x="801" y="213" on="0"/>
        <pt x="838" y="320" on="0"/>
        <pt x="838" y="381" on="1"/>
        <pt x="838" y="439" on="0"/>
        <pt x="799" y="552" on="0"/>
        <pt x="719" y="643" on="0"/>
        <pt x="593" y="698" on="0"/>
        <pt x="506" y="698" on="1"/>
        <pt x="409" y="698" on="0"/>
        <pt x="261" y="626" on="0"/>
        <pt x="161" y="506" on="0"/>
        <pt x="110" y="360" on="0"/>
        <pt x="110" y="286" on="1"/>
        <pt x="110" y="221" on="0"/>
        <pt x="150" y="101" on="0"/>
        <pt x="232" y="8" on="0"/>
        <pt x="357" y="-47" on="0"/>
        <pt x="441" y="-47" on="1"/>
        <pt x="494" y="-47" on="0"/>
        <pt x="584" y="-29" on="0"/>
        <pt x="651" y="-7" on="0"/>
        <pt x="688" y="11" on="0"/>
        <pt x="688" y="11" on="1"/>
        <pt x="705" y="-32" on="1"/>
        <pt x="705" y="-32" on="0"/>
        <pt x="668" y="-51" on="0"/>
        <pt x="598" y="-75" on="0"/>
        <pt x="502" y="-94" on="0"/>
      </contour>
      <contour>
        <pt x="429" y="146" on="1"/>
        <pt x="467" y="146" on="0"/>
        <pt x="527" y="184" on="0"/>
        <pt x="569" y="246" on="0"/>
        <pt x="590" y="321" on="0"/>
        <pt x="590" y="358" on="1"/>
        <pt x="590" y="395" on="0"/>
        <pt x="567" y="459" on="0"/>
        <pt x="517" y="499" on="0"/>
        <pt x="478" y="499" on="1"/>
        <pt x="427" y="499" on="0"/>
        <pt x="355" y="434" on="0"/>
        <pt x="316" y="337" on="0"/>
        <pt x="316" y="287" on="1"/>
        <pt x="316" y="250" on="0"/>
        <pt x="340" y="186" on="0"/>
        <pt x="390" y="146" on="0"/>
      </contour>
    </TTGlyph>
    <TTGlyph name="atilde" xMin="58" yMin="-10" xMax="597" yMax="738">
      <contour>
        <pt x="448" y="619" on="1"/>
        <pt x="424" y="619" on="0"/>
        <pt x="394" y="643" on="0"/>
        <pt x="372" y="674" on="0"/>
        <pt x="351" y="697" on="0"/>
        <pt x="335" y="697" on="1"/>
        <pt x="317" y="697" on="0"/>
        <pt x="293" y="657" on="0"/>
        <pt x="288" y="625" on="1"/>
        <pt x="246" y="625" on="1"/>
        <pt x="256" y="675" on="0"/>
        <pt x="299" y="738" on="0"/>
        <pt x="338" y="738" on="1"/>
        <pt x="362" y="738" on="0"/>
        <pt x="393" y="715" on="0"/>
        <pt x="414" y="685" on="0"/>
        <pt x="435" y="661" on="0"/>
        <pt x="450" y="661" on="1"/>
        <pt x="484" y="661" on="0"/>
        <pt x="496" y="733" on="1"/>
        <pt x="537" y="733" on="1"/>
        <pt x="528" y="685" on="0"/>
        <pt x="486" y="619" on="0"/>
      </contour>
      <contour>
        <pt x="334" y="540" on="1"/>
        <pt x="385" y="540" on="0"/>
        <pt x="452" y="506" on="0"/>
        <pt x="492" y="460" on="0"/>
        <pt x="510" y="420" on="0"/>
        <pt x="512" y="415" on="1"/>
        <pt x="517" y="415" on="1"/>
        <pt x="542" y="530" on="1"/>
        <pt x="597" y="530" on="1"/>
        <pt x="484" y="0" on="1"/>
        <pt x="428" y="0" on="1"/>
        <pt x="448" y="92" on="1"/>
        <pt x="444" y="92" on="1"/>
        <pt x="444" y="92" on="0"/>
        <pt x="421" y="61" on="0"/>
        <pt x="375" y="21" on="0"/>
        <pt x="305" y="-10" on="0"/>
        <pt x="258" y="-10" on="1"/>
        <pt x="191" y="-10" on="0"/>
        <pt x="102" y="55" on="0"/>
        <pt x="58" y="159" on="0"/>
        <pt x="58" y="219" on="1"/>
        <pt x="58" y="276" on="0"/>
        <pt x="95" y="390" on="0"/>
        <pt x="166" y="483" on="0"/>
        <pt x="269" y="540" on="0"/>
      </contour>
      <contour>
        <pt x="336" y="490" on="1"/>
        <pt x="283" y="490" on="0"/>
        <pt x="200" y="442" on="0"/>
        <pt x="143" y="361" on="0"/>
        <pt x="113" y="265" on="0"/>
        <pt x="113" y="218" on="1"/>
        <pt x="113" y="171" on="0"/>
        <pt x="145" y="90" on="0"/>
        <pt x="212" y="40" on="0"/>
        <pt x="265" y="40" on="1"/>
        <pt x="317" y="40" on="0"/>
        <pt x="400" y="89" on="0"/>
        <pt x="458" y="169" on="0"/>
        <pt x="488" y="266" on="0"/>
        <pt x="488" y="313" on="1"/>
        <pt x="488" y="361" on="0"/>
        <pt x="456" y="441" on="0"/>
        <pt x="389" y="490" on="0"/>
      </contour>
    </TTGlyph>
    <TTGlyph name="atilde.ss01" xMin="30" yMin="-10" xMax="498" yMax="738">
      <contour>
        <pt x="408" y="619" on="1"/>
        <pt x="384" y="619" on="0"/>
        <pt x="354" y="643" on="0"/>
        <pt x="333" y="674" on="0"/>
        <pt x="311" y="697" on="0"/>
        <pt x="296" y="697" on="1"/>
        <pt x="277" y="697" on="0"/>
        <pt x="253" y="657" on="0"/>
        <pt x="248" y="625" on="1"/>
        <pt x="207" y="625" on="1"/>
        <pt x="216" y="675" on="0"/>
        <pt x="259" y="738" on="0"/>
        <pt x="298" y="738" on="1"/>
        <pt x="323" y="738" on="0"/>
        <pt x="353" y="715" on="0"/>
        <pt x="375" y="685" on="0"/>
        <pt x="395" y="661" on="0"/>
        <pt x="410" y="661" on="1"/>
        <pt x="444" y="661" on="0"/>
        <pt x="456" y="733" on="1"/>
        <pt x="498" y="733" on="1"/>
        <pt x="488" y="685" on="0"/>
        <pt x="446" y="619" on="0"/>
      </contour>
      <contour>
        <pt x="364" y="85" on="1"/>
        <pt x="364" y="85" on="0"/>
        <pt x="343" y="57" on="0"/>
        <pt x="300" y="19" on="0"/>
        <pt x="234" y="-10" on="0"/>
        <pt x="189" y="-10" on="1"/>
        <pt x="118" y="-10" on="0"/>
        <pt x="30" y="71" on="0"/>
        <pt x="30" y="133" on="1"/>
        <pt x="30" y="197" on="0"/>
        <pt x="126" y="287" on="0"/>
        <pt x="221" y="291" on="1"/>
        <pt x="417" y="299" on="1"/>
        <pt x="425" y="338" on="1"/>
        <pt x="430" y="361" on="0"/>
        <pt x="428" y="414" on="0"/>
        <pt x="405" y="461" on="0"/>
        <pt x="351" y="491" on="0"/>
        <pt x="305" y="491" on="1"/>
        <pt x="254" y="491" on="0"/>
        <pt x="191" y="456" on="0"/>
        <pt x="159" y="410" on="0"/>
        <pt x="148" y="375" on="0"/>
        <pt x="148" y="375" on="1"/>
        <pt x="92" y="375" on="1"/>
        <pt x="92" y="375" on="0"/>
        <pt x="102" y="409" on="0"/>
        <pt x="129" y="458" on="0"/>
        <pt x="177" y="507" on="0"/>
        <pt x="252" y="540" on="0"/>
        <pt x="306" y="540" on="1"/>
        <pt x="370" y="540" on="0"/>
        <pt x="457" y="487" on="0"/>
        <pt x="492" y="393" on="0"/>
        <pt x="478" y="331" on="1"/>
        <pt x="408" y="0" on="1"/>
        <pt x="353" y="0" on="1"/>
        <pt x="372" y="85" on="1"/>
      </contour>
      <contour>
        <pt x="84" y="137" on="1"/>
        <pt x="84" y="88" on="0"/>
        <pt x="154" y="36" on="0"/>
        <pt x="201" y="36" on="1"/>
        <pt x="251" y="36" on="0"/>
        <pt x="334" y="88" on="0"/>
        <pt x="390" y="173" on="0"/>
        <pt x="400" y="222" on="1"/>
        <pt x="407" y="253" on="1"/>
        <pt x="223" y="246" on="1"/>
        <pt x="159" y="243" on="0"/>
        <pt x="84" y="187" on="0"/>
      </contour>
    </TTGlyph>
    <TTGlyph name="b" xMin="32" yMin="-10" xMax="571" yMax="760">
      <contour>
        <pt x="295" y="-10" on="1"/>
        <pt x="244" y="-10" on="0"/>
        <pt x="177" y="24" on="0"/>
        <pt x="137" y="70" on="0"/>
        <pt x="119" y="110" on="0"/>
        <pt x="117" y="115" on="1"/>
        <pt x="112" y="115" on="1"/>
        <pt x="88" y="0" on="1"/>
        <pt x="32" y="0" on="1"/>
        <pt x="195" y="760" on="1"/>
        <pt x="250" y="760" on="1"/>
        <pt x="181" y="438" on="1"/>
        <pt x="185" y="438" on="1"/>
        <pt x="185" y="438" on="0"/>
        <pt x="208" y="469" on="0"/>
        <pt x="254" y="509" on="0"/>
        <pt x="324" y="540" on="0"/>
        <pt x="371" y="540" on="1"/>
        <pt x="438" y="540" on="0"/>
        <pt x="527" y="475" on="0"/>
        <pt x="571" y="371" on="0"/>
        <pt x="571" y="311" on="1"/>
        <pt x="571" y="254" on="0"/>
        <pt x="534" y="140" on="0"/>
        <pt x="463" y="47" on="0"/>
        <pt x="361" y="-10" on="0"/>
      </contour>
      <contour>
        <pt x="294" y="40" on="1"/>
        <pt x="347" y="40" on="0"/>
        <pt x="429" y="88" on="0"/>
        <pt x="487" y="169" on="0"/>
        <pt x="517" y="265" on="0"/>
        <pt x="517" y="312" on="1"/>
        <pt x="517" y="359" on="0"/>
        <pt x="485" y="440" on="0"/>
        <pt x="417" y="490" on="0"/>
        <pt x="365" y="490" on="1"/>
        <pt x="312" y="490" on="0"/>
        <pt x="230" y="441" on="0"/>
        <pt x="172" y="361" on="0"/>
        <pt x="141" y="264" on="0"/>
        <pt x="141" y="217" on="1"/>
        <pt x="141" y="169" on="0"/>
        <pt x="173" y="89" on="0"/>
        <pt x="241" y="40" on="0"/>
      </contour>
    </TTGlyph>
    <TTGlyph name="backslash" xMin="133" yMin="-129" xMax="327" yMax="820">
      <contour>
        <pt x="327" y="-129" on="1"/>
        <pt x="277" y="-129" on="1"/>
        <pt x="133" y="820" on="1"/>
        <pt x="183" y="820" on="1"/>
      </contour>
    </TTGlyph>
    <TTGlyph name="bar" xMin="63" yMin="-222" xMax="364" yMax="950">
      <contour>
        <pt x="63" y="-222" on="1"/>
        <pt x="312" y="950" on="1"/>
        <pt x="364" y="950" on="1"/>
        <pt x="115" y="-222" on="1"/>
      </contour>
    </TTGlyph>
    <TTGlyph name="braceleft" xMin="59" yMin="-188" xMax="491" yMax="827">
      <contour>
        <pt x="180" y="-188" on="1"/>
        <pt x="117" y="-188" on="0"/>
        <pt x="67" y="-116" on="0"/>
        <pt x="78" y="-65" on="1"/>
        <pt x="140" y="227" on="1"/>
        <pt x="146" y="259" on="0"/>
        <pt x="122" y="296" on="0"/>
        <pt x="86" y="296" on="1"/>
        <pt x="59" y="296" on="1"/>
        <pt x="69" y="343" on="1"/>
        <pt x="95" y="343" on="1"/>
        <pt x="164" y="343" on="0"/>
        <pt x="180" y="416" on="1"/>
        <pt x="242" y="706" on="1"/>
        <pt x="254" y="764" on="0"/>
        <pt x="327" y="827" on="0"/>
        <pt x="382" y="827" on="1"/>
        <pt x="491" y="827" on="1"/>
        <pt x="481" y="777" on="1"/>
        <pt x="382" y="777" on="1"/>
        <pt x="311" y="777" on="0"/>
        <pt x="296" y="706" on="1"/>
        <pt x="234" y="415" on="1"/>
        <pt x="227" y="381" on="0"/>
        <pt x="196" y="334" on="0"/>
        <pt x="160" y="321" on="1"/>
        <pt x="160" y="318" on="1"/>
        <pt x="190" y="305" on="0"/>
        <pt x="201" y="254" on="0"/>
        <pt x="193" y="220" on="1"/>
        <pt x="131" y="-70" on="1"/>
        <pt x="124" y="-103" on="0"/>
        <pt x="153" y="-139" on="0"/>
        <pt x="185" y="-139" on="1"/>
        <pt x="286" y="-139" on="1"/>
        <pt x="275" y="-188" on="1"/>
      </contour>
    </TTGlyph>
</ttFont>
